{
.appVersion = "3148";
.formatVersion = 3;
DisplayStrings = (
"·"
);
axes = (
{
name = Weight;
tag = wght;
}
);
customParameters = (
{
name = blueScale;
value = 0.037;
}
);
date = "2021-03-04 17:56:44 +0000";
familyName = "Rethink Sans";
featurePrefixes = (
{
automatic = 1;
code = "languagesystem DFLT dflt;

languagesystem latn dflt;
languagesystem latn AZE;
languagesystem latn CRT;
languagesystem latn KAZ;
languagesystem latn TAT;
languagesystem latn TRK;
languagesystem latn ROM;
languagesystem latn MOL;
languagesystem latn CAT;
languagesystem latn NLD;
";
name = Languagesystems;
}
);
features = (
{
automatic = 1;
code = "feature locl;
feature subs;
feature sinf;
feature sups;
feature numr;
feature dnom;
feature frac;
feature ordn;
feature case;
";
tag = aalt;
},
{
automatic = 1;
code = "lookup ccmp_Other_1 {
	@CombiningTopAccents = [acutecomb brevecomb caroncomb circumflexcomb commaturnedabovecomb dieresiscomb dotaccentcomb gravecomb hungarumlautcomb macroncomb ringcomb tildecomb];
	@CombiningNonTopAccents = [cedillacomb ogonekcomb];
	sub [j]' @CombiningTopAccents by [jdotless];
	sub [j]' @CombiningNonTopAccents @CombiningTopAccents by [jdotless];
} ccmp_Other_1;

lookup ccmp_latn_1 {
	sub fi by f i;
	sub fl by f l;
	sub Ldot by L periodcentered.loclCAT.case;
} ccmp_latn_1;

script latn;
lookup ccmp_latn_1;
";
tag = ccmp;
},
{
automatic = 1;
code = "lookup locl_latn_0 {
	script latn;
	language AZE;
	sub i by idotaccent;
	language CRT;
	sub i by idotaccent;
	language KAZ;
	sub i by idotaccent;
	language TAT;
	sub i by idotaccent;
	language TRK;
	sub i by idotaccent;
} locl_latn_0;

lookup locl_latn_1 {
	script latn;
	language ROM;
	sub Scedilla by Scommaaccent;
	sub scedilla by scommaaccent;
	sub Tcedilla by Tcommaaccent;
	sub tcedilla by tcommaaccent;
	language MOL;
	sub Scedilla by Scommaaccent;
	sub scedilla by scommaaccent;
	sub Tcedilla by Tcommaaccent;
	sub tcedilla by tcommaaccent;
} locl_latn_1;

lookup locl_latn_2 {
	script latn;
	language CAT;

glyphs = (
{
glyphname = A;
kernLeft = A;
kernRight = A;
lastChange = "2022-12-23 00:27:27 +0000";
layers = (
{
anchors = (
{
name = bottom;
pos = (347,0);
},
{
name = ogonek;
pos = (675,0);
},
{
name = top;
pos = (347,700);
}
);
hints = (
{
horizontal = 1;
place = (158, 96);
place = (158, 96);
type = Stem;
},
{
place = (19, 652);
place = (19, 652);
type = Stem;
}
);
layerId = m01;
shapes = (
{
closed = 1;
nodes = (
(153,0,l),
(209,159,l),
(484,159,l),
(539,0,l),
(675,0,l),
(419,700,l),
(275,700,l),
(19,0,l)
);
},
{
closed = 1;
nodes = (
(346,553,l),
(448,262,l),
(245,262,l)
);
}
);
width = 693;
},
{
anchors = (
{
name = bottom;
pos = (332,0);
},
{
name = ogonek;
pos = (634,0);
},
{
name = top;
pos = (332,700);
}
);
hints = (
{
horizontal = 1;
place = (180, 68);
place = (180, 68);
type = Stem;
},
{
place = (30, 604);
place = (30, 604);
type = Stem;
}
);
layerId = "E8FC3098-FD3B-4CCD-A487-BB9306939620";
shapes = (
{
closed = 1;
nodes = (
(118,0,l),
(183,180,l),
(481,180,l),
(545,0,l),
(634,0,l),
(377,700,l),
(288,700,l),
(30,0,l)
);
},
{
closed = 1;
nodes = (
(332,594,l),
(456,248,l),
(208,248,l)
);
}
);
width = 664;
},
{
anchors = (
{
name = bottom;
pos = (346,0);
},
{
name = ogonek;
pos = (692,0);
},
{
name = top;
pos = (346,700);
}
);
hints = (
{
horizontal = 1;
place = (133, 105);
place = (133, 105);
type = Stem;
},
{
place = (2, 674);
place = (2, 674);
type = Stem;
}
);
layerId = "E93BD6B3-FA9D-4EFB-B4A0-6094DEE674CC";
shapes = (
{
closed = 1;
nodes = (
(166,0,l),
(216,145,l),
(476,145,l),
(525,0,l),
(692,0,l),
(437,700,l),
(256,700,l),
(2,0,l)
);
},
{
closed = 1;
nodes = (
(345,526,l),
(433,271,l),
(260,271,l)
);
}
);
width = 692;
}
);
note = A;
unicode = 65;
},
{
glyphname = AE;
kernLeft = AE;
lastChange = "2022-12-23 00:27:27 +0000";
layers = (
{
anchors = (
{
name = bottom;
pos = (466,0);
},
{
name = top;
pos = (546,700);
}
);
hints = (
{
horizontal = 1;
place = (-4, 97);
place = (-4, 97);
type = Stem;
},
{
horizontal = 1;
place = (134, 95);
place = (134, 95);
type = Stem;
},
{
horizontal = 1;
place = (302, 95);
place = (302, 95);
type = Stem;
},
{
horizontal = 1;
place = (595, 97);
place = (595, 97);
type = Stem;
},
{
place = (482, 124);
place = (482, 124);
type = Stem;
}
);
layerId = m01;
shapes = (
{
closed = 1;
nodes = (
(158,0,l),
(232,136,l),
(482,136,l),
(482,0,l),
(881,0,l),
(881,109,l),
(610,109,l),
(610,315,l),
(837,315,l),
(837,424,l),
(610,424,l),
(610,591,l),
(881,591,l),
(881,700,l),
(398,700,l),
(19,0,l)
);
},
{
closed = 1;
nodes = (
(482,602,l),
(482,237,l),
(286,237,l)
);
}
);
width = 931;
},
{
anchors = (
{
name = bottom;
pos = (456,0);
},
{
name = top;
pos = (526,700);
}
);
hints = (
{
horizontal = 1;
place = (0, 67);
place = (0, 67);
type = Stem;
},
{
horizontal = 1;
place = (159, 67);
place = (159, 67);
type = Stem;
},
{
horizontal = 1;
place = (320, 66);
place = (320, 66);
type = Stem;
},
{
horizontal = 1;
place = (633, 67);
place = (633, 67);
type = Stem;
},
{
place = (481, 84);
place = (481, 84);
type = Stem;
}
);
layerId = "E8FC3098-FD3B-4CCD-A487-BB9306939620";
shapes = (
{
closed = 1;
nodes = (
(122,0,l),
(212,159,l),
(481,159,l),
(481,0,l),
(854,0,l),
(854,67,l),
(565,67,l),
(565,338,l),
(808,338,l),
(808,406,l),
(565,406,l),
(565,633,l),
(854,633,l),
(854,700,l),
(429,700,l),
(30,0,l)
);
},
{
closed = 1;
nodes = (
(481,631,l),
(481,226,l),
(250,226,l)
);
}
);
width = 911;
},
{
anchors = (
{
name = bottom;
pos = (462,0);
},
{
name = top;
pos = (558,700);
}
);
hints = (
{
horizontal = 1;
place = (-17, 107);
place = (-17, 107);
type = Stem;
},
{
horizontal = 1;
place = (107, 104);
place = (107, 104);
type = Stem;
},
{
horizontal = 1;
place = (280, 104);
place = (280, 104);
type = Stem;
},
{
horizontal = 1;
place = (560, 107);
place = (560, 107);
type = Stem;
},
{
place = (473, 141);
place = (473, 141);
type = Stem;
}
);
layerId = "E93BD6B3-FA9D-4EFB-B4A0-6094DEE674CC";
shapes = (
{
closed = 1;
nodes = (
(172,0,l),
(235,121,l),
(473,121,l),
(473,0,l),
(889,0,l),
(889,136,l),
(630,136,l),
(630,301,l),
(842,301,l),
(842,437,l),
(630,437,l),
(630,564,l),
(889,564,l),
(889,700,l),
(367,700,l),
(2,0,l)
);
},
{
closed = 1;
nodes = (
(473,583,l),
(473,244,l),
(300,244,l)
);
}
);
width = 924;
}
);
note = AE;
unicode = 198;
},
{
glyphname = B;
lastChange = "2022-12-23 00:27:27 +0000";
layers = (
{
hints = (
{
horizontal = 1;
place = (-4, 100);
place = (-4, 100);
type = Stem;
},
{
horizontal = 1;
place = (306, 92);
place = (306, 92);
type = Stem;
},
{
horizontal = 1;
place = (593, 99);
place = (593, 99);
type = Stem;
},
{
place = (64, 124);
place = (64, 124);
type = Stem;
},
{
place = (455, 126);
place = (455, 126);
type = Stem;
},
{
place = (438, 127);
place = (438, 127);
type = Stem;
}
);
layerId = m01;
shapes = (
{
closed = 1;
nodes = (
(355,0,ls),
(502,0,o),
(585,86,o),
(585,197,cs),
(585,280,o),
(525,349,o),
(455,375,c),
(511,399,o),
(553,447,o),
(553,524,cs),
(553,629,o),
(474,700,o),
(329,700,cs),
(64,700,l),
(64,0,l)
);
},
{
closed = 1;
nodes = (
(192,311,l),
(341,311,ls),
(416,311,o),
(455,275,o),
(455,210,cs),
(455,144,o),
(419,109,o),
(343,109,cs),
(192,109,l)
);
},
{
closed = 1;
nodes = (
(192,591,l),
(316,591,ls),
(392,591,o),
(422,561,o),
(422,506,cs),
(422,448,o),
(390,420,o),
(318,420,cs),
(192,420,l)
);
}
);
width = 623;
},
{
hints = (
{
horizontal = 1;
place = (0, 70);
place = (0, 70);
type = Stem;
},
{
horizontal = 1;
place = (327, 67);
place = (327, 67);
type = Stem;
},
{
horizontal = 1;
place = (630, 70);
place = (630, 70);
type = Stem;
},
{
place = (74, 84);
place = (74, 84);
type = Stem;
},
{
place = (453, 86);
place = (453, 86);
type = Stem;
},
{
place = (469, 86);
place = (469, 86);
type = Stem;
}
);
layerId = "E8FC3098-FD3B-4CCD-A487-BB9306939620";
shapes = (
{
closed = 1;
nodes = (
(338,0,ls),
(490,0,o),
(561,83,o),
(561,199,cs),
(561,284,o),
(513,348,o),
(421,377,c),
(481,395,o),
(529,451,o),
(529,529,cs),
(529,630,o),
(447,700,o),
(315,700,cs),
(74,700,l),
(74,0,l)
);
},
{
closed = 1;
nodes = (
(158,339,l),
(310,339,ls),
(406,339,o),
(476,298,o),
(476,204,cs),
(476,111,o),
(415,70,o),
(312,70,cs),
(158,70,l)
);
},
{
closed = 1;
nodes = (
(158,630,l),
(306,630,ls),
(397,630,o),
(444,588,o),
(444,518,cs),
(444,450,o),
(395,406,o),
(309,406,cs),
(158,406,l)
);
}
);
width = 602;
},
{
hints = (
{
horizontal = 1;
place = (-17, 110);
place = (-17, 110);
type = Stem;
},
{
horizontal = 1;
place = (282, 99);
place = (282, 99);
type = Stem;
},
{
horizontal = 1;
place = (558, 108);
place = (558, 108);
type = Stem;
},
{
place = (47, 141);
place = (47, 141);
type = Stem;
},
{
place = (436, 143);
place = (436, 143);
type = Stem;
},
{
place = (418, 144);
place = (418, 144);
type = Stem;
}
);
layerId = "E93BD6B3-FA9D-4EFB-B4A0-6094DEE674CC";
shapes = (
{
closed = 1;
nodes = (
(356,0,ls),
(500,0,o),
(591,88,o),
(591,196,cs),
(591,277,o),
(523,350,o),
(468,374,c),
(521,402,o),
(559,444,o),
(559,521,cs),
(559,628,o),
(482,700,o),
(328,700,cs),
(47,700,l),
(47,0,l)
);
},
{
closed = 1;
nodes = (
(205,292,l),
(352,292,ls),
(413,292,o),
(431,260,o),
(431,214,cs),
(431,166,o),
(412,135,o),
(354,135,cs),
(205,135,l)
);
},
{
closed = 1;
nodes = (
(205,565,l),
(313,565,ls),
(379,565,o),
(397,543,o),
(397,498,cs),
(397,447,o),
(377,429,o),
(314,429,cs),
(205,429,l)
);
}
);
width = 617;
}
);
note = B;
unicode = 66;
},
{
glyphname = C;
kernLeft = C;
kernRight = C;
lastChange = "2022-12-23 00:27:27 +0000";
layers = (
{
anchors = (
{
name = bottom;
pos = (381,0);
},
{
name = top;
pos = (379,700);
}
);
hints = (
{
horizontal = 1;
place = (-16, 111);
place = (-16, 111);
type = Stem;
},
{
horizontal = 1;
place = (592, 112);
place = (592, 112);
type = Stem;
},
{
place = (41, 127);
place = (41, 127);
type = Stem;
}
);
layerId = m01;
shapes = (
{
closed = 1;
nodes = (
(549,-12,o),
(661,74,o),
(688,218,c),
(547,218,l),
(530,146,o),
(472,103,o),
(379,103,cs),
(250,103,o),
(172,196,o),
(172,349,cs),
(172,502,o),
(250,596,o),
(379,596,cs),
(472,596,o),
(530,550,o),
(547,474,c),
(688,474,l),
(661,625,o),
(549,712,o),
(381,712,cs),
(161,712,o),
(41,556,o),
(41,349,cs),
(41,141,o),
(165,-12,o),
(381,-12,cs)
);
}
);
width = 729;
},
{
anchors = (
{
name = bottom;
pos = (381,0);
},
{
name = top;
pos = (381,700);
}
);
hints = (
{
horizontal = 1;
place = (-12, 74);
place = (-12, 74);
type = Stem;
},
{
horizontal = 1;
place = (638, 74);
place = (638, 74);
type = Stem;
},
{
place = (47, 86);
place = (47, 86);
type = Stem;
}
);
layerId = "E8FC3098-FD3B-4CCD-A487-BB9306939620";
shapes = (
{
closed = 1;
nodes = (
(541,-12,o),
(645,68,o),
(673,203,c),
(580,203,l),
(559,118,o),
(493,62,o),
(381,62,cs),
(219,62,o),
(133,184,o),
(133,350,cs),
(133,512,o),
(215,638,o),
(381,638,cs),
(493,638,o),
(559,581,o),
(580,494,c),
(673,494,l),
(645,631,o),
(541,712,o),
(381,712,cs),
(166,712,o),
(47,553,o),
(47,350,cs),
(47,144,o),
(168,-12,o),
(381,-12,cs)
);
}
);
width = 720;
},
{
anchors = (
{
name = bottom;
pos = (371,0);
},
{
name = top;
pos = (369,700);
}
);
hints = (
{
horizontal = 1;
place = (-29, 126);
place = (-29, 126);
type = Stem;
},
{
horizontal = 1;
place = (551, 127);
place = (551, 127);
type = Stem;
},
{
place = (27, 144);
place = (27, 144);
type = Stem;
}
);
layerId = "E93BD6B3-FA9D-4EFB-B4A0-6094DEE674CC";
shapes = (
{
closed = 1;
nodes = (
(544,-12,o),
(662,78,o),
(688,228,c),
(515,228,l),
(501,165,o),
(448,130,o),
(368,130,cs),
(261,130,o),
(188,204,o),
(188,348,cs),
(188,495,o),
(263,568,o),
(368,568,cs),
(448,568,o),
(501,529,o),
(515,461,c),
(688,461,l),
(662,621,o),
(544,712,o),
(371,712,cs),
(148,712,o),
(27,558,o),
(27,348,cs),
(27,139,o),
(153,-12,o),
(371,-12,cs)
);
}
);
width = 715;
}
);
note = C;
unicode = 67;
},
{
glyphname = D;
kernRight = D;
lastChange = "2022-12-23 00:27:27 +0000";
layers = (
{
anchors = (
{
name = bottom;
pos = (346,0);
},
{
name = center;
pos = (346,350);
},
{
name = top;
pos = (346,700);
}
);
hints = (
{
horizontal = 1;
place = (-4, 106);
place = (-4, 106);
type = Stem;
},
{
horizontal = 1;
place = (587, 105);
place = (587, 105);
type = Stem;
},
{
place = (64, 124);
place = (64, 124);
type = Stem;
},
{
place = (531, 127);
place = (531, 127);
type = Stem;
}
);
layerId = m01;
shapes = (
{
closed = 1;
nodes = (
(303,0,ls),
(535,0,o),
(662,125,o),
(662,350,cs),
(662,558,o),
(553,700,o),
(303,700,cs),
(64,700,l),
(64,0,l)
);
},
{
closed = 1;
nodes = (
(192,591,l),
(297,591,ls),
(456,591,o),
(531,517,o),
(531,350,cs),
(531,202,o),
(475,110,o),
(297,110,cs),
(192,110,l)
);
}
);
width = 703;
},
{
anchors = (
{
name = bottom;
pos = (342,0);
},
{
name = center;
pos = (342,350);
},
{
name = top;
pos = (342,700);
}
);
hints = (
{
horizontal = 1;
place = (0, 70);
place = (0, 70);
type = Stem;
},
{
horizontal = 1;
place = (630, 70);
place = (630, 70);
type = Stem;
},
{
place = (74, 84);
place = (74, 84);
type = Stem;
},
{
place = (562, 87);
place = (562, 87);
type = Stem;
}
);
layerId = "E8FC3098-FD3B-4CCD-A487-BB9306939620";
shapes = (
{
closed = 1;
nodes = (
(289,0,ls),
(536,0,o),
(649,133,o),
(649,348,cs),
(649,567,o),
(536,700,o),
(289,700,cs),
(74,700,l),
(74,0,l)
);
},
{
closed = 1;
nodes = (
(158,630,l),
(287,630,ls),
(478,630,o),
(562,539,o),
(562,348,cs),
(562,171,o),
(487,70,o),
(287,70,cs),
(158,70,l)
);
}
);
width = 696;
},
{
anchors = (
{
name = bottom;
pos = (334,0);
},
{
name = center;
pos = (334,350);
},
{
name = top;
pos = (334,700);
}
);
hints = (
{
horizontal = 1;
place = (-17, 120);
place = (-17, 120);
type = Stem;
},
{
horizontal = 1;
place = (548, 118);
place = (548, 118);
type = Stem;
},
{
place = (47, 141);
place = (47, 141);
type = Stem;
},
{
place = (500, 144);
place = (500, 144);
type = Stem;
}
);
layerId = "E93BD6B3-FA9D-4EFB-B4A0-6094DEE674CC";
shapes = (
{
closed = 1;
nodes = (
(302,0,ls),
(524,0,o),
(661,120,o),
(661,351,cs),
(661,552,o),
(554,700,o),
(302,700,cs),
(47,700,l),
(47,0,l)
);
},
{
closed = 1;
nodes = (
(205,565,l),
(294,565,ls),
(431,565,o),
(500,502,o),
(500,351,cs),
(500,223,o),
(457,137,o),
(294,137,cs),
(205,137,l)
);
}
);
width = 688;
}
);
note = D;
unicode = 68;
},
{
glyphname = Eth;
kernRight = D;
lastChange = "2022-12-23 00:27:27 +0000";
layers = (
{
hints = (
{
horizontal = 1;
place = (-4, 106);
place = (-4, 106);
type = Stem;
},
{
horizontal = 1;
place = (291, 106);
place = (291, 106);
type = Stem;
},
{
horizontal = 1;
place = (587, 105);
place = (587, 105);
type = Stem;
},
{
place = (77, 124);
place = (77, 124);
type = Stem;
},
{
place = (544, 127);
place = (544, 127);
type = Stem;
}
);
layerId = m01;
shapes = (
{
closed = 1;
nodes = (
(316,0,ls),
(548,0,o),
(675,125,o),
(675,350,cs),
(675,558,o),
(566,700,o),
(316,700,cs),
(77,700,l),
(77,405,l),
(2,405,l),
(2,295,l),
(77,295,l),
(77,0,l)
);
},
{
closed = 1;
nodes = (
(205,295,l),
(382,295,l),
(382,405,l),
(205,405,l),
(205,591,l),
(310,591,ls),
(469,591,o),
(544,517,o),
(544,350,cs),
(544,202,o),
(488,110,o),
(310,110,cs),
(205,110,l)
);
}
);
width = 716;
},
{
hints = (
{
horizontal = 1;
place = (0, 70);
place = (0, 70);
type = Stem;
},
{
horizontal = 1;
place = (311, 76);
place = (311, 76);
type = Stem;
},
{
horizontal = 1;
place = (630, 70);
place = (630, 70);
type = Stem;
},
{
place = (95, 84);
place = (95, 84);
type = Stem;
},
{
place = (584, 86);
place = (584, 86);
type = Stem;
}
);
layerId = "E8FC3098-FD3B-4CCD-A487-BB9306939620";
shapes = (
{
closed = 1;
nodes = (
(310,0,ls),
(557,0,o),
(670,133,o),
(670,348,cs),
(670,567,o),
(557,700,o),
(310,700,cs),
(95,700,l),
(95,387,l),
(8,387,l),
(8,311,l),
(95,311,l),
(95,0,l)
);
},
{
closed = 1;
nodes = (
(179,311,l),
(381,311,l),
(381,387,l),
(179,387,l),
(179,630,l),
(309,630,ls),
(499,630,o),
(584,538,o),
(584,348,cs),
(584,184,o),
(520,70,o),
(309,70,cs),
(179,70,l)
);
}
);
width = 717;
},
{
hints = (
{
horizontal = 1;
place = (-17, 120);
place = (-17, 120);
type = Stem;
},
{
horizontal = 1;
place = (268, 116);
place = (268, 116);
type = Stem;
},
{
horizontal = 1;
place = (548, 118);
place = (548, 118);
type = Stem;
},
{
place = (55, 141);
place = (55, 141);
type = Stem;
},
{
place = (507, 144);
place = (507, 144);
type = Stem;
}
);
layerId = "E93BD6B3-FA9D-4EFB-B4A0-6094DEE674CC";
shapes = (
{
closed = 1;
nodes = (
(310,0,ls),
(532,0,o),
(668,120,o),
(668,351,cs),
(668,552,o),
(562,700,o),
(310,700,cs),
(55,700,l),
(55,417,l),
(-12,417,l),
(-12,284,l),
(55,284,l),
(55,0,l)
);
},
{
closed = 1;
nodes = (
(212,284,l),
(373,284,l),
(373,417,l),
(212,417,l),
(212,565,l),
(301,565,ls),
(439,565,o),
(507,503,o),
(507,351,cs),
(507,214,o),
(457,137,o),
(301,137,cs),
(212,137,l)
);
}
);
width = 695;
}
);
note = Eth;
unicode = 208;
},
{
glyphname = Dcroat;
kernRight = D;
lastChange = "2022-12-23 00:27:27 +0000";
layers = (
{
hints = (
{
horizontal = 1;
place = (-4, 106);
place = (-4, 106);
type = Stem;
},
{
horizontal = 1;
place = (291, 106);
place = (291, 106);
type = Stem;
},
{
horizontal = 1;
place = (587, 105);
place = (587, 105);
type = Stem;
},
{
place = (77, 124);
place = (77, 124);
type = Stem;
},
{
place = (544, 127);
place = (544, 127);
type = Stem;
}
);
layerId = m01;
shapes = (
{
closed = 1;
nodes = (
(316,0,ls),
(548,0,o),
(675,125,o),
(675,350,cs),
(675,558,o),
(566,700,o),
(316,700,cs),
(77,700,l),
(77,405,l),
(2,405,l),
(2,295,l),
(77,295,l),
(77,0,l)
);
},
{
closed = 1;
nodes = (
(205,295,l),
(382,295,l),
(382,405,l),
(205,405,l),
(205,591,l),
(310,591,ls),
(469,591,o),
(544,517,o),
(544,350,cs),
(544,202,o),
(488,110,o),
(310,110,cs),
(205,110,l)
);
}
);
width = 716;
},
{
hints = (
{
horizontal = 1;
place = (0, 70);
place = (0, 70);
type = Stem;
},
{
horizontal = 1;
place = (311, 76);
place = (311, 76);
type = Stem;
},
{
horizontal = 1;
place = (630, 70);
place = (630, 70);
type = Stem;
},
{
place = (95, 84);
place = (95, 84);
type = Stem;
},
{
place = (584, 86);
place = (584, 86);
type = Stem;
}
);
layerId = "E8FC3098-FD3B-4CCD-A487-BB9306939620";
shapes = (
{
closed = 1;
nodes = (
(310,0,ls),
(557,0,o),
(670,133,o),
(670,348,cs),
(670,567,o),
(557,700,o),
(310,700,cs),
(95,700,l),
(95,387,l),
(8,387,l),
(8,311,l),
(95,311,l),
(95,0,l)
);
},
{
closed = 1;
nodes = (
(179,311,l),
(381,311,l),
(381,387,l),
(179,387,l),
(179,630,l),
(309,630,ls),
(499,630,o),
(584,538,o),
(584,348,cs),
(584,184,o),
(520,70,o),
(309,70,cs),
(179,70,l)
);
}
);
width = 717;
},
{
hints = (
{
horizontal = 1;
place = (-17, 120);
place = (-17, 120);
type = Stem;
},
{
horizontal = 1;
place = (268, 116);
place = (268, 116);
type = Stem;
},
{
horizontal = 1;
place = (548, 118);
place = (548, 118);
type = Stem;
},
{
place = (55, 141);
place = (55, 141);
type = Stem;
},
{
place = (507, 144);
place = (507, 144);
type = Stem;
}
);
layerId = "E93BD6B3-FA9D-4EFB-B4A0-6094DEE674CC";
shapes = (
{
closed = 1;
nodes = (
(310,0,ls),
(532,0,o),
(668,120,o),
(668,351,cs),
(668,552,o),
(562,700,o),
(310,700,cs),
(55,700,l),
(55,417,l),
(-12,417,l),
(-12,284,l),
(55,284,l),
(55,0,l)
);
},
{
closed = 1;
nodes = (
(212,284,l),
(373,284,l),
(373,417,l),
(212,417,l),
(212,565,l),
(301,565,ls),
(439,565,o),
(507,503,o),
(507,351,cs),
(507,214,o),
(457,137,o),
(301,137,cs),
(212,137,l)
);
}
);
width = 695;
}
);
note = Dcroat;
unicode = 272;
},
{
glyphname = E;
lastChange = "2022-12-23 00:27:27 +0000";
layers = (
{
anchors = (
{
name = bottom;
pos = (281,0);
},
{
name = ogonek;
pos = (513,0);
},
{
name = top;
pos = (281,700);
},
{
name = topleft;
pos = (20,700);
}
);
hints = (
{
horizontal = 1;
place = (-4, 99);
place = (-4, 99);
type = Stem;
},
{
horizontal = 1;
place = (301, 96);
place = (301, 96);
type = Stem;
},
{
horizontal = 1;
place = (593, 99);
place = (593, 99);
type = Stem;
},
{
place = (64, 124);
place = (64, 124);
type = Stem;
}
);
layerId = m01;
shapes = (
{
closed = 1;
nodes = (
(513,0,l),
(513,109,l),
(192,109,l),
(192,315,l),
(467,315,l),
(467,424,l),
(192,424,l),
(192,591,l),
(513,591,l),
(513,700,l),
(64,700,l),
(64,0,l)
);
}
);
width = 562;
},
{
anchors = (
{
name = bottom;
pos = (282,0);
},
{
name = ogonek;
pos = (507,0);
},
{
name = top;
pos = (282,700);
},
{
name = topleft;
pos = (20,700);
}
);
hints = (
{
horizontal = 1;
place = (0, 69);
place = (0, 69);
type = Stem;
},
{
horizontal = 1;
place = (319, 68);
place = (319, 68);
type = Stem;
},
{
horizontal = 1;
place = (631, 69);
place = (631, 69);
type = Stem;
},
{
place = (74, 84);
place = (74, 84);
type = Stem;
}
);
layerId = "E8FC3098-FD3B-4CCD-A487-BB9306939620";
shapes = (
{
closed = 1;
nodes = (
(507,0,l),
(507,69,l),
(158,69,l),
(158,336,l),
(463,336,l),
(463,404,l),
(158,404,l),
(158,631,l),
(507,631,l),
(507,700,l),
(74,700,l),
(74,0,l)
);
}
);
width = 564;
},
{
anchors = (
{
name = bottom;
pos = (271,0);
},
{
name = ogonek;
pos = (507,0);
},
{
name = top;
pos = (271,700);
},
{
name = topleft;
pos = (20,700);
}
);
hints = (
{
horizontal = 1;
place = (-17, 109);
place = (-17, 109);
type = Stem;
},
{
horizontal = 1;
place = (279, 105);
place = (279, 105);
type = Stem;
},
{
horizontal = 1;
place = (558, 109);
place = (558, 109);
type = Stem;
},
{
place = (47, 141);
place = (47, 141);
type = Stem;
}
);
layerId = "E93BD6B3-FA9D-4EFB-B4A0-6094DEE674CC";
shapes = (
{
closed = 1;
nodes = (
(507,0,l),
(507,136,l),
(205,136,l),
(205,301,l),
(460,301,l),
(460,437,l),
(205,437,l),
(205,564,l),
(507,564,l),
(507,700,l),
(47,700,l),
(47,0,l)
);
}
);
width = 541;
}
);
note = E;
unicode = 69;
},
{
glyphname = Schwa;
kernRight = D;
lastChange = "2022-12-23 00:27:27 +0000";
layers = (
{
hints = (
{
horizontal = 1;
place = (-16, 113);
place = (-16, 113);
type = Stem;
},
{
horizontal = 1;
place = (288, 90);
place = (288, 90);
type = Stem;
},
{
horizontal = 1;
place = (592, 112);
place = (592, 112);
type = Stem;
},
{
place = (41, 128);
place = (41, 128);
type = Stem;
},
{
place = (582, 131);
place = (582, 131);
type = Stem;
}
);
layerId = m01;
shapes = (
{
closed = 1;
nodes = (
(444,-12,o),
(504,3,o),
(555,33,cs),
(657,93,o),
(717,204,o),
(717,348,cs),
(717,421,o),
(703,485,o),
(674,540,cs),
(617,648,o),
(512,712,o),
(376,712,cs),
(321,712,o),
(272,702,o),
(227,682,cs),
(138,642,o),
(76,567,o),
(49,474,c),
(190,474,l),
(215,550,o),
(289,596,o),
(378,596,cs),
(415,596,o),
(449,588,o),
(479,571,cs),
(539,538,o),
(578,474,o),
(582,386,c),
(45,386,l),
(42,366,o),
(41,345,o),
(41,326,cs),
(41,255,o),
(55,194,o),
(84,144,cs),
(140,43,o),
(243,-12,o),
(376,-12,cs)
);
},
{
closed = 1;
nodes = (
(335,105,o),
(300,113,o),
(270,129,cs),
(210,160,o),
(174,217,o),
(173,292,c),
(582,292,l),
(579,252,o),
(568,218,o),
(549,191,cs),
(511,135,o),
(447,105,o),
(374,105,cs)
);
}
);
width = 758;
},
{
hints = (
{
horizontal = 1;
place = (-12, 76);
place = (-12, 76);
type = Stem;
},
{
horizontal = 1;
place = (303, 72);
place = (303, 72);
type = Stem;
},
{
horizontal = 1;
place = (636, 76);
place = (636, 76);
type = Stem;
},
{
place = (47, 88);
place = (47, 88);
type = Stem;
},
{
place = (618, 90);
place = (618, 90);
type = Stem;
}
);
layerId = "E8FC3098-FD3B-4CCD-A487-BB9306939620";
shapes = (
{
closed = 1;
nodes = (
(439,-12,o),
(498,3,o),
(549,33,cs),
(649,93,o),
(708,203,o),
(708,346,cs),
(708,419,o),
(694,483,o),
(666,538,cs),
(610,647,o),
(507,712,o),
(375,712,cs),
(322,712,o),
(273,702,o),
(230,683,cs),
(142,644,o),
(80,572,o),
(52,479,c),
(147,479,l),
(178,578,o),
(267,636,o),
(375,636,cs),
(420,636,o),
(461,626,o),
(497,605,cs),
(569,563,o),
(614,484,o),
(618,375,c),
(50,375,l),
(48,354,o),
(47,334,o),
(47,316,cs),
(47,247,o),
(61,188,o),
(89,139,cs),
(144,42,o),
(245,-12,o),
(372,-12,cs)
);
},
{
closed = 1;
nodes = (
(324,64,o),
(282,74,o),
(246,94,cs),
(174,133,o),
(134,207,o),
(135,303,c),
(618,303,l),
(615,252,o),
(603,209,o),
(581,174,cs),
(537,102,o),
(461,64,o),
(372,64,cs)
);
}
);
width = 755;
},
{
hints = (
{
horizontal = 1;
place = (-29, 128);
place = (-29, 128);
type = Stem;
},
{
horizontal = 1;
place = (268, 92);
place = (268, 92);
type = Stem;
},
{
horizontal = 1;
place = (553, 126);
place = (553, 126);
type = Stem;
},
{
place = (27, 145);
place = (27, 145);
type = Stem;
},
{
place = (548, 148);
place = (548, 148);
type = Stem;
}
);
layerId = "E93BD6B3-FA9D-4EFB-B4A0-6094DEE674CC";
shapes = (
{
closed = 1;
nodes = (
(437,-12,o),
(498,3,o),
(549,33,cs),
(652,93,o),
(713,205,o),
(713,349,cs),
(713,422,o),
(699,486,o),
(669,541,cs),
(612,649,o),
(505,712,o),
(367,712,cs),
(310,712,o),
(261,702,o),
(215,681,cs),
(125,641,o),
(63,564,o),
(37,471,c),
(209,471,l),
(230,531,o),
(294,569,o),
(370,569,cs),
(402,569,o),
(431,563,o),
(457,548,cs),
(509,521,o),
(544,467,o),
(548,393,c),
(32,393,l),
(28,374,o),
(27,352,o),
(27,333,cs),
(27,260,o),
(41,198,o),
(71,147,cs),
(127,44,o),
(232,-12,o),
(369,-12,cs)
);
},
{
closed = 1;
nodes = (
(332,132,o),
(302,139,o),
(276,152,cs),
(224,178,o),
(191,224,o),
(188,285,c),
(548,285,l),
(545,252,o),
(535,224,o),
(518,202,cs),
(484,157,o),
(428,132,o),
(365,132,cs)
);
}
);
width = 740;
}
);
note = uni018F;
unicode = 399;
},
{
glyphname = F;
lastChange = "2022-12-23 00:27:27 +0000";
layers = (
{
hints = (
{
horizontal = 1;
place = (296, 97);
place = (296, 97);
type = Stem;
},
{
horizontal = 1;
place = (593, 99);
place = (593, 99);
type = Stem;
},
{
place = (64, 124);
place = (64, 124);
type = Stem;
}
);
layerId = m01;
shapes = (
{
closed = 1;
nodes = (
(192,0,l),
(192,307,l),
(466,307,l),
(466,416,l),
(192,416,l),
(192,591,l),
(505,591,l),
(505,700,l),
(64,700,l),
(64,0,l)
);
}
);
width = 532;
},
{
hints = (
{
horizontal = 1;
place = (317, 68);
place = (317, 68);
type = Stem;
},
{
horizontal = 1;
place = (631, 69);
place = (631, 69);
type = Stem;
},
{
place = (74, 84);
place = (74, 84);
type = Stem;
}
);
layerId = "E8FC3098-FD3B-4CCD-A487-BB9306939620";
shapes = (
{
closed = 1;
nodes = (
(158,0,l),
(158,327,l),
(449,327,l),
(449,395,l),
(158,395,l),
(158,631,l),
(500,631,l),
(500,700,l),
(74,700,l),
(74,0,l)
);
}
);
width = 534;
},
{
hints = (
{
horizontal = 1;
place = (272, 106);
place = (272, 106);
type = Stem;
},
{
horizontal = 1;
place = (558, 109);
place = (558, 109);
type = Stem;
},
{
place = (47, 141);
place = (47, 141);
type = Stem;
}
);
layerId = "E93BD6B3-FA9D-4EFB-B4A0-6094DEE674CC";
shapes = (
{
closed = 1;
nodes = (
(205,0,l),
(205,294,l),
(467,294,l),
(467,430,l),
(205,430,l),
(205,564,l),
(498,564,l),
(498,700,l),
(47,700,l),
(47,0,l)
);
}
);
width = 518;
}
);
note = F;
unicode = 70;
},
{
glyphname = G;
kernLeft = C;
kernRight = G;
lastChange = "2022-12-23 00:27:27 +0000";
layers = (
{
anchors = (
{
name = bottom;
pos = (383,0);
},
{
name = top;
pos = (383,700);
}
);
hints = (
{
horizontal = 1;
place = (-16, 110);
place = (-16, 110);
type = Stem;
},
{
horizontal = 1;
place = (285, 92);
place = (285, 92);
type = Stem;
},
{
horizontal = 1;
place = (590, 114);
place = (590, 114);
type = Stem;
},
{
place = (41, 127);
place = (41, 127);
type = Stem;
},
{
place = (590, 119);
place = (590, 119);
type = Stem;
},
{
horizontal = 1;
place = (-4, 98);
place = (-4, 98);
type = Stem;
}
);
layerId = m01;
shapes = (
{
closed = 1;
nodes = (
(475,-12,o),
(540,25,o),
(585,92,c),
(595,0,l),
(713,0,l),
(713,378,l),
(358,378,l),
(358,270,l),
(581,270,l),
(563,168,o),
(502,102,o),
(382,102,cs),
(253,102,o),
(172,190,o),
(172,345,cs),
(172,500,o),
(251,594,o),
(391,594,cs),
(479,594,o),
(536,555,o),
(557,490,c),
(700,490,l),
(668,629,o),
(555,712,o),
(391,712,cs),
(164,712,o),
(41,552,o),
(41,346,cs),
(41,133,o),
(171,-12,o),
(370,-12,cs)
);
}
);
width = 765;
},
{
anchors = (
{
name = bottom;
pos = (379,0);
},
{
name = top;
pos = (379,700);
}
);
hints = (
{
horizontal = 1;
place = (-12, 75);
place = (-12, 75);
type = Stem;
},
{
horizontal = 1;
place = (308, 66);
place = (308, 66);
type = Stem;
},
{
horizontal = 1;
place = (635, 77);
place = (635, 77);
type = Stem;
},
{
place = (47, 86);
place = (47, 86);
type = Stem;
},
{
place = (612, 86);
place = (612, 86);
type = Stem;
},
{
place = (617.5, 80.5);
place = (617.5, 80.5);
type = Stem;
}
);
layerId = "E8FC3098-FD3B-4CCD-A487-BB9306939620";
shapes = (
{
closed = 1;
nodes = (
(496,-12,o),
(563,34,o),
(614,115,c),
(621,0,l),
(698,0,l),
(698,374,l),
(360,374,l),
(360,308,l),
(612,308,l),
(601,156,o),
(527,63,o),
(378,63,cs),
(223,63,o),
(133,184,o),
(133,349,cs),
(133,510,o),
(220,635,o),
(387,635,cs),
(496,635,o),
(569,582,o),
(588,498,c),
(685,498,l),
(654,631,o),
(544,712,o),
(387,712,cs),
(171,712,o),
(47,556,o),
(47,349,cs),
(47,138,o),
(175,-12,o),
(375,-12,cs)
);
}
);
width = 757;
},
{
anchors = (
{
name = bottom;
pos = (375,0);
},
{
name = top;
pos = (375,700);
}
);
hints = (
{
horizontal = 1;
place = (-448, 120);
place = (-448, 120);
type = Stem;
},
{
horizontal = 1;
place = (260, 99);
place = (260, 99);
type = Stem;
},
{
horizontal = 1;
place = (550, 129);
place = (550, 129);
type = Stem;
},
{
place = (27, 144);
place = (27, 144);
type = Stem;
},
{
place = (565, 131);
place = (565, 131);
type = Stem;
},
{
horizontal = 1;
place = (-9, 103);
place = (-9, 103);
type = Stem;
}
);
layerId = "E93BD6B3-FA9D-4EFB-B4A0-6094DEE674CC";
shapes = (
{
closed = 1;
nodes = (
(451,-12,o),
(515,19,o),
(556,77,c),
(568,0,l),
(713,0,l),
(713,381,l),
(347,381,l),
(347,245,l),
(550,245,l),
(528,176,o),
(475,128,o),
(375,128,cs),
(270,128,o),
(188,201,o),
(188,342,cs),
(188,486,o),
(270,567,o),
(384,567,cs),
(458,567,o),
(504,537,o),
(526,485,c),
(700,485,l),
(667,628,o),
(552,712,o),
(384,712,cs),
(149,712,o),
(27,549,o),
(27,344,cs),
(27,130,o),
(158,-12,o),
(357,-12,cs)
);
}
);
width = 750;
}
);
note = G;
unicode = 71;
},
{
glyphname = H;
lastChange = "2022-12-23 00:27:27 +0000";
layers = (
{
hints = (
{
horizontal = 1;
place = (301, 100);
place = (301, 100);
type = Stem;
},
{
place = (64, 124);
place = (64, 124);
type = Stem;
},
{
place = (506, 124);
place = (506, 124);
type = Stem;
}
);
layerId = m01;
shapes = (
{
closed = 1;
nodes = (
(192,0,l),
(192,316,l),
(506,316,l),
(506,0,l),
(634,0,l),
(634,700,l),
(506,700,l),
(506,425,l),
(192,425,l),
(192,700,l),
(64,700,l),
(64,0,l)
);
}
);
width = 698;
},
{
hints = (
{
horizontal = 1;
place = (322, 69);
place = (322, 69);
type = Stem;
},
{
place = (74, 84);
place = (74, 84);
type = Stem;
},
{
place = (521, 84);
place = (521, 84);
type = Stem;
}
);
layerId = "E8FC3098-FD3B-4CCD-A487-BB9306939620";
shapes = (
{
closed = 1;
nodes = (
(158,0,l),
(158,336,l),
(521,336,l),
(521,0,l),
(605,0,l),
(605,700,l),
(521,700,l),
(521,405,l),
(158,405,l),
(158,700,l),
(74,700,l),
(74,0,l)
);
}
);
width = 679;
},
{
hints = (
{
horizontal = 1;
place = (277, 111);
place = (277, 111);
type = Stem;
},
{
place = (47, 141);
place = (47, 141);
type = Stem;
},
{
place = (486, 141);
place = (486, 141);
type = Stem;
}
);
layerId = "E93BD6B3-FA9D-4EFB-B4A0-6094DEE674CC";
shapes = (
{
closed = 1;
nodes = (
(205,0,l),
(205,302,l),
(486,302,l),
(486,0,l),
(643,0,l),
(643,700,l),
(486,700,l),
(486,438,l),
(205,438,l),
(205,700,l),
(47,700,l),
(47,0,l)
);
}
);
width = 690;
}
);
note = H;
unicode = 72;
},
{
glyphname = Hbar;
lastChange = "2022-12-23 00:27:27 +0000";
layers = (
{
layerId = "E8FC3098-FD3B-4CCD-A487-BB9306939620";
shapes = (
{
closed = 1;
nodes = (
(158,0,l),
(158,336,l),
(521,336,l),
(521,0,l),
(605,0,l),
(605,513,l),
(655,513,l),
(655,582,l),
(605,582,l),
(605,700,l),
(521,700,l),
(521,582,l),
(158,582,l),
(158,700,l),
(74,700,l),
(74,582,l),
(24,582,l),
(24,513,l),
(74,513,l),
(74,0,l)
);
},
{
closed = 1;
nodes = (
(158,513,l),
(521,513,l),
(521,405,l),
(158,405,l)
);
}
);
width = 679;
},
{
layerId = m01;
shapes = (
{
closed = 1;
nodes = (
(193,0,l),
(193,316,l),
(507,316,l),
(507,0,l),
(635,0,l),
(635,493,l),
(675,493,l),
(675,602,l),
(635,602,l),
(635,700,l),
(507,700,l),
(507,602,l),
(193,602,l),
(193,700,l),
(65,700,l),
(65,602,l),
(24,602,l),
(24,493,l),
(65,493,l),
(65,0,l)
);
},
{
closed = 1;
nodes = (
(193,493,l),
(507,493,l),
(507,425,l),
(193,425,l)
);
}
);
width = 699;
},
{
layerId = "E93BD6B3-FA9D-4EFB-B4A0-6094DEE674CC";
shapes = (
{
closed = 1;
nodes = (
(206,0,l),
(206,302,l),
(487,302,l),
(487,0,l),
(644,0,l),
(644,479,l),
(681,479,l),
(681,616,l),
(644,616,l),
(644,700,l),
(487,700,l),
(487,616,l),
(206,616,l),
(206,700,l),
(48,700,l),
(48,616,l),
(10,616,l),
(10,479,l),
(48,479,l),
(48,0,l)
);
},
{
closed = 1;
nodes = (
(206,479,l),
(487,479,l),
(487,438,l),
(206,438,l)
);
}
);
width = 691;
}
);
unicode = 294;
},
{
glyphname = I;
lastChange = "2022-12-23 00:27:27 +0000";
layers = (
{
anchors = (
{
name = bottom;
pos = (128,0);
},
{
name = ogonek;
pos = (192,0);
},
{
name = top;
pos = (128,700);
},
{
name = topleft;
pos = (20,700);
}
);
hints = (
{
horizontal = 1;
place = (-4, 696);
place = (-4, 696);
type = Stem;
},
{
place = (64, 124);
place = (64, 124);
type = Stem;
}
);
layerId = m01;
shapes = (
{
closed = 1;
nodes = (
(192,0,l),
(192,700,l),
(64,700,l),
(64,0,l)
);
}
);
width = 256;
},
{
anchors = (
{
name = bottom;
pos = (116,0);
},
{
name = ogonek;
pos = (158,0);
},
{
name = top;
pos = (116,700);
},
{
name = topleft;
pos = (20,700);
}
);
hints = (
{
horizontal = 1;
place = (0, 700);
place = (0, 700);
type = Stem;
},
{
place = (74, 84);
place = (74, 84);
type = Stem;
}
);
layerId = "E8FC3098-FD3B-4CCD-A487-BB9306939620";
shapes = (
{
closed = 1;
nodes = (
(158,0,l),
(158,700,l),
(74,700,l),
(74,0,l)
);
}
);
width = 232;
},
{
anchors = (
{
name = bottom;
pos = (127,0);
},
{
name = ogonek;
pos = (206,0);
},
{
name = top;
pos = (127,700);
},
{
name = topleft;
pos = (20,700);
}
);
hints = (
{
horizontal = 1;
place = (-17, 683);
place = (-17, 683);
type = Stem;
},
{
place = (47, 141);
place = (47, 141);
type = Stem;
}
);
layerId = "E93BD6B3-FA9D-4EFB-B4A0-6094DEE674CC";
shapes = (
{
closed = 1;
nodes = (
(206,0,l),
(206,700,l),
(48,700,l),
(48,0,l)
);
}
);
width = 254;
}
);
note = I;
unicode = 73;
},
{
glyphname = J;
lastChange = "2022-12-23 00:27:27 +0000";
layers = (
{
anchors = (
{
name = bottom;
pos = (262,0);
},
{
name = top;
pos = (397,700);
}
);
hints = (
{
horizontal = 1;
place = (-16, 110);
place = (-16, 110);
type = Stem;
},
{
place = (22, 124);
place = (22, 124);
type = Stem;
},
{
place = (332, 124);
place = (332, 124);
type = Stem;
}
);
layerId = m01;
shapes = (
{
closed = 1;
nodes = (
(378,-12,o),
(460,65,o),
(460,202,cs),
(460,700,l),
(332,700,l),
(332,202,ls),
(332,142,o),
(305,102,o),
(244,102,cs),
(179,102,o),
(151,144,o),
(150,209,c),
(22,209,l),
(22,68,o),
(111,-12,o),
(247,-12,cs)
);
}
);
width = 524;
},
{
anchors = (
{
name = bottom;
pos = (250,0);
},
{
name = top;
pos = (384,700);
}
);
hints = (
{
horizontal = 1;
place = (-12, 75);
place = (-12, 75);
type = Stem;
},
{
place = (27, 85);
place = (27, 85);
type = Stem;
},
{
place = (341, 84);
place = (341, 84);
type = Stem;
}
);
layerId = "E8FC3098-FD3B-4CCD-A487-BB9306939620";
shapes = (
{
closed = 1;
nodes = (
(353,-12,o),
(425,61,o),
(425,185,cs),
(425,700,l),
(341,700,l),
(341,185,ls),
(341,116,o),
(313,63,o),
(229,63,cs),
(142,63,o),
(112,117,o),
(112,188,c),
(27,188,l),
(27,63,o),
(103,-12,o),
(230,-12,cs)
);
}
);
width = 499;
},
{
anchors = (
{
name = bottom;
pos = (261,0);
},
{
name = top;
pos = (397,700);
}
);
hints = (
{
horizontal = 1;
place = (-29, 123);
place = (-29, 123);
type = Stem;
},
{
place = (9, 140);
place = (9, 140);
type = Stem;
},
{
place = (316, 141);
place = (316, 141);
type = Stem;
}
);
layerId = "E93BD6B3-FA9D-4EFB-B4A0-6094DEE674CC";
shapes = (
{
closed = 1;
nodes = (
(385,-12,o),
(473,68,o),
(473,213,cs),
(473,700,l),
(316,700,l),
(316,213,ls),
(316,159,o),
(290,128,o),
(244,128,cs),
(194,128,o),
(167,162,o),
(165,223,c),
(9,223,l),
(9,71,o),
(106,-12,o),
(248,-12,cs)
);
}
);
width = 521;
}
);
note = J;
unicode = 74;
},
{
glyphname = K;
kernRight = K;
lastChange = "2022-12-23 00:27:27 +0000";
layers = (
{
anchors = (
{
name = bottom;
pos = (316,0);
},
{
name = top;
pos = (316,700);
}
);
hints = (
{
horizontal = 1;
place = (-4, 696);
place = (-4, 696);
type = Stem;
},
{
place = (64, 124);
place = (64, 124);
type = Stem;
}
);
layerId = m01;
shapes = (
{
closed = 1;
nodes = (
(439,700,l),
(192,431,l),
(192,700,l),
(64,700,l),
(64,0,l),
(192,0,l),
(192,261,l),
(261,338,l),
(465,0,l),
(616,0,l),
(347,431,l),
(595,700,l)
);
}
);
width = 632;
},
{
anchors = (
{
name = bottom;
pos = (291,0);
},
{
name = top;
pos = (291,700);
}
);
hints = (
{
horizontal = 1;
place = (0, 700);
place = (0, 700);
type = Stem;
},
{
place = (74, 84);
place = (74, 84);
type = Stem;
}
);
layerId = "E8FC3098-FD3B-4CCD-A487-BB9306939620";
shapes = (
{
closed = 1;
nodes = (
(436,700,l),
(158,398,l),
(158,700,l),
(74,700,l),
(74,0,l),
(158,0,l),
(158,288,l),
(236,371,l),
(467,0,l),
(569,0,l),
(296,436,l),
(542,700,l)
);
}
);
width = 582;
},
{
anchors = (
{
name = bottom;
pos = (323,0);
},
{
name = top;
pos = (323,700);
}
);
hints = (
{
horizontal = 1;
place = (-17, 683);
place = (-17, 683);
type = Stem;
},
{
place = (47, 141);
place = (47, 141);
type = Stem;
}
);
layerId = "E93BD6B3-FA9D-4EFB-B4A0-6094DEE674CC";
shapes = (
{
closed = 1;
nodes = (
(421,700,l),
(205,463,l),
(205,700,l),
(47,700,l),
(47,0,l),
(205,0,l),
(205,256,l),
(266,323,l),
(460,0,l),
(643,0,l),
(370,434,l),
(615,700,l)
);
}
);
width = 645;
}
);
note = K;
unicode = 75;
},
{
glyphname = L;
kernRight = L;
lastChange = "2022-12-23 00:43:16 +0000";
layers = (
{
anchors = (
{
name = bottom;
pos = (268,0);
},
{
name = center;
pos = (268,350);
},
{
name = top;
pos = (175,700);
},
{
name = topright;
pos = (281,700);
}
);
hints = (
{
horizontal = 1;
place = (-4, 96);
place = (-4, 96);
type = Stem;
},
{
place = (64, 124);
place = (64, 124);
type = Stem;
}
);
layerId = m01;
shapes = (
{
closed = 1;
nodes = (
(494,0,l),
(494,109,l),
(192,109,l),
(192,700,l),
(64,700,l),
(64,0,l)
);
}
);
width = 535;
},
{
anchors = (
{
name = bottom;
pos = (263,0);
},
{
name = center;
pos = (263,350);
},
{
name = top;
pos = (178,700);
},
{
name = topright;
pos = (261,700);
}
);
hints = (
{
horizontal = 1;
place = (0, 67);
place = (0, 67);
type = Stem;
},
{
place = (74, 84);
place = (74, 84);
type = Stem;
}
);
layerId = "E8FC3098-FD3B-4CCD-A487-BB9306939620";
shapes = (
{
closed = 1;
nodes = (
(484,0,l),
(484,67,l),
(158,67,l),
(158,700,l),
(74,700,l),
(74,0,l)
);
}
);
width = 525;
},
{
anchors = (
{
name = bottom;
pos = (261,0);
},
{
name = center;
pos = (261,350);
},
{
name = top;
pos = (164,700);
},
{
name = topright;
pos = (273,700);
}
);
hints = (
{
horizontal = 1;
place = (-17, 105);
place = (-17, 105);
type = Stem;
},
{
place = (47, 141);
place = (47, 141);
type = Stem;
}
);
layerId = "E93BD6B3-FA9D-4EFB-B4A0-6094DEE674CC";
shapes = (
{
closed = 1;
nodes = (
(491,0,l),
(491,137,l),
(205,137,l),
(205,700,l),
(47,700,l),
(47,0,l)
);
}
);
width = 522;
}
);
note = L;
unicode = 76;
},
{
glyphname = Ldot;
kernRight = L;
lastChange = "2022-12-23 00:48:49 +0000";
layers = (
{
hints = (
{
horizontal = 1;
place = (-4, 96);
place = (-4, 96);
type = Stem;
},
{
place = (64, 124);
place = (64, 124);
type = Stem;
}
);
layerId = m01;
shapes = (
{
closed = 1;
nodes = (
(494,0,l),
(494,109,l),
(192,109,l),
(192,700,l),
(64,700,l),
(64,0,l)
);
},
{
closed = 1;
nodes = (
(415,267,o),
(452,304,o),
(452,350,cs),
(452,396,o),
(415,433,o),
(369,433,cs),
(322,433,o),
(286,396,o),
(286,350,cs),
(286,304,o),
(322,267,o),
(369,267,cs)
);
}
);
width = 535;
},
{
hints = (
{
horizontal = 1;
place = (0, 67);
place = (0, 67);
type = Stem;
},
{
horizontal = 1;
place = (293, 114);
place = (293, 114);
type = Stem;
},
{
place = (74, 84);
place = (74, 84);
type = Stem;
},
{
place = (299, 115);
place = (299, 115);
type = Stem;
}
);
layerId = "E8FC3098-FD3B-4CCD-A487-BB9306939620";
shapes = (
{
closed = 1;
nodes = (
(484,0,l),
(484,67,l),
(158,67,l),
(158,700,l),
(74,700,l),
(74,0,l)
);
},
{
closed = 1;
nodes = (
(389,293,o),
(414,318,o),
(414,350,cs),
(414,383,o),
(389,407,o),
(357,407,cs),
(324,407,o),
(299,383,o),
(299,350,cs),
(299,318,o),
(324,293,o),
(357,293,cs)
);
}
);
width = 525;
},
{
hints = (
{
horizontal = 1;
place = (-212, 74);
place = (-212, 74);
type = Stem;
},
{
place = (97, 152);
place = (97, 152);
type = Stem;
}
);
layerId = "E93BD6B3-FA9D-4EFB-B4A0-6094DEE674CC";
shapes = (
{
closed = 1;
nodes = (
(491,0,l),
(491,137,l),
(205,137,l),
(205,700,l),
(47,700,l),
(47,0,l)
);
},
{
closed = 1;
nodes = (
(419,255,o),
(462,298,o),
(462,350,cs),
(462,402,o),
(419,445,o),
(367,445,cs),
(314,445,o),
(272,402,o),
(272,350,cs),
(272,298,o),
(314,255,o),
(367,255,cs)
);
}
);
width = 522;
}
);
note = Ldot;
unicode = 319;
},
{
glyphname = Lslash;
kernRight = L;
lastChange = "2022-12-23 00:27:27 +0000";
layers = (
{
hints = (
{
horizontal = 1;
place = (-4, 96);
place = (-4, 96);
type = Stem;
},
{
place = (88, 124);
place = (88, 124);
type = Stem;
}
);
layerId = m01;
shapes = (
{
closed = 1;
nodes = (
(518,0,l),
(518,109,l),
(216,109,l),
(216,335,l),
(319,370,l),
(319,476,l),
(216,441,l),
(216,700,l),
(88,700,l),
(88,399,l),
(16,374,l),
(16,268,l),
(88,293,l),
(88,0,l)
);
}
);
width = 559;
},
{
hints = (
{
horizontal = 1;
place = (0, 67);
place = (0, 67);
type = Stem;
},
{
place = (100, 84);
place = (100, 84);
type = Stem;
}
);
layerId = "E8FC3098-FD3B-4CCD-A487-BB9306939620";
shapes = (
{
closed = 1;
nodes = (
(510,0,l),
(510,67,l),
(184,67,l),
(184,346,l),
(306,392,l),
(306,459,l),
(184,413,l),
(184,700,l),
(100,700,l),
(100,381,l),
(20,351,l),
(20,284,l),
(100,314,l),
(100,0,l)
);
}
);
width = 551;
},
{
hints = (
{
horizontal = 1;
place = (-17, 105);
place = (-17, 105);
type = Stem;
},
{
place = (70, 141);
place = (70, 141);
type = Stem;
}
);
layerId = "E93BD6B3-FA9D-4EFB-B4A0-6094DEE674CC";
shapes = (
{
closed = 1;
nodes = (
(513,0,l),
(513,137,l),
(227,137,l),
(227,328,l),
(318,355,l),
(318,487,l),
(227,460,l),
(227,700,l),
(70,700,l),
(70,411,l),
(3,389,l),
(3,257,l),
(70,279,l),
(70,0,l)
);
}
);
width = 544;
}
);
note = Lslash;
unicode = 321;
},
{
glyphname = M;
lastChange = "2022-12-23 00:27:27 +0000";
layers = (
{
hints = (
{
horizontal = 1;
place = (-4, 696);
place = (-4, 696);
type = Stem;
},
{
place = (64, 124);
place = (64, 124);
type = Stem;
},
{
place = (683, 124);
place = (683, 124);
type = Stem;
}
);
layerId = m01;
shapes = (
{
closed = 1;
nodes = (
(192,0,l),
(192,472,l),
(363,89,l),
(464,89,l),
(635,472,l),
(635,0,l),
(763,0,l),
(763,700,l),
(611,700,l),
(415,248,l),
(216,700,l),
(64,700,l),
(64,0,l)
);
}
);
width = 827;
},
{
hints = (
{
horizontal = 1;
place = (0, 700);
place = (0, 700);
type = Stem;
},
{
place = (74, 84);
place = (74, 84);
type = Stem;
},
{
place = (689, 84);
place = (689, 84);
type = Stem;
}
);
layerId = "E8FC3098-FD3B-4CCD-A487-BB9306939620";
shapes = (
{
closed = 1;
nodes = (
(158,0,l),
(158,547,l),
(382,100,l),
(445,100,l),
(669,548,l),
(669,0,l),
(753,0,l),
(753,700,l),
(654,700,l),
(414,214,l),
(172,700,l),
(74,700,l),
(74,0,l)
);
}
);
width = 827;
},
{
hints = (
{
horizontal = 1;
place = (-17, 683);
place = (-17, 683);
type = Stem;
},
{
place = (47, 141);
place = (47, 141);
type = Stem;
},
{
place = (669, 141);
place = (669, 141);
type = Stem;
}
);
layerId = "E93BD6B3-FA9D-4EFB-B4A0-6094DEE674CC";
shapes = (
{
closed = 1;
nodes = (
(205,0,l),
(205,422,l),
(340,82,l),
(467,82,l),
(602,421,l),
(602,0,l),
(760,0,l),
(760,700,l),
(572,700,l),
(406,271,l),
(235,700,l),
(47,700,l),
(47,0,l)
);
}
);
width = 807;
}
);
note = M;
unicode = 77;
},
{
glyphname = N;
lastChange = "2022-12-23 00:27:27 +0000";
layers = (
{
anchors = (
{
name = bottom;
pos = (357,0);
},
{
name = top;
pos = (357,700);
}
);
hints = (
{
horizontal = 1;
place = (-4, 696);
place = (-4, 696);
type = Stem;
},
{
place = (64, 124);
place = (64, 124);
type = Stem;
},
{
place = (521, 124);
place = (521, 124);
type = Stem;
}
);
layerId = m01;
shapes = (
{
closed = 1;
nodes = (
(192,0,l),
(192,488,l),
(521,0,l),
(649,0,l),
(649,700,l),
(521,700,l),
(521,211,l),
(192,700,l),
(64,700,l),
(64,0,l)
);
}
);
width = 713;
},
{
anchors = (
{
name = bottom;
pos = (345,0);
},
{
name = top;
pos = (345,700);
}
);
hints = (
{
horizontal = 1;
place = (0, 700);
place = (0, 700);
type = Stem;
},
{
place = (74, 84);
place = (74, 84);
type = Stem;
},
{
place = (531, 84);
place = (531, 84);
type = Stem;
}
);
layerId = "E8FC3098-FD3B-4CCD-A487-BB9306939620";
shapes = (
{
closed = 1;
nodes = (
(158,0,l),
(158,561,l),
(531,0,l),
(615,0,l),
(615,700,l),
(531,700,l),
(531,139,l),
(158,700,l),
(74,700,l),
(74,0,l)
);
}
);
width = 689;
},
{
anchors = (
{
name = bottom;
pos = (355,0);
},
{
name = top;
pos = (355,700);
}
);
hints = (
{
horizontal = 1;
place = (-17, 683);
place = (-17, 683);
type = Stem;
},
{
place = (47, 141);
place = (47, 141);
type = Stem;
},
{
place = (504, 141);
place = (504, 141);
type = Stem;
}
);
layerId = "E93BD6B3-FA9D-4EFB-B4A0-6094DEE674CC";
shapes = (
{
closed = 1;
nodes = (
(205,0,l),
(205,439,l),
(504,0,l),
(662,0,l),
(662,700,l),
(504,700,l),
(504,259,l),
(205,700,l),
(47,700,l),
(47,0,l)
);
}
);
width = 709;
}
);
note = N;
unicode = 78;
},
{
glyphname = Eng;
lastChange = "2022-12-23 00:27:27 +0000";
layers = (
{
hints = (
{
horizontal = 1;
place = (-4, 696);
place = (-4, 696);
type = Stem;
},
{
place = (64, 124);
place = (64, 124);
type = Stem;
},
{
place = (521, 124);
place = (521, 124);
type = Stem;
}
);
layerId = m01;
shapes = (
{
closed = 1;
nodes = (
(192,0,l),
(192,488,l),
(521,0,l),
(521,-54,ls),
(521,-96,o),
(502,-111,o),
(460,-111,cs),
(433,-111,l),
(433,-220,l),
(480,-220,ls),
(578,-220,o),
(649,-179,o),
(649,-54,cs),
(649,700,l),
(521,700,l),
(521,211,l),
(192,700,l),
(64,700,l),
(64,0,l)
);
}
);
width = 713;
},
{
hints = (
{
horizontal = 1;
place = (0, 700);
place = (0, 700);
type = Stem;
},
{
place = (74, 84);
place = (74, 84);
type = Stem;
},
{
place = (531, 84);
place = (531, 84);
type = Stem;
}
);
layerId = "E8FC3098-FD3B-4CCD-A487-BB9306939620";
shapes = (
{
closed = 1;
nodes = (
(158,0,l),
(158,561,l),
(531,0,l),
(531,-80,ls),
(531,-129,o),
(510,-148,o),
(461,-148,cs),
(422,-148,l),
(422,-220,l),
(474,-220,ls),
(566,-220,o),
(615,-178,o),
(615,-82,cs),
(615,700,l),
(531,700,l),
(531,139,l),
(158,700,l),
(74,700,l),
(74,0,l)
);
}
);
width = 689;
},
{
hints = (
{
horizontal = 1;
place = (-17, 683);
place = (-17, 683);
type = Stem;
},
{
place = (47, 141);
place = (47, 141);
type = Stem;
},
{
place = (504, 141);
place = (504, 141);
type = Stem;
}
);
layerId = "E93BD6B3-FA9D-4EFB-B4A0-6094DEE674CC";
shapes = (
{
closed = 1;
nodes = (
(205,0,l),
(205,439,l),
(504,0,l),
(504,-47,ls),
(504,-78,o),
(488,-89,o),
(457,-89,cs),
(424,-89,l),
(424,-220,l),
(484,-220,ls),
(600,-220,o),
(662,-165,o),
(662,-45,cs),
(662,700,l),
(504,700,l),
(504,259,l),
(205,700,l),
(47,700,l),
(47,0,l)
);
}
);
width = 709;
}
);
note = N;
unicode = 330;
},
{
glyphname = O;
kernLeft = C;
kernRight = D;
lastChange = "2022-12-23 00:27:27 +0000";
layers = (
{
anchors = (
{
name = bottom;
pos = (399,0);
},
{
name = center;
pos = (399,350);
},
{
name = ogonek;
pos = (483,10);
},
{
name = top;
pos = (399,700);
},
{
name = topleft;
pos = (20,700);
},
{
name = topright;
pos = (777,700);
}
);
hints = (
{
horizontal = 1;
place = (-16, 111);
place = (-16, 111);
type = Stem;
},
{
horizontal = 1;
place = (593, 111);
place = (593, 111);
type = Stem;
},
{
place = (41, 127);
place = (41, 127);
type = Stem;
},
{
place = (611, 127);
place = (611, 127);
type = Stem;
}
);
layerId = m01;
shapes = (
{
closed = 1;
nodes = (
(587,-12,o),
(756,126,o),
(756,350,cs),
(756,574,o),
(587,712,o),
(398,712,cs),
(210,712,o),
(41,574,o),
(41,350,cs),
(41,126,o),
(210,-12,o),
(398,-12,cs)
);
},
{
closed = 1;
nodes = (
(287,104,o),
(173,183,o),
(173,350,cs),
(173,518,o),
(287,597,o),
(398,597,cs),
(510,597,o),
(624,518,o),
(624,350,cs),
(624,183,o),
(510,104,o),
(398,104,cs)
);
}
);
width = 797;
},
{
anchors = (
{
name = bottom;
pos = (392,0);
},
{
name = center;
pos = (392,350);
},
{
name = ogonek;
pos = (464,10);
},
{
name = top;
pos = (392,700);
},
{
name = topleft;
pos = (20,700);
},
{
name = topright;
pos = (764,700);
}
);
hints = (
{
horizontal = 1;
place = (-12, 74);
place = (-12, 74);
type = Stem;
},
{
horizontal = 1;
place = (637, 75);
place = (637, 75);
type = Stem;
},
{
place = (47, 86);
place = (47, 86);
type = Stem;
},
{
place = (651, 86);
place = (651, 86);
type = Stem;
}
);
layerId = "E8FC3098-FD3B-4CCD-A487-BB9306939620";
shapes = (
{
closed = 1;
nodes = (
(605,-12,o),
(737,139,o),
(737,350,cs),
(737,561,o),
(604,712,o),
(392,712,cs),
(177,712,o),
(47,555,o),
(47,350,cs),
(47,144,o),
(178,-12,o),
(392,-12,cs)
);
},
{
closed = 1;
nodes = (
(229,62,o),
(133,183,o),
(133,350,cs),
(133,518,o),
(229,637,o),
(392,637,cs),
(556,637,o),
(651,522,o),
(651,350,cs),
(651,181,o),
(556,62,o),
(392,62,cs)
);
}
);
width = 784;
},
{
anchors = (
{
name = bottom;
pos = (393,0);
},
{
name = center;
pos = (393,350);
},
{
name = ogonek;
pos = (484,10);
},
{
name = top;
pos = (393,700);
},
{
name = topleft;
pos = (20,700);
},
{
name = topright;
pos = (766,700);
}
);
hints = (
{
horizontal = 1;
place = (-29, 126);
place = (-29, 126);
type = Stem;
},
{
horizontal = 1;
place = (554, 125);
place = (554, 125);
type = Stem;
},
{
place = (27, 144);
place = (27, 144);
type = Stem;
},
{
place = (574, 144);
place = (574, 144);
type = Stem;
}
);
layerId = "E93BD6B3-FA9D-4EFB-B4A0-6094DEE674CC";
shapes = (
{
closed = 1;
nodes = (
(585,-12,o),
(759,126,o),
(759,350,c),
(759,574,o),
(585,712,o),
(392,712,c),
(200,712,o),
(27,574,o),
(27,350,c),
(27,126,o),
(200,-12,o),
(392,-12,c)
);
},
{
closed = 1;
nodes = (
(294,131,o),
(190,202,o),
(190,350,c),
(190,499,o),
(296,569,o),
(392,569,c),
(488,569,o),
(596,499,o),
(596,350,c),
(596,202,o),
(490,131,o),
(392,131,c)
);
}
);
width = 786;
}
);
note = O;
unicode = 79;
},
{
glyphname = Oslash;
lastChange = "2022-12-23 00:27:27 +0000";
layers = (
{
hints = (
{
horizontal = 1;
place = (-16, 111);
place = (-16, 111);
type = Stem;
},
{
horizontal = 1;
place = (593, 111);
place = (593, 111);
type = Stem;
},
{
place = (41, 126);
place = (41, 126);
type = Stem;
},
{
place = (611, 126);
place = (611, 126);
type = Stem;
}
);
layerId = m01;
shapes = (
{
closed = 1;
nodes = (
(605,-12,o),
(741,140,o),
(741,350,cs),
(741,449,o),
(712,532,o),
(659,595,c),
(750,700,l),
(628,700,l),
(590,656,l),
(535,692,o),
(467,712,o),
(391,712,cs),
(177,712,o),
(41,560,o),
(41,350,cs),
(41,254,o),
(69,170,o),
(120,109,c),
(27,0,l),
(149,0,l),
(189,46,l),
(244,9,o),
(312,-12,o),
(391,-12,cs)
);
},
{
closed = 1;
nodes = (
(343,103,o),
(302,115,o),
(267,138,c),
(575,497,l),
(599,456,o),
(611,407,o),
(611,350,cs),
(611,197,o),
(524,103,o),
(391,103,cs)
);
},
{
closed = 1;
nodes = (
(182,247,o),
(171,295,o),
(171,350,cs),
(171,503,o),
(258,597,o),
(391,597,cs),
(437,597,o),
(477,586,o),
(511,564,c),
(204,207,l)
);
}
);
width = 776;
},
{
hints = (
{
horizontal = 1;
place = (-12, 74);
place = (-12, 74);
type = Stem;
},
{
horizontal = 1;
place = (637, 75);
place = (637, 75);
type = Stem;
},
{
place = (47, 86);
place = (47, 86);
type = Stem;
},
{
place = (651, 86);
place = (651, 86);
type = Stem;
}
);
layerId = "E8FC3098-FD3B-4CCD-A487-BB9306939620";
shapes = (
{
closed = 1;
nodes = (
(605,-12,o),
(737,139,o),
(737,350,cs),
(737,449,o),
(707,533,o),
(655,596,c),
(747,700,l),
(658,700,l),
(607,643,l),
(551,687,o),
(477,712,o),
(392,712,cs),
(177,712,o),
(47,555,o),
(47,350,cs),
(47,250,o),
(77,165,o),
(130,102,c),
(39,0,l),
(129,0,l),
(179,56,l),
(235,12,o),
(308,-12,o),
(392,-12,cs)
);
},
{
closed = 1;
nodes = (
(328,62,o),
(274,80,o),
(231,115,c),
(601,534,l),
(633,487,o),
(651,425,o),
(651,350,cs),
(651,181,o),
(556,62,o),
(392,62,cs)
);
},
{
closed = 1;
nodes = (
(152,212,o),
(133,274,o),
(133,350,cs),
(133,518,o),
(229,637,o),
(392,637,cs),
(457,637,o),
(511,619,o),
(555,584,c),
(184,164,l)
);
}
);
width = 786;
},
{
hints = (
{
horizontal = 1;
place = (-29, 126);
place = (-29, 126);
type = Stem;
},
{
horizontal = 1;
place = (554, 125);
place = (554, 125);
type = Stem;
},
{
place = (27, 143);
place = (27, 143);
type = Stem;
},
{
place = (574, 143);
place = (574, 143);
type = Stem;
}
);
layerId = "E93BD6B3-FA9D-4EFB-B4A0-6094DEE674CC";
shapes = (
{
closed = 1;
nodes = (
(595,-12,o),
(734,141,o),
(734,350,cs),
(734,449,o),
(705,531,o),
(652,594,c),
(742,700,l),
(598,700,l),
(569,665,l),
(514,695,o),
(450,712,o),
(380,712,cs),
(167,712,o),
(27,563,o),
(27,350,cs),
(27,257,o),
(54,173,o),
(103,114,c),
(9,0,l),
(152,0,l),
(186,39,l),
(240,7,o),
(305,-12,o),
(380,-12,cs)
);
},
{
closed = 1;
nodes = (
(343,130,o),
(311,138,o),
(281,153,c),
(548,472,l),
(566,435,o),
(574,395,o),
(574,350,cs),
(574,208,o),
(493,130,o),
(380,130,cs)
);
},
{
closed = 1;
nodes = (
(192,270,o),
(186,309,o),
(186,350,cs),
(186,493,o),
(267,570,o),
(380,570,cs),
(414,570,o),
(444,564,o),
(472,551,c),
(207,236,l)
);
}
);
width = 749;
}
);
note = Oslash;
unicode = 216;
},
{
glyphname = OE;
kernLeft = C;
lastChange = "2022-12-23 00:27:27 +0000";
layers = (
{
hints = (
{
horizontal = 1;
place = (-4, 99);
place = (-4, 99);
type = Stem;
},
{
horizontal = 1;
place = (301, 96);
place = (301, 96);
type = Stem;
},
{
horizontal = 1;
place = (593, 99);
place = (593, 99);
type = Stem;
},
{
place = (41, 127);
place = (41, 127);
type = Stem;
},
{
place = (619, 124);
place = (619, 124);
type = Stem;
}
);
layerId = m01;
shapes = (
{
closed = 1;
nodes = (
(476,-12,o),
(568,27,o),
(619,96,c),
(619,0,l),
(1046,0,l),
(1046,109,l),
(747,109,l),
(747,315,l),
(1000,315,l),
(1000,424,l),
(747,424,l),
(747,591,l),
(1046,591,l),
(1046,700,l),
(619,700,l),
(619,601,l),
(567,673,o),
(476,712,o),
(385,712,cs),
(286,712,o),
(202,675,o),
(140,611,cs),
(78,547,o),
(41,457,o),
(41,350,cs),
(41,243,o),
(78,153,o),
(140,89,cs),
(202,24,o),
(286,-12,o),
(385,-12,cs)
);
},
{
closed = 1;
nodes = (
(354,103,o),
(316,113,o),
(283,133,cs),
(215,173,o),
(172,249,o),
(172,350,cs),
(172,401,o),
(182,445,o),
(202,482,cs),
(242,556,o),
(312,597,o),
(395,597,cs),
(436,597,o),
(474,587,o),
(508,567,cs),
(575,527,o),
(619,451,o),
(619,350,cs),
(619,299,o),
(609,256,o),
(589,219,cs),
(548,145,o),
(478,103,o),
(395,103,cs)
);
}
);
width = 1095;
},
{
hints = (
{
horizontal = 1;
place = (-12, 74);
place = (-12, 74);
type = Stem;
},
{
horizontal = 1;
place = (319, 68);
place = (319, 68);
type = Stem;
},
{
horizontal = 1;
place = (631, 69);
place = (631, 69);
type = Stem;
},
{
place = (47, 86);
place = (47, 86);
type = Stem;
},
{
place = (659, 84);
place = (659, 84);
type = Stem;
},
{
horizontal = 1;
place = (0, 69);
place = (0, 69);
type = Stem;
},
{
horizontal = 1;
place = (637, 75);
place = (637, 75);
type = Stem;
},
{
place = (657, 86);
place = (657, 86);
type = Stem;
}
);
layerId = "E8FC3098-FD3B-4CCD-A487-BB9306939620";
shapes = (
{
closed = 1;
nodes = (
(502,-12,o),
(599,36,o),
(659,124,c),
(659,0,l),
(1061,0,l),
(1061,69,l),
(743,69,l),
(743,336,l),
(1021,336,l),
(1021,404,l),
(743,404,l),
(743,631,l),
(1061,631,l),
(1061,700,l),
(659,700,l),
(659,575,l),
(599,664,o),
(502,712,o),
(393,712,cs),
(294,712,o),
(209,675,o),
(147,611,cs),
(85,547,o),
(47,457,o),
(47,350,cs),
(47,242,o),
(85,153,o),
(147,89,cs),
(209,24,o),
(294,-12,o),
(393,-12,cs)
);
},
{
closed = 1;
nodes = (
(347,62,o),
(303,74,o),
(264,97,cs),
(184,143,o),
(133,230,o),
(133,350,cs),
(133,410,o),
(145,461,o),
(169,504,cs),
(216,589,o),
(299,637,o),
(395,637,cs),
(443,637,o),
(487,626,o),
(527,603,cs),
(606,557,o),
(657,470,o),
(657,350,cs),
(657,290,o),
(645,239,o),
(622,196,cs),
(574,110,o),
(491,62,o),
(395,62,cs)
);
}
);
width = 1118;
},
{
hints = (
{
horizontal = 1;
place = (-229, 110);
place = (-229, 110);
type = Stem;
},
{
horizontal = 1;
place = (71, 104);
place = (71, 104);
type = Stem;
},
{
horizontal = 1;
place = (554, 105);
place = (554, 105);
type = Stem;
},
{
place = (66, 152);
place = (66, 152);
type = Stem;
},
{
place = (1022, 151);
place = (1022, 151);
type = Stem;
}
);
layerId = "E93BD6B3-FA9D-4EFB-B4A0-6094DEE674CC";
shapes = (
{
closed = 1;
nodes = (
(449,-12,o),
(537,21,o),
(582,77,c),
(582,0,l),
(1026,0,l),
(1026,136,l),
(740,136,l),
(740,300,l),
(979,300,l),
(979,437,l),
(740,437,l),
(740,564,l),
(1026,564,l),
(1026,700,l),
(582,700,l),
(582,618,l),
(536,679,o),
(449,712,o),
(370,712,cs),
(271,712,o),
(187,675,o),
(125,611,cs),
(63,547,o),
(27,457,o),
(27,350,cs),
(27,244,o),
(63,153,o),
(125,89,cs),
(187,24,o),
(271,-12,o),
(370,-12,cs)
);
},
{
closed = 1;
nodes = (
(349,130,o),
(315,139,o),
(286,157,cs),
(226,193,o),
(188,262,o),
(188,350,cs),
(188,395,o),
(197,434,o),
(214,467,cs),
(249,534,o),
(311,570,o),
(385,570,cs),
(421,570,o),
(455,561,o),
(485,543,cs),
(544,507,o),
(584,438,o),
(584,350,cs),
(584,305,o),
(575,267,o),
(557,234,cs),
(521,168,o),
(459,130,o),
(385,130,cs)
);
}
);
width = 1060;
}
);
note = OE;
unicode = 338;
},
{
glyphname = P;
lastChange = "2022-12-23 00:27:27 +0000";
layers = (
{
hints = (
{
horizontal = 1;
place = (267, 100);
place = (267, 100);
type = Stem;
},
{
horizontal = 1;
place = (592, 100);
place = (592, 100);
type = Stem;
},
{
place = (64, 124);
place = (64, 124);
type = Stem;
},
{
place = (441, 126);
place = (441, 126);
type = Stem;
}
);
layerId = m01;
shapes = (
{
closed = 1;
nodes = (
(192,0,l),
(192,279,l),
(323,279,ls),
(468,279,o),
(571,355,o),
(571,490,cs),
(571,624,o),
(468,700,o),
(323,700,cs),
(64,700,l),
(64,0,l)
);
},
{
closed = 1;
nodes = (
(192,591,l),
(320,591,ls),
(409,591,o),
(441,549,o),
(441,490,cs),
(441,430,o),
(409,388,o),
(320,388,cs),
(192,388,l)
);
}
);
width = 599;
},
{
hints = (
{
horizontal = 1;
place = (292, 71);
place = (292, 71);
type = Stem;
},
{
horizontal = 1;
place = (630, 70);
place = (630, 70);
type = Stem;
},
{
place = (74, 84);
place = (74, 84);
type = Stem;
},
{
place = (457, 86);
place = (457, 86);
type = Stem;
}
);
layerId = "E8FC3098-FD3B-4CCD-A487-BB9306939620";
shapes = (
{
closed = 1;
nodes = (
(158,0,l),
(158,304,l),
(305,304,ls),
(444,304,o),
(543,365,o),
(543,502,cs),
(543,633,o),
(452,700,o),
(305,700,cs),
(74,700,l),
(74,0,l)
);
},
{
closed = 1;
nodes = (
(158,630,l),
(303,630,ls),
(415,630,o),
(457,586,o),
(457,502,cs),
(457,419,o),
(415,375,o),
(303,375,cs),
(158,375,l)
);
}
);
width = 579;
},
{
hints = (
{
horizontal = 1;
place = (240, 109);
place = (240, 109);
type = Stem;
},
{
horizontal = 1;
place = (557, 110);
place = (557, 110);
type = Stem;
},
{
place = (47, 141);
place = (47, 141);
type = Stem;
},
{
place = (420, 143);
place = (420, 143);
type = Stem;
}
);
layerId = "E93BD6B3-FA9D-4EFB-B4A0-6094DEE674CC";
shapes = (
{
closed = 1;
nodes = (
(205,0,l),
(205,262,l),
(325,262,ls),
(474,262,o),
(580,348,o),
(580,482,cs),
(580,618,o),
(469,700,o),
(325,700,cs),
(47,700,l),
(47,0,l)
);
},
{
closed = 1;
nodes = (
(205,565,l),
(321,565,ls),
(395,565,o),
(420,524,o),
(420,482,cs),
(420,437,o),
(395,397,o),
(321,397,cs),
(205,397,l)
);
}
);
width = 592;
}
);
note = P;
unicode = 80;
},
{
glyphname = Thorn;
lastChange = "2022-12-23 00:27:27 +0000";
layers = (
{
hints = (
{
horizontal = 1;
place = (132, 99);
place = (132, 99);
type = Stem;
},
{
horizontal = 1;
place = (456, 101);
place = (456, 101);
type = Stem;
},
{
place = (64, 124);
place = (64, 124);
type = Stem;
},
{
place = (441, 126);
place = (441, 126);
type = Stem;
}
);
layerId = m01;
shapes = (
{
closed = 1;
nodes = (
(192,0,l),
(192,136,l),
(323,136,ls),
(380,136,o),
(427,146,o),
(464,166,cs),
(537,205,o),
(571,273,o),
(571,349,cs),
(571,390,o),
(562,427,o),
(544,460,cs),
(508,524,o),
(435,565,o),
(323,565,cs),
(192,565,l),
(192,700,l),
(64,700,l),
(64,0,l)
);
},
{
closed = 1;
nodes = (
(192,460,l),
(315,460,ls),
(404,460,o),
(441,418,o),
(441,349,cs),
(441,282,o),
(404,239,o),
(315,239,cs),
(192,239,l)
);
}
);
width = 599;
},
{
hints = (
{
horizontal = 1;
place = (147, 70);
place = (147, 70);
type = Stem;
},
{
horizontal = 1;
place = (484, 70);
place = (484, 70);
type = Stem;
},
{
place = (74, 84);
place = (74, 84);
type = Stem;
},
{
place = (457, 86);
place = (457, 86);
type = Stem;
}
);
layerId = "E8FC3098-FD3B-4CCD-A487-BB9306939620";
shapes = (
{
closed = 1;
nodes = (
(158,0,l),
(158,147,l),
(304,147,ls),
(359,147,o),
(405,156,o),
(440,174,cs),
(511,210,o),
(543,274,o),
(543,350,cs),
(543,389,o),
(535,424,o),
(518,455,cs),
(484,517,o),
(413,554,o),
(304,554,cs),
(158,554,l),
(158,700,l),
(74,700,l),
(74,0,l)
);
},
{
closed = 1;
nodes = (
(158,484,l),
(302,484,ls),
(414,484,o),
(457,435,o),
(457,350,cs),
(457,269,o),
(414,217,o),
(302,217,cs),
(158,217,l)
);
}
);
width = 579;
},
{
hints = (
{
horizontal = 1;
place = (112, 108);
place = (112, 108);
type = Stem;
},
{
horizontal = 1;
place = (427, 112);
place = (427, 112);
type = Stem;
},
{
place = (47, 141);
place = (47, 141);
type = Stem;
},
{
place = (420, 143);
place = (420, 143);
type = Stem;
}
);
layerId = "E93BD6B3-FA9D-4EFB-B4A0-6094DEE674CC";
shapes = (
{
closed = 1;
nodes = (
(205,0,l),
(205,129,l),
(326,129,ls),
(384,129,o),
(432,139,o),
(470,161,cs),
(544,202,o),
(580,272,o),
(580,348,cs),
(580,391,o),
(570,429,o),
(551,463,cs),
(514,529,o),
(440,572,o),
(326,572,cs),
(205,572,l),
(205,700,l),
(47,700,l),
(47,0,l)
);
},
{
closed = 1;
nodes = (
(205,444,l),
(314,444,ls),
(387,444,o),
(420,407,o),
(420,348,cs),
(420,291,o),
(387,254,o),
(314,254,cs),
(205,254,l)
);
}
);
width = 592;
}
);
note = Thorn;
unicode = 222;
},
{
glyphname = Q;
kernLeft = C;
lastChange = "2022-12-23 00:27:27 +0000";
layers = (
{
hints = (
{
horizontal = 1;
place = (-16, 111);
place = (-16, 111);
type = Stem;
},
{
horizontal = 1;
place = (593, 111);
place = (593, 111);
type = Stem;
},
{
place = (41, 127);
place = (41, 127);
type = Stem;
},
{
place = (611, 127);
place = (611, 127);
type = Stem;
}
);
layerId = m01;
shapes = (
{
closed = 1;
nodes = (
(767,76,l),
(696.31,142.532,l),
(733.727,198.695,o),
(756,268.68,o),
(756,350,cs),
(756,574,o),
(587,712,o),
(398,712,cs),
(210,712,o),
(41,574,o),
(41,350,cs),
(41,126,o),
(210,-12,o),
(398,-12,cs),
(476.609,-12,o),
(551.759,11.873,o),
(612.728,55.877,c),
(683,-12,l)
);
},
{
closed = 1;
nodes = (
(173,518,o),
(287,597,o),
(398,597,cs),
(510,597,o),
(624,518,o),
(624,350,cs),
(624,297.88,o),
(616.728,261.517,o),
(603.725,231.664,c),
(503,331,l),
(419,243,l),
(526.905,138.774,l),
(491.379,115.007,o),
(449.092,104,o),
(398,104,cs),
(287,104,o),
(173,183,o),
(173,350,cs)
);
}
);
width = 802;
},
{
hints = (
{
horizontal = 1;
place = (-12, 74);
place = (-12, 74);
type = Stem;
},
{
horizontal = 1;
place = (637, 75);
place = (637, 75);
type = Stem;
},
{
place = (47, 86);
place = (47, 86);
type = Stem;
},
{
place = (651, 86);
place = (651, 86);
type = Stem;
}
);
layerId = "E8FC3098-FD3B-4CCD-A487-BB9306939620";
shapes = (
{
closed = 1;
nodes = (
(727,41,l),
(658.439,106.098,l),
(709.167,168.873,o),
(737,253.111,o),
(737,350,cs),
(737,561,o),
(604,712,o),
(392,712,cs),
(177,712,o),
(47,555,o),
(47,350,cs),
(47,144,o),
(178,-12,o),
(392,-12,cs),
(478.212,-12,o),
(551.154,12.737,o),
(607.445,56.178,c),
(677,-11,l)
);
},
{
closed = 1;
nodes = (
(133,518,o),
(229,637,o),
(392,637,cs),
(556,637,o),
(651,522,o),
(651,350,cs),
(651,276.86,o),
(634.364,210.953,o),
(601.093,161.506,c),
(494,267,l),
(443,215,l),
(552.11,109.621,l),
(510.481,78.373,o),
(456.279,62,o),
(392,62,cs),
(229,62,o),
(133,183,o),
(133,350,cs)
);
}
);
width = 789;
},
{
hints = (
{
horizontal = 1;
place = (-29, 126);
place = (-29, 126);
type = Stem;
},
{
horizontal = 1;
place = (554, 125);
place = (554, 125);
type = Stem;
},
{
place = (27, 144);
place = (27, 144);
type = Stem;
},
{
place = (574, 144);
place = (574, 144);
type = Stem;
}
);
layerId = "E93BD6B3-FA9D-4EFB-B4A0-6094DEE674CC";
shapes = (
{
closed = 1;
nodes = (
(770,92,l),
(703,154,l),
(738,209,o),
(759,275,o),
(759,350,cs),
(759,574,o),
(585,712,o),
(392,712,cs),
(200,712,o),
(27,574,o),
(27,350,cs),
(27,126,o),
(200,-12,o),
(392,-12,cs),
(469,-12,o),
(543,11,o),
(603,52,c),
(669,-13,l)
);
},
{
closed = 1;
nodes = (
(190,500,o),
(296,570,o),
(392,570,cs),
(488,570,o),
(596,500,o),
(596,351,cs),
(596,320,o),
(592,292,o),
(584,268,c),
(485,367,l),
(385,262,l),
(495,157,l),
(464,140,o),
(428,132,o),
(392,132,cs),
(294,132,o),
(190,203,o),
(190,351,cs)
);
}
);
width = 788;
}
);
note = Q;
unicode = 81;
},
{
glyphname = R;
kernRight = R;
lastChange = "2022-12-23 00:27:27 +0000";
layers = (
{
anchors = (
{
name = bottom;
pos = (311,0);
},
{
name = top;
pos = (305,700);
}
);
hints = (
{
horizontal = 1;
place = (272, 90);
place = (272, 90);
type = Stem;
},
{
horizontal = 1;
place = (589, 103);
place = (589, 103);
type = Stem;
},
{
place = (64, 124);
place = (64, 124);
type = Stem;
},
{
place = (437, 127);
place = (437, 127);
type = Stem;
}
);
layerId = m01;
shapes = (
{
closed = 1;
nodes = (
(192,0,l),
(192,295,l),
(270,295,l),
(442,0,l),
(593,0,l),
(398,316,l),
(490,338,o),
(547,398,o),
(547,498,cs),
(547,627,o),
(452,700,o),
(307,700,cs),
(64,700,l),
(64,0,l)
);
},
{
closed = 1;
nodes = (
(192,591,l),
(304,591,ls),
(393,591,o),
(417,551,o),
(417,498,cs),
(417,444,o),
(393,404,o),
(304,404,cs),
(192,404,l)
);
}
);
width = 615;
},
{
anchors = (
{
name = bottom;
pos = (302,0);
},
{
name = top;
pos = (283,700);
}
);
hints = (
{
horizontal = 1;
place = (289, 66);
place = (289, 66);
type = Stem;
},
{
horizontal = 1;
place = (629, 71);
place = (629, 71);
type = Stem;
},
{
place = (74, 84);
place = (74, 84);
type = Stem;
},
{
place = (449, 87);
place = (449, 87);
type = Stem;
}
);
layerId = "E8FC3098-FD3B-4CCD-A487-BB9306939620";
shapes = (
{
closed = 1;
nodes = (
(158,0,l),
(158,310,l),
(274,310,l),
(454,0,l),
(558,0,l),
(357,326,l),
(454,343,o),
(515,395,o),
(515,505,c),
(515,636,o),
(428,700,o),
(281,700,c),
(74,700,l),
(74,0,l)
);
},
{
closed = 1;
nodes = (
(158,630,l),
(279,630,l),
(391,630,o),
(429,589,o),
(429,505,c),
(429,422,o),
(391,381,o),
(279,381,c),
(158,381,l)
);
}
);
width = 593;
},
{
anchors = (
{
name = bottom;
pos = (311,0);
},
{
name = top;
pos = (306,700);
}
);
hints = (
{
horizontal = 1;
place = (251, 96);
place = (251, 96);
type = Stem;
},
{
horizontal = 1;
place = (552, 114);
place = (552, 114);
type = Stem;
},
{
place = (47, 141);
place = (47, 141);
type = Stem;
},
{
place = (419, 144);
place = (419, 144);
type = Stem;
}
);
layerId = "E93BD6B3-FA9D-4EFB-B4A0-6094DEE674CC";
shapes = (
{
closed = 1;
nodes = (
(205,0,l),
(205,285,l),
(257,285,l),
(424,0,l),
(606,0,l),
(415,309,l),
(504,335,o),
(558,400,o),
(558,493,cs),
(558,621,o),
(458,700,o),
(314,700,cs),
(47,700,l),
(47,0,l)
);
},
{
closed = 1;
nodes = (
(205,565,l),
(311,565,ls),
(384,565,o),
(399,526,o),
(399,493,cs),
(399,459,o),
(384,419,o),
(311,419,cs),
(205,419,l)
);
}
);
width = 610;
}
);
note = R;
unicode = 82;
},
{
glyphname = S;
kernLeft = S;
kernRight = S;
lastChange = "2022-12-23 00:27:27 +0000";
layers = (
{
anchors = (
{
name = bottom;
pos = (295,0);
},
{
name = top;
pos = (295,700);
}
);
hints = (
{
horizontal = 1;
place = (-16, 103);
place = (-16, 103);
type = Stem;
},
{
horizontal = 1;
place = (600, 104);
place = (600, 104);
type = Stem;
},
{
place = (56, 130);
place = (56, 130);
type = Stem;
},
{
place = (413, 132);
place = (413, 132);
type = Stem;
}
);
layerId = m01;
shapes = (
{
closed = 1;
nodes = (
(443,-12,o),
(549,66,o),
(549,194,c),
(549,332,o),
(428,377,o),
(359,401,c),
(264,434,o),
(190,460,o),
(190,521,c),
(190,575,o),
(232,604,o),
(286,604,c),
(353,604,o),
(393,560,o),
(394,510,c),
(531,510,l),
(528,641,o),
(422,712,o),
(291,712,c),
(160,712,o),
(56,643,o),
(56,512,c),
(56,424,o),
(107,355,o),
(246,310,c),
(386,265,o),
(413,242,o),
(413,185,c),
(413,130,o),
(370,96,o),
(302,96,c),
(223,96,o),
(177,146,o),
(174,211,c),
(39,211,l),
(42,63,o),
(157,-12,o),
(303,-12,c)
);
}
);
width = 589;
},
{
anchors = (
{
name = bottom;
pos = (289,0);
},
{
name = top;
pos = (289,700);
}
);
hints = (
{
horizontal = 1;
place = (-12, 724);
place = (-12, 724);
type = Stem;
},
{
place = (44, 489);
place = (44, 489);
type = Stem;
}
);
layerId = "E8FC3098-FD3B-4CCD-A487-BB9306939620";
shapes = (
{
closed = 1;
nodes = (
(425,-12,o),
(533,57,o),
(533,183,c),
(533,307,o),
(457,350,o),
(329,393,c),
(195,438,o),
(155,454,o),
(155,528,c),
(155,603,o),
(213,642,o),
(285,640,c),
(366,640,o),
(422,588,o),
(422,518,c),
(510,518,l),
(507,642,o),
(412,712,o),
(288,712,c),
(165,712,o),
(65,643,o),
(68,520,c),
(68,425,o),
(127,377,o),
(227,342,c),
(375,291,o),
(446,282,o),
(446,178,c),
(446,102,o),
(382,59,o),
(297,59,c),
(200,59,o),
(132,117,o),
(132,210,c),
(44,210,l),
(44,68,o),
(154,-12,o),
(297,-12,c)
);
}
);
width = 578;
},
{
anchors = (
{
name = bottom;
pos = (288,0);
},
{
name = top;
pos = (288,700);
}
);
layerId = "E93BD6B3-FA9D-4EFB-B4A0-6094DEE674CC";
shapes = (
{
closed = 1;
nodes = (
(445,-12,o),
(550,72,o),
(550,201,c),
(550,304,o),
(491,365,o),
(382,402,cs),
(274,438,o),
(203,464,o),
(203,516,c),
(203,556,o),
(235,579,o),
(277,580,c),
(334,580,o),
(364,541,o),
(365,505,c),
(535,505,l),
(532,640,o),
(419,712,o),
(283,712,c),
(147,712,o),
(40,643,o),
(38,507,c),
(38,423,o),
(84,341,o),
(249,289,c),
(366,252,o),
(381,226,o),
(381,190,c),
(381,149,o),
(352,121,o),
(295,121,c),
(228,121,o),
(197,165,o),
(192,212,c),
(26,212,l),
(31,60,o),
(149,-12,o),
(297,-12,c)
);
}
);
width = 576;
}
);
note = S;
unicode = 83;
},
{
glyphname = Saltillo;
lastChange = "2022-12-23 00:27:27 +0000";
layers = (
{
hints = (
{
horizontal = 1;
place = (-12, 712);
place = (-12, 712);
type = Stem;
},
{
place = (85, 122.5);
place = (85, 122.5);
type = Stem;
}
);
layerId = m01;
shapes = (
{
closed = 1;
nodes = (
(182,210,l),
(197,700,l),
(60,700,l),
(74,210,l)
);
}
);
width = 257;
},
{
hints = (
{
horizontal = 1;
place = (-5, 114);
place = (-5, 114);
type = Stem;
},
{
place = (82, 81);
place = (82, 81);
type = Stem;
},
{
place = (67, 115);
place = (67, 115);
type = Stem;
}
);
layerId = "E8FC3098-FD3B-4CCD-A487-BB9306939620";
shapes = (
{
closed = 1;
nodes = (
(146,229,l),
(156,700,l),
(65,700,l),
(75,229,l)
);
}
);
width = 221;
},
{
hints = (
{
horizontal = 1;
place = (-17, 1111);
place = (-17, 1111);
type = Stem;
},
{
place = (87, 150);
place = (87, 150);
type = Stem;
}
);
layerId = "E93BD6B3-FA9D-4EFB-B4A0-6094DEE674CC";
shapes = (
{
closed = 1;
nodes = (
(205,211,l),
(223,700,l),
(55,700,l),
(72,211,l)
);
}
);
width = 279;
}
);
note = exclam;
unicode = 42891;
},
{
glyphname = Germandbls;
lastChange = "2022-12-23 00:27:27 +0000";
layers = (
{
hints = (
{
horizontal = 1;
place = (-30, 75);
place = (-30, 75);
type = Stem;
},
{
horizontal = 1;
place = (605, 87);
place = (605, 87);
type = Stem;
},
{
place = (46, 108);
place = (46, 108);
type = Stem;
},
{
place = (284, 109);
place = (284, 109);
type = Stem;
},
{
place = (531, 105);
place = (531, 105);
type = Stem;
},
{
horizontal = 1;
place = (-20, 155);
place = (-20, 155);
type = Stem;
},
{
place = (411, 107);
place = (411, 107);
type = Stem;
}
);
layerId = m01;
shapes = (
{
closed = 1;
nodes = (
(571,-10,o),
(656,52,o),
(656,159,c),
(656,248,o),
(599,290,o),
(515,321,cs),
(441,348,o),
(413,360,o),
(413,390,cs),
(413,414,o),
(438,430,o),
(457,442,c),
(495,467,o),
(538,495,o),
(538,556,c),
(538,669,o),
(433,732,o),
(304,732,c),
(157,732,o),
(46,654,o),
(46,509,c),
(46,0,l),
(174,0,l),
(174,499,l),
(174,578,o),
(212,625,o),
(299,625,c),
(357,625,o),
(411,601,o),
(411,543,c),
(411,511,o),
(388,492,o),
(367,476,c),
(354,467,o),
(342,459,o),
(329,450,c),
(303,432,o),
(284,406,o),
(284,370,c),
(284,292,o),
(366,263,o),
(438,238,c),
(488,220,o),
(531,204,o),
(531,151,c),
(531,105,o),
(498,85,o),
(452,85,c),
(398,85,o),
(363,119,o),
(357,175,c),
(236,175,l),
(251,49,o),
(340,-10,o),
(454,-10,c)
);
}
);
width = 667;
},
{
hints = (
{
horizontal = 1;
place = (-10, 66);
place = (-10, 66);
type = Stem;
},
{
horizontal = 1;
place = (661, 71);
place = (661, 71);
type = Stem;
},
{
place = (71, 83);
place = (71, 83);
type = Stem;
},
{
place = (290, 85);
place = (290, 85);
type = Stem;
},
{
place = (541, 85);
place = (541, 85);
type = Stem;
},
{
horizontal = 1;
place = (0, 169);
place = (0, 169);
type = Stem;
},
{
place = (432, 84);
place = (432, 84);
type = Stem;
}
);
layerId = "E8FC3098-FD3B-4CCD-A487-BB9306939620";
shapes = (
{
closed = 1;
nodes = (
(545,-10,o),
(626,46,o),
(626,150,c),
(626,238,o),
(572,278,o),
(489,307,c),
(447,321,o),
(375,342,o),
(375,386,c),
(375,415,o),
(404,431,o),
(425,445,c),
(465,468,o),
(516,499,o),
(516,569,c),
(516,675,o),
(418,732,o),
(302,732,c),
(165,732,o),
(71,657,o),
(71,520,c),
(71,0,l),
(154,0,l),
(154,512,l),
(154,595,o),
(191,661,o),
(300,661,c),
(371,661,o),
(432,632,o),
(432,562,c),
(432,527,o),
(413,505,o),
(383,486,c),
(368,477,o),
(354,467,o),
(340,458,c),
(314,441,o),
(290,417,o),
(290,375,c),
(290,301,o),
(368,270,o),
(438,246,c),
(496,228,o),
(541,205,o),
(541,144,c),
(541,85,o),
(499,56,o),
(440,56,c),
(364,56,o),
(326,108,o),
(321,169,c),
(238,169,l),
(248,56,o),
(330,-10,o),
(441,-10,c)
);
}
);
width = 664;
},
{
layerId = "E93BD6B3-FA9D-4EFB-B4A0-6094DEE674CC";
shapes = (
{
closed = 1;
nodes = (
(577,-10,o),
(674,50,o),
(674,165,c),
(674,256,o),
(613,299,o),
(530,330,cs),
(465,354,o),
(436,367,o),
(436,393,cs),
(436,415,o),
(461,431,o),
(475,441,cs),
(511,465,o),
(551,495,o),
(551,547,c),
(551,666,o),
(435,732,o),
(303,732,c),
(150,732,o),
(30,655,o),
(30,502,c),
(30,0,l),
(185,0,l),
(185,490,l),
(185,565,o),
(221,601,o),
(296,601,c),
(348,601,o),
(395,580,o),
(395,530,c),
(395,503,o),
(372,484,o),
(353,470,c),
(342,461,o),
(331,453,o),
(319,444,c),
(296,427,o),
(278,402,o),
(278,367,c),
(278,289,o),
(364,258,o),
(436,233,c),
(477,217,o),
(522,200,o),
(522,156,c),
(522,120,o),
(494,104,o),
(458,104,c),
(411,104,o),
(384,135,o),
(379,179,c),
(233,179,l),
(248,55,o),
(335,-10,o),
(461,-10,c)
);
}
);
width = 682;
}
);
note = germandbls;
unicode = 7838;
},
{
glyphname = T;
kernLeft = T;
kernRight = T;
lastChange = "2022-12-23 00:27:27 +0000";
layers = (
{
anchors = (
{
name = bottom;
pos = (292,0);
},
{
name = center;
pos = (292,350);
},
{
name = top;
pos = (292,700);
}
);
hints = (
{
horizontal = 1;
place = (593, 99);
place = (593, 99);
type = Stem;
},
{
place = (227, 124);
place = (227, 124);
type = Stem;
}
);
layerId = m01;
shapes = (
{
closed = 1;
nodes = (
(355,0,l),
(355,591,l),
(560,591,l),
(560,700,l),
(23,700,l),
(23,591,l),
(227,591,l),
(227,0,l)
);
}
);
width = 583;
},
{
anchors = (
{
name = bottom;
pos = (280,0);
},
{
name = center;
pos = (280,350);
},
{
name = top;
pos = (280,700);
}
);
hints = (
{
horizontal = 1;
place = (631, 69);
place = (631, 69);
type = Stem;
},
{
place = (238, 84);
place = (238, 84);
type = Stem;
}
);
layerId = "E8FC3098-FD3B-4CCD-A487-BB9306939620";
shapes = (
{
closed = 1;
nodes = (
(322,0,l),
(322,631,l),
(531,631,l),
(531,700,l),
(29,700,l),
(29,631,l),
(238,631,l),
(238,0,l)
);
}
);
width = 560;
},
{
anchors = (
{
name = bottom;
pos = (289,0);
},
{
name = center;
pos = (289,350);
},
{
name = top;
pos = (289,700);
}
);
hints = (
{
horizontal = 1;
place = (558, 109);
place = (558, 109);
type = Stem;
},
{
place = (210, 141);
place = (210, 141);
type = Stem;
}
);
layerId = "E93BD6B3-FA9D-4EFB-B4A0-6094DEE674CC";
shapes = (
{
closed = 1;
nodes = (
(367,0,l),
(367,564,l),
(569,564,l),
(569,700,l),
(9,700,l),
(9,564,l),
(210,564,l),
(210,0,l)
);
}
);
width = 578;
}
);
note = T;
unicode = 84;
},
{
glyphname = U;
kernLeft = U;
kernRight = U;
lastChange = "2022-12-23 00:27:27 +0000";
layers = (
{
anchors = (
{
name = bottom;
pos = (337,0);
},
{
name = ogonek;
pos = (418,10);
},
{
name = top;
pos = (337,700);
},
{
name = topright;
pos = (653,700);
}
);
hints = (
{
horizontal = 1;
place = (-16, 113);
place = (-16, 113);
type = Stem;
},
{
place = (60, 124);
place = (60, 124);
type = Stem;
},
{
place = (486, 124);
place = (486, 124);
type = Stem;
}
);
layerId = m01;
shapes = (
{
closed = 1;
nodes = (
(385,-12,o),
(432,-2,o),
(475,19,cs),
(559,59,o),
(614,141,o),
(614,268,cs),
(614,700,l),
(486,700,l),
(486,267,ls),
(486,158,o),
(429,105,o),
(337,105,cs),
(244,105,o),
(188,158,o),
(188,267,cs),
(188,700,l),
(60,700,l),
(60,268,ls),
(60,205,o),
(72,152,o),
(97,111,cs),
(145,28,o),
(231,-12,o),
(334,-12,cs)
);
}
);
width = 673;
},
{
anchors = (
{
name = bottom;
pos = (328,0);
},
{
name = ogonek;
pos = (403,10);
},
{
name = top;
pos = (328,700);
},
{
name = topright;
pos = (636,700);
}
);
hints = (
{
horizontal = 1;
place = (-12, 75);
place = (-12, 75);
type = Stem;
},
{
place = (68, 84);
place = (68, 84);
type = Stem;
},
{
place = (504, 84);
place = (504, 84);
type = Stem;
}
);
layerId = "E8FC3098-FD3B-4CCD-A487-BB9306939620";
shapes = (
{
closed = 1;
nodes = (
(376,-12,o),
(420,-3,o),
(459,17,cs),
(538,55,o),
(588,134,o),
(588,258,cs),
(588,700,l),
(504,700,l),
(504,257,ls),
(504,121,o),
(434,63,o),
(329,63,cs),
(224,63,o),
(152,121,o),
(152,257,cs),
(152,700,l),
(68,700,l),
(68,258,ls),
(68,196,o),
(80,145,o),
(103,105,cs),
(150,25,o),
(231,-12,o),
(327,-12,cs)
);
}
);
width = 656;
},
{
anchors = (
{
name = bottom;
pos = (332,0);
},
{
name = ogonek;
pos = (422,10);
},
{
name = top;
pos = (332,700);
},
{
name = topright;
pos = (644,700);
}
);
hints = (
{
horizontal = 1;
place = (-29, 128);
place = (-29, 128);
type = Stem;
},
{
place = (45, 141);
place = (45, 141);
type = Stem;
},
{
place = (464, 141);
place = (464, 141);
type = Stem;
}
);
layerId = "E93BD6B3-FA9D-4EFB-B4A0-6094DEE674CC";
shapes = (
{
closed = 1;
nodes = (
(381,-12,o),
(430,-1,o),
(476,20,cs),
(563,62,o),
(621,146,o),
(621,275,cs),
(621,700,l),
(464,700,l),
(464,274,ls),
(464,183,o),
(416,133,o),
(332,133,cs),
(247,133,o),
(202,183,o),
(202,274,cs),
(202,700,l),
(45,700,l),
(45,275,ls),
(45,211,o),
(57,157,o),
(83,115,cs),
(132,30,o),
(221,-12,o),
(329,-12,cs)
);
}
);
width = 664;
}
);
note = U;
unicode = 85;
},
{
glyphname = V;
kernLeft = V;
kernRight = V;
lastChange = "2022-12-23 00:27:27 +0000";
layers = (
{
hints = (
{
horizontal = 1;
place = (-4, 696);
place = (-4, 696);
type = Stem;
},
{
place = (11, 665);
place = (11, 665);
type = Stem;
}
);
layerId = m01;
shapes = (
{
closed = 1;
nodes = (
(424,0,l),
(680,700,l),
(545,700,l),
(346,131,l),
(148,700,l),
(11,700,l),
(267,0,l)
);
}
);
width = 691;
},
{
hints = (
{
horizontal = 1;
place = (0, 700);
place = (0, 700);
type = Stem;
},
{
place = (22, 624);
place = (22, 624);
type = Stem;
}
);
layerId = "E8FC3098-FD3B-4CCD-A487-BB9306939620";
shapes = (
{
closed = 1;
nodes = (
(383,0,l),
(646,700,l),
(557,700,l),
(334,89,l),
(113,700,l),
(22,700,l),
(285,0,l)
);
}
);
width = 668;
},
{
hints = (
{
horizontal = 1;
place = (-17, 683);
place = (-17, 683);
type = Stem;
},
{
place = (-6, 682);
place = (-6, 682);
type = Stem;
}
);
layerId = "E93BD6B3-FA9D-4EFB-B4A0-6094DEE674CC";
shapes = (
{
closed = 1;
nodes = (
(441,0,l),
(693,700,l),
(527,700,l),
(344,159,l),
(161,700,l),
(-6,700,l),
(245,0,l)
);
}
);
width = 686;
}
);
note = V;
unicode = 86;
},
{
glyphname = W;
kernLeft = W;
kernRight = W;
lastChange = "2022-12-23 00:27:27 +0000";
layers = (
{
anchors = (
{
name = bottom;
pos = (499,0);
},
{
name = top;
pos = (499,700);
}
);
hints = (
{
horizontal = 1;
place = (-4, 696);
place = (-4, 696);
type = Stem;
},
{
place = (21, 956);
place = (21, 956);
type = Stem;
}
);
layerId = m01;
shapes = (
{
closed = 1;
nodes = (
(413,0,l),
(499,254,l),
(584,0,l),
(736,0,l),
(979,700,l),
(848,700,l),
(659,121,l),
(584,355,l),
(706,700,l),
(576,700,l),
(499,455,l),
(421,700,l),
(292,700,l),
(413,355,l),
(338,121,l),
(149,700,l),
(18,700,l),
(261,0,l)
);
}
);
width = 997;
},
{
anchors = (
{
name = bottom;
pos = (484,0);
},
{
name = top;
pos = (484,700);
}
);
hints = (
{
horizontal = 1;
place = (-1, 701);
place = (-1, 701);
type = Stem;
},
{
place = (26, 916);
place = (26, 916);
type = Stem;
}
);
layerId = "E8FC3098-FD3B-4CCD-A487-BB9306939620";
shapes = (
{
closed = 1;
nodes = (
(369,0,l),
(483,319,l),
(597,0,l),
(693,0,l),
(943,700,l),
(857,700,l),
(645,79,l),
(538,383,l),
(649,700,l),
(563,700,l),
(483,452,l),
(403,700,l),
(317,700,l),
(428,383,l),
(321,79,l),
(109,700,l),
(23,700,l),
(273,0,l)
);
}
);
width = 967;
},
{
anchors = (
{
name = bottom;
pos = (499,0);
},
{
name = top;
pos = (499,700);
}
);
hints = (
{
horizontal = 1;
place = (-16, 683);
place = (-16, 683);
type = Stem;
},
{
place = (8, 973);
place = (8, 973);
type = Stem;
}
);
layerId = "E93BD6B3-FA9D-4EFB-B4A0-6094DEE674CC";
shapes = (
{
closed = 1;
nodes = (
(432,0,l),
(500,211,l),
(565,0,l),
(755,0,l),
(993,700,l),
(832,700,l),
(658,149,l),
(605,336,l),
(734,700,l),
(575,700,l),
(500,457,l),
(423,700,l),
(265,700,l),
(393,336,l),
(339,149,l),
(166,700,l),
(5,700,l),
(243,0,l)
);
}
);
width = 997;
}
);
note = W;
unicode = 87;
},
{
glyphname = X;
lastChange = "2022-12-23 00:27:27 +0000";
layers = (
{
hints = (
{
horizontal = 1;
place = (-4, 696);
place = (-4, 696);
type = Stem;
},
{
place = (27, 593);
place = (27, 593);
type = Stem;
}
);
layerId = m01;
shapes = (
{
closed = 1;
nodes = (
(174,0,l),
(323,264,l),
(480,0,l),
(625,0,l),
(398,381,l),
(585,700,l),
(440,700,l),
(327,497,l),
(206,700,l),
(61,700,l),
(251,381,l),
(29,0,l)
);
}
);
width = 651;
},
{
hints = (
{
horizontal = 1;
place = (0, 700);
place = (0, 700);
type = Stem;
},
{
place = (38, 526);
place = (38, 526);
type = Stem;
}
);
layerId = "E8FC3098-FD3B-4CCD-A487-BB9306939620";
shapes = (
{
closed = 1;
nodes = (
(127,0,l),
(297,300,l),
(477,0,l),
(571,0,l),
(346,377,l),
(537,700,l),
(442,700,l),
(301,451,l),
(152,700,l),
(58,700,l),
(252,376,l),
(31,0,l)
);
}
);
width = 602;
},
{
hints = (
{
horizontal = 1;
place = (-17, 683);
place = (-17, 683);
type = Stem;
},
{
place = (10, 628);
place = (10, 628);
type = Stem;
}
);
layerId = "E93BD6B3-FA9D-4EFB-B4A0-6094DEE674CC";
shapes = (
{
closed = 1;
nodes = (
(195,0,l),
(330,240,l),
(472,0,l),
(651,0,l),
(423,384,l),
(607,700,l),
(429,700,l),
(334,528,l),
(232,700,l),
(53,700,l),
(240,384,l),
(18,0,l)
);
}
);
width = 664;
}
);
note = X;
unicode = 88;
},
{
glyphname = Y;
kernLeft = Y;
kernRight = Y;
lastChange = "2022-12-23 00:27:27 +0000";
layers = (
{
anchors = (
{
name = bottom;
pos = (309,0);
},
{
name = top;
pos = (309,700);
},
{
name = topleft;
pos = (20,700);
}
);
hints = (
{
horizontal = 1;
place = (-4, 696);
place = (-4, 696);
type = Stem;
},
{
place = (245, 124);
place = (245, 124);
type = Stem;
}
);
layerId = m01;
shapes = (
{
closed = 1;
nodes = (
(373,0,l),
(373,281,l),
(607,700,l),
(464,700,l),
(310,409,l),
(155,700,l),
(10,700,l),
(245,281,l),
(245,0,l)
);
}
);
width = 617;
},
{
anchors = (
{
name = bottom;
pos = (290,0);
},
{
name = top;
pos = (290,700);
},
{
name = topleft;
pos = (20,700);
}
);
hints = (
{
horizontal = 1;
place = (0, 700);
place = (0, 700);
type = Stem;
},
{
place = (248, 84);
place = (248, 84);
type = Stem;
}
);
layerId = "E8FC3098-FD3B-4CCD-A487-BB9306939620";
shapes = (
{
closed = 1;
nodes = (
(332,0,l),
(332,266,l),
(559,700,l),
(465,700,l),
(290,346,l),
(115,700,l),
(20,700,l),
(248,266,l),
(248,0,l)
);
}
);
width = 579;
},
{
anchors = (
{
name = bottom;
pos = (311,0);
},
{
name = top;
pos = (311,700);
},
{
name = topleft;
pos = (20,700);
}
);
hints = (
{
horizontal = 1;
place = (-17, 683);
place = (-17, 683);
type = Stem;
},
{
place = (233, 141);
place = (233, 141);
type = Stem;
}
);
layerId = "E93BD6B3-FA9D-4EFB-B4A0-6094DEE674CC";
shapes = (
{
closed = 1;
nodes = (
(390,0,l),
(390,291,l),
(629,700,l),
(453,700,l),
(313,451,l),
(172,700,l),
(-7,700,l),
(233,291,l),
(233,0,l)
);
}
);
width = 622;
}
);
note = Y;
unicode = 89;
},
{
glyphname = Z;
kernRight = Z;
lastChange = "2022-12-23 00:27:27 +0000";
layers = (
{
anchors = (
{
name = bottom;
pos = (279,0);
},
{
name = center;
pos = (279,350);
},
{
name = top;
pos = (279,700);
}
);
hints = (
{
horizontal = 1;
place = (-4, 103);
place = (-4, 103);
type = Stem;
},
{
horizontal = 1;
place = (589, 103);
place = (589, 103);
type = Stem;
},
{
place = (43, 468);
place = (43, 468);
type = Stem;
}
);
layerId = m01;
shapes = (
{
closed = 1;
nodes = (
(515,0,l),
(515,109,l),
(190,109,l),
(513,602,l),
(513,700,l),
(46,700,l),
(46,592,l),
(364,592,l),
(43,98,l),
(43,0,l)
);
}
);
width = 558;
},
{
anchors = (
{
name = bottom;
pos = (268,0);
},
{
name = center;
pos = (268,350);
},
{
name = top;
pos = (268,700);
}
);
hints = (
{
horizontal = 1;
place = (0, 73);
place = (0, 73);
type = Stem;
},
{
horizontal = 1;
place = (627, 73);
place = (627, 73);
type = Stem;
},
{
place = (44, 447);
place = (44, 447);
type = Stem;
}
);
layerId = "E8FC3098-FD3B-4CCD-A487-BB9306939620";
shapes = (
{
closed = 1;
nodes = (
(491,0,l),
(491,73,l),
(141,73,l),
(487,634,l),
(487,700,l),
(49,700,l),
(49,627,l),
(389,627,l),
(44,66,l),
(44,0,l)
);
}
);
width = 535;
},
{
anchors = (
{
name = bottom;
pos = (277,0);
},
{
name = center;
pos = (277,350);
},
{
name = top;
pos = (277,700);
}
);
hints = (
{
horizontal = 1;
place = (-17, 113);
place = (-17, 113);
type = Stem;
},
{
horizontal = 1;
place = (554, 113);
place = (554, 113);
type = Stem;
},
{
place = (32, 472);
place = (32, 472);
type = Stem;
}
);
layerId = "E93BD6B3-FA9D-4EFB-B4A0-6094DEE674CC";
shapes = (
{
closed = 1;
nodes = (
(521,0,l),
(521,133,l),
(213,133,l),
(520,581,l),
(520,700,l),
(34,700,l),
(34,569,l),
(337,569,l),
(32,119,l),
(32,0,l)
);
}
);
width = 553;
}
);
note = Z;
unicode = 90;
},
{
glyphname = uni018E;
lastChange = "2022-12-23 00:27:27 +0000";
layers = (
{
layerId = m01;
shapes = (
{
closed = 1;
nodes = (
(494,0,l),
(494,700,l),
(45,700,l),
(45,591,l),
(366,591,l),
(366,424,l),
(91,424,l),
(91,315,l),
(366,315,l),
(366,109,l),
(45,109,l),
(45,0,l)
);
}
);
width = 554;
},
{
layerId = "E8FC3098-FD3B-4CCD-A487-BB9306939620";
shapes = (
{
closed = 1;
nodes = (
(507,0,l),
(507,700,l),
(74,700,l),
(74,631,l),
(423,631,l),
(423,404,l),
(118,404,l),
(118,336,l),
(423,336,l),
(423,69,l),
(74,69,l),
(74,0,l)
);
}
);
width = 600;
},
{
layerId = "E93BD6B3-FA9D-4EFB-B4A0-6094DEE674CC";
shapes = (
{
closed = 1;
nodes = (
(493,0,l),
(493,700,l),
(34,700,l),
(34,564,l),
(336,564,l),
(336,437,l),
(81,437,l),
(81,301,l),
(336,301,l),
(336,136,l),
(34,136,l),
(34,0,l)
);
}
);
width = 540;
}
);
unicode = 398;
},
{
glyphname = a;
kernLeft = a;
kernRight = a;
lastChange = "2022-12-22 01:13:58 +0000";
layers = (
{
anchors = (
{
name = bottom;
pos = (238,0);
},
{
name = ogonek;
pos = (538,0);
},
{
name = top;
pos = (266,496);
}
);
hints = (
{
horizontal = 1;
place = (-32, 80);
place = (-32, 80);
type = Stem;
},
{
horizontal = 1;
place = (193, 60);
place = (193, 60);
type = Stem;
},
{
horizontal = 1;
place = (384, 84);
place = (384, 84);
type = Stem;
},
{
place = (372, 108);
place = (372, 108);
type = Stem;
},
{
horizontal = 1;
place = (-20, 68);
place = (-20, 68);
type = Stem;
},
{
place = (30, 115);
place = (30, 115);
type = Stem;
}
);
layerId = m01;
shapes = (
{
closed = 1;
nodes = (
(273,-12,o),
(343,28,o),
(374,80,c),
(402,26,o),
(443,0,o),
(538,0,c),
(538,107,l),
(507,107,o),
(487,116,o),
(485,145,c),
(485,296,l),
(485,425,o),
(405,508,o),
(266,508,c),
(152,508,o),
(49,442,o),
(40,334,c),
(168,334,l),
(176,382,o),
(217,401,o),
(264,401,c),
(323,401,o),
(356,363,o),
(356,296,c),
(238,296,l),
(119,296,o),
(30,247,o),
(30,137,c),
(30,44,o),
(109,-12,o),
(197,-12,c)
);
},
{
closed = 1;
nodes = (
(193,91,o),
(160,110,o),
(160,151,c),
(160,196,o),
(201,214,o),
(246,214,c),
(356,214,l),
(356,210,l),
(356,139,o),
(300,91,o),
(234,91,c)
);
}
);
width = 555;
},
{
anchors = (
{
name = bottom;
pos = (247,0);
},
{
name = ogonek;
pos = (539,0);
},
{
name = top;
pos = (275,496);
}
);
hints = (
{
horizontal = 1;
place = (-12, 71);
place = (-12, 71);
type = Stem;
},
{
horizontal = 1;
place = (234, 65);
place = (234, 65);
type = Stem;
},
{
horizontal = 1;
place = (437, 71);
place = (437, 71);
type = Stem;
},
{
place = (50, 88);
place = (50, 88);
type = Stem;
},
{
place = (406.5, 77.5);
place = (406.5, 77.5);
type = Stem;
},
{
place = (400, 84);
place = (400, 84);
type = Stem;
}
);
layerId = "E8FC3098-FD3B-4CCD-A487-BB9306939620";
shapes = (
{
closed = 1;
nodes = (
(315,-12,o),
(374,32,o),
(407,88,c),
(423,24,o),
(473,0,o),
(539,0,c),
(539,74,l),
(489,79,o),
(484,103,o),
(484,153,cs),
(484,305,ls),
(484,417,o),
(425,508,o),
(275,508,cs),
(169,508,o),
(69,448,o),
(60,341,c),
(146,341,l),
(158,406,o),
(209,437,o),
(275,437,cs),
(342,437,o),
(400,402,o),
(400,299,c),
(266,299,ls),
(152,299,o),
(50,256,o),
(50,141,cs),
(50,40,o),
(131,-12,o),
(234,-12,cs)
);
},
{
closed = 1;
nodes = (
(187,59,o),
(138,85,o),
(138,145,cs),
(138,215,o),
(203,234,o),
(273,234,cs),
(400,234,l),
(400,233,ls),
(400,147,o),
(346,59,o),
(247,59,cs)
);
}
);
width = 571;
},
{
anchors = (
{
name = bottom;
pos = (234,0);
},
{
name = ogonek;
pos = (538,0);
},
{
name = top;
pos = (265,496);
}
);
hints = (
{
horizontal = 1;
place = (-324, 82);
place = (-324, 82);
type = Stem;
},
{
horizontal = 1;
place = (166, 57);
place = (166, 57);
type = Stem;
},
{
horizontal = 1;
place = (349, 93);
place = (349, 93);
type = Stem;
},
{
place = (353, 124);
place = (353, 124);
type = Stem;
},
{
horizontal = 1;
place = (-25, 66);
place = (-25, 66);
type = Stem;
},
{
place = (17, 133);
place = (17, 133);
type = Stem;
}
);
layerId = "E93BD6B3-FA9D-4EFB-B4A0-6094DEE674CC";
shapes = (
{
closed = 1;
nodes = (
(261,-12,o),
(320,18,o),
(364,77,c),
(399,13,o),
(442,0,o),
(538,0,c),
(538,122,l),
(501,122,o),
(497,138,o),
(497,168,c),
(497,295,l),
(497,429,o),
(403,508,o),
(265,508,c),
(146,508,o),
(41,439,o),
(33,330,c),
(182,330,l),
(190,369,o),
(224,383,o),
(262,383,c),
(316,383,o),
(343,346,o),
(343,294,c),
(231,294,l),
(115,294,o),
(18,248,o),
(18,138,c),
(18,42,o),
(93,-12,o),
(180,-12,c)
);
},
{
closed = 1;
nodes = (
(203,106,o),
(173,119,o),
(173,158,c),
(173,197,o),
(206,212,o),
(247,212,c),
(342,212,l),
(342,206,l),
(342,147,o),
(292,106,o),
(234,106,c)
);
}
);
width = 548;
}
);
note = a;
unicode = 97;
},
{
glyphname = ae;
kernLeft = a;
kernRight = ae;
lastChange = "2022-12-22 01:13:58 +0000";
layers = (
{
anchors = (
{
name = bottom;
pos = (451,0);
},
{
name = top;
pos = (451,496);
}
);
hints = (
{
horizontal = 1;
place = (-32, 80);
place = (-32, 80);
type = Stem;
},
{
horizontal = 1;
place = (196, 60);
place = (196, 60);
type = Stem;
},
{
horizontal = 1;
place = (384, 84);
place = (384, 84);
type = Stem;
},
{
place = (30, 115);
place = (30, 115);
type = Stem;
},
{
place = (749, 109);
place = (749, 109);
type = Stem;
},
{
horizontal = 1;
place = (-32, 85);
place = (-32, 85);
type = Stem;
}
);
layerId = m01;
shapes = (
{
closed = 1;
nodes = (
(325,-12,o),
(386,31,o),
(426,90,c),
(471,26,o),
(545,-12,o),
(632,-12,cs),
(761,-12,o),
(845,73,o),
(869,170,c),
(742,170,l),
(725,125,o),
(688,93,o),
(631,93,cs),
(567,93,o),
(513,137,o),
(506,216,c),
(876,216,l),
(877,235,o),
(878,251,o),
(878,264,cs),
(878,411,o),
(771,508,o),
(632,508,cs),
(563,508,o),
(500,481,o),
(456,436,c),
(419,483,o),
(356,508,o),
(277,508,cs),
(168,508,o),
(63,449,o),
(52,333,c),
(177,333,l),
(186,380,o),
(228,404,o),
(277,404,cs),
(332,404,o),
(375,373,o),
(375,296,c),
(242,296,ls),
(99,296,o),
(30,232,o),
(30,139,cs),
(30,45,o),
(116,-12,o),
(225,-12,cs)
);
},
{
closed = 1;
nodes = (
(196,88,o),
(165,113,o),
(165,152,cs),
(165,189,o),
(193,216,o),
(258,216,cs),
(370,216,l),
(370,207,l),
(358,142,o),
(311,88,o),
(243,88,cs)
);
},
{
closed = 1;
nodes = (
(521,368,o),
(573,404,o),
(633,404,cs),
(696,404,o),
(744,364,o),
(749,296,c),
(508,296,l)
);
}
);
width = 901;
},
{
anchors = (
{
name = bottom;
pos = (457,0);
},
{
name = top;
pos = (457,496);
}
);
hints = (
{
horizontal = 1;
place = (-12, 71);
place = (-12, 71);
type = Stem;
},
{
horizontal = 1;
place = (232, 65);
place = (232, 65);
type = Stem;
},
{
horizontal = 1;
place = (437, 71);
place = (437, 71);
type = Stem;
},
{
place = (50, 88);
place = (50, 88);
type = Stem;
},
{
place = (399, 86);
place = (399, 86);
type = Stem;
},
{
place = (788, 83);
place = (788, 83);
type = Stem;
},
{
place = (398, 86);
place = (398, 86);
type = Stem;
}
);
layerId = "E8FC3098-FD3B-4CCD-A487-BB9306939620";
shapes = (
{
closed = 1;
nodes = (
(332,-12,o),
(397,39,o),
(436,106,c),
(477,33,o),
(553,-12,o),
(641,-12,cs),
(758,-12,o),
(839,63,o),
(863,163,c),
(782,163,l),
(761,99,o),
(715,59,o),
(640,59,cs),
(555,59,o),
(488,127,o),
(484,232,c),
(869,232,l),
(870,251,o),
(871,265,o),
(871,278,cs),
(871,403,o),
(781,508,o),
(642,508,cs),
(565,508,o),
(498,476,o),
(455,417,c),
(423,474,o),
(361,508,o),
(277,508,cs),
(181,508,o),
(80,452,o),
(68,341,c),
(155,341,l),
(166,404,o),
(217,437,o),
(277,437,cs),
(348,437,o),
(399,392,o),
(399,297,c),
(261,297,ls),
(133,297,o),
(50,242,o),
(50,141,cs),
(50,46,o),
(126,-12,o),
(237,-12,cs)
);
},
{
closed = 1;
nodes = (
(178,59,o),
(138,94,o),
(138,146,cs),
(138,197,o),
(174,232,o),
(269,232,cs),
(398,232,l),
(398,212,l),
(389,129,o),
(323,59,o),
(243,59,cs)
);
},
{
closed = 1;
nodes = (
(496,388,o),
(565,437,o),
(642,437,cs),
(719,437,o),
(783,385,o),
(788,297,c),
(485,297,l)
);
}
);
width = 913;
},
{
anchors = (
{
name = bottom;
pos = (432,0);
},
{
name = top;
pos = (432,496);
}
);
layerId = "E93BD6B3-FA9D-4EFB-B4A0-6094DEE674CC";
shapes = (
{
closed = 1;
nodes = (
(284,-12,o),
(355,13,o),
(403,69,c),
(450,15,o),
(520,-12,o),
(597,-12,cs),
(724,-12,o),
(814,68,o),
(837,163,c),
(672,163,l),
(657,130,o),
(630,114,o),
(592,114,cs),
(549,114,o),
(501,139,o),
(496,211,c),
(846,211,l),
(848,227,o),
(849,242,o),
(849,256,cs),
(849,411,o),
(744,508,o),
(597,508,cs),
(532.496,508,o),
(474.886,489.289,o),
(430.033,453.822,c),
(389.298,488.979,o),
(332.364,508,o),
(265,508,cs),
(146,508,o),
(41,439,o),
(33,330,c),
(182,330,l),
(190,369,o),
(224,383,o),
(262,383,cs),
(316,383,o),
(343,346,o),
(343,292,c),
(231,292,ls),
(115,292,o),
(17,246,o),
(17,136,cs),
(17,40,o),
(90,-12,o),
(202,-12,cs)
);
},
{
closed = 1;
nodes = (
(203,104,o),
(173,117,o),
(173,156,cs),
(173,195,o),
(206,210,o),
(247,210,cs),
(342,210,l),
(342,204,ls),
(342,145,o),
(292,104,o),
(234,104,cs)
);
},
{
closed = 1;
nodes = (
(505,350,o),
(542,384,o),
(595,384,cs),
(649,384,o),
(690,351,o),
(690,297,c),
(496,297,l)
);
}
);
width = 863;
}
);
note = ae;
unicode = 230;
},
{
glyphname = b;
kernRight = b;
lastChange = "2022-12-22 01:13:58 +0000";
layers = (
{
hints = (
{
horizontal = 1;
place = (-32, 92);
place = (-32, 92);
type = Stem;
},
{
horizontal = 1;
place = (376, 92);
place = (376, 92);
type = Stem;
},
{
place = (45, 108);
place = (45, 108);
type = Stem;
},
{
place = (453, 110);
place = (453, 110);
type = Stem;
},
{
horizontal = 1;
place = (-20, 80);
place = (-20, 80);
type = Stem;
},
{
place = (45, 106);
place = (45, 106);
type = Stem;
}
);
layerId = m01;
shapes = (
{
closed = 1;
nodes = (
(480,-12,o),
(569,107,o),
(569,250,cs),
(569,394,o),
(481,508,o),
(339,508,cs),
(271,508,o),
(209,481,o),
(172,426,c),
(172,700,l),
(45,700,l),
(45,0,l),
(173,0,l),
(173,68,l),
(212,13,o),
(272,-12,o),
(339,-12,cs)
);
},
{
closed = 1;
nodes = (
(231,100,o),
(173,160,o),
(173,248,cs),
(173,334,o),
(227,396,o),
(305,396,cs),
(377,396,o),
(439,343,o),
(439,250,cs),
(439,167,o),
(385,100,o),
(305,100,cs)
);
}
);
width = 598;
},
{
hints = (
{
horizontal = 1;
place = (-12, 73);
place = (-12, 73);
type = Stem;
},
{
horizontal = 1;
place = (435, 73);
place = (435, 73);
type = Stem;
},
{
place = (69, 84);
place = (69, 84);
type = Stem;
},
{
place = (495, 85);
place = (495, 85);
type = Stem;
},
{
place = (69, 80);
place = (69, 80);
type = Stem;
},
{
place = (69, 86);
place = (69, 86);
type = Stem;
}
);
layerId = "E8FC3098-FD3B-4CCD-A487-BB9306939620";
shapes = (
{
closed = 1;
nodes = (
(484,-12,o),
(580,98,o),
(580,247,cs),
(580,397,o),
(485,508,o),
(335,508,cs),
(243,508,o),
(185,462,o),
(153,414,c),
(153,700,l),
(69,700,l),
(69,0,l),
(145,0,l),
(153,83,l),
(186,23,o),
(253,-12,o),
(334,-12,cs)
);
},
{
closed = 1;
nodes = (
(221,61,o),
(155,143,o),
(155,248,cs),
(155,359,o),
(224,435,o),
(325,435,cs),
(431,435,o),
(495,354,o),
(495,248,cs),
(495,137,o),
(426,61,o),
(325,61,cs)
);
}
);
width = 628;
},
{
hints = (
{
horizontal = 1;
place = (-383, 97);
place = (-383, 97);
type = Stem;
},
{
horizontal = 1;
place = (337, 105);
place = (337, 105);
type = Stem;
},
{
place = (29, 124);
place = (29, 124);
type = Stem;
},
{
place = (709, 126);
place = (709, 126);
type = Stem;
},
{
horizontal = 1;
place = (-25, 85);
place = (-25, 85);
type = Stem;
},
{
place = (29, 123);
place = (29, 123);
type = Stem;
}
);
layerId = "E93BD6B3-FA9D-4EFB-B4A0-6094DEE674CC";
shapes = (
{
closed = 1;
nodes = (
(477,-12,o),
(563,105,o),
(563,249,c),
(563,398,o),
(471,508,o),
(340,508,c),
(277,508,o),
(216,481,o),
(184,429,c),
(184,700,l),
(29,700,l),
(29,0,l),
(184,0,l),
(184,66,l),
(217,13,o),
(277,-12,o),
(340,-12,c)
);
},
{
closed = 1;
nodes = (
(229,123,o),
(183,175,o),
(183,248,c),
(183,325,o),
(232,373,o),
(294,373,c),
(353,373,o),
(405,331,o),
(405,249,c),
(405,175,o),
(359,123,o),
(294,123,c)
);
}
);
width = 579;
}
);
note = b;
unicode = 98;
},
{
glyphname = c;
kernLeft = c;
kernRight = c;
lastChange = "2022-12-22 01:13:58 +0000";
layers = (
{
anchors = (
{
name = bottom;
pos = (278,0);
},
{
name = top;
pos = (276,496);
}
);
hints = (
{
horizontal = 1;
place = (-32, 89);
place = (-32, 89);
type = Stem;
},
{
horizontal = 1;
place = (379, 89);
place = (379, 89);
type = Stem;
},
{
place = (29, 111);
place = (29, 111);
type = Stem;
}
);
layerId = m01;
shapes = (
{
closed = 1;
nodes = (
(398,-12,o),
(488,54,o),
(515,166,c),
(378,166,l),
(362,120,o),
(329,97,o),
(277,97,cs),
(195,97,o),
(159,166,o),
(159,248,cs),
(159,330,o),
(195,400,o),
(277,400,cs),
(332,400,o),
(366,368,o),
(378,330,c),
(515,330,l),
(486,447,o),
(398,508,o),
(278,508,cs),
(125,508,o),
(29,398,o),
(29,248,cs),
(29,96,o),
(127,-12,o),
(278,-12,cs)
);
}
);
width = 544;
},
{
anchors = (
{
name = bottom;
pos = (296,0);
},
{
name = top;
pos = (293,496);
}
);
hints = (
{
horizontal = 1;
place = (-12, 71);
place = (-12, 71);
type = Stem;
},
{
horizontal = 1;
place = (436, 72);
place = (436, 72);
type = Stem;
},
{
place = (48, 86);
place = (48, 86);
type = Stem;
}
);
layerId = "E8FC3098-FD3B-4CCD-A487-BB9306939620";
shapes = (
{
closed = 1;
nodes = (
(414,-12,o),
(502,57,o),
(522,157,c),
(436,157,l),
(423,94,o),
(365,59,o),
(296,59,cs),
(202,59,o),
(134,137,o),
(134,248,cs),
(134,348,o),
(190,436,o),
(296,436,cs),
(365,436,o),
(423,400,o),
(436,339,c),
(522,339,l),
(501,442,o),
(414,508,o),
(297,508,cs),
(151,508,o),
(48,402,o),
(48,248,cs),
(48,90,o),
(157,-12,o),
(297,-12,cs)
);
}
);
width = 570;
},
{
anchors = (
{
name = bottom;
pos = (268,0);
},
{
name = top;
pos = (266,496);
}
);
hints = (
{
horizontal = 1;
place = (-45, 101);
place = (-45, 101);
type = Stem;
},
{
horizontal = 1;
place = (341, 100);
place = (341, 100);
type = Stem;
},
{
place = (16, 128);
place = (16, 128);
type = Stem;
}
);
layerId = "E93BD6B3-FA9D-4EFB-B4A0-6094DEE674CC";
shapes = (
{
closed = 1;
nodes = (
(394,-12,o),
(484,57,o),
(513,178,c),
(348,178,l),
(334,140,o),
(307,120,o),
(267,120,c),
(200,120,o),
(174,181,o),
(174,248,c),
(174,315,o),
(200,376,o),
(267,376,c),
(307,376,o),
(334,356,o),
(348,318,c),
(513,318,l),
(482,450,o),
(387,508,o),
(270,508,c),
(114,508,o),
(16,399,o),
(16,248,c),
(16,90,o),
(120,-12,o),
(270,-12,c)
);
}
);
width = 530;
}
);
note = c;
unicode = 99;
},
{
glyphname = d;
kernLeft = c;
lastChange = "2022-12-22 01:13:58 +0000";
layers = (
{
anchors = (
{
name = bottom;
pos = (299,0);
},
{
name = center;
pos = (299,248);
},
{
name = top;
pos = (299,992);
},
{
name = topright;
pos = (578,992);
}
);
hints = (
{
horizontal = 1;
place = (-32, 92);
place = (-32, 92);
type = Stem;
},
{
horizontal = 1;
place = (376, 92);
place = (376, 92);
type = Stem;
},
{
place = (29, 110);
place = (29, 110);
type = Stem;
},
{
place = (439, 108);
place = (439, 108);
type = Stem;
},
{
horizontal = 1;
place = (-20, 80);
place = (-20, 80);
type = Stem;
},
{
place = (441, 106);
place = (441, 106);
type = Stem;
}
);
layerId = m01;
shapes = (
{
closed = 1;
nodes = (
(325,-12,o),
(391,16,o),
(424,71,c),
(424,0,l),
(553,0,l),
(553,700,l),
(424,700,l),
(424,430,l),
(384,480,o),
(323,508,o),
(259,508,cs),
(118,508,o),
(29,393,o),
(29,250,cs),
(29,106,o),
(115,-12,o),
(259,-12,cs)
);
},
{
closed = 1;
nodes = (
(215,100,o),
(159,165,o),
(159,250,cs),
(159,335,o),
(214,396,o),
(291,396,cs),
(351,396,o),
(425,354,o),
(425,248,cs),
(425,161,o),
(371,100,o),
(292,100,cs)
);
}
);
width = 598;
},
{
anchors = (
{
name = bottom;
pos = (314,0);
},
{
name = center;
pos = (314,248);
},
{
name = top;
pos = (314,992);
},
{
name = topright;
pos = (608,992);
}
);
hints = (
{
horizontal = 1;
place = (-12, 73);
place = (-12, 73);
type = Stem;
},
{
horizontal = 1;
place = (435, 73);
place = (435, 73);
type = Stem;
},
{
place = (48, 86);
place = (48, 86);
type = Stem;
},
{
place = (476, 84);
place = (476, 84);
type = Stem;
},
{
place = (473, 87);
place = (473, 87);
type = Stem;
}
);
layerId = "E8FC3098-FD3B-4CCD-A487-BB9306939620";
shapes = (
{
closed = 1;
nodes = (
(385,-12,o),
(444,34,o),
(476,82,c),
(484,0,l),
(560,0,l),
(560,700,l),
(476,700,l),
(476,413,l),
(441,473,o),
(376,508,o),
(295,508,cs),
(139,508,o),
(48,393,o),
(48,249,cs),
(48,103,o),
(142,-12,o),
(294,-12,cs)
);
},
{
closed = 1;
nodes = (
(211,61,o),
(134,131,o),
(134,248,cs),
(134,363,o),
(208,435,o),
(303,435,cs),
(410,435,o),
(473,355,o),
(473,248,cs),
(473,145,o),
(413,61,o),
(303,61,cs)
);
}
);
width = 628;
},
{
anchors = (
{
name = bottom;
pos = (290,0);
},
{
name = center;
pos = (290,248);
},
{
name = top;
pos = (290,992);
},
{
name = topright;
pos = (585,992);
}
);
hints = (
{
horizontal = 1;
place = (-371, 97);
place = (-371, 97);
type = Stem;
},
{
horizontal = 1;
place = (337, 105);
place = (337, 105);
type = Stem;
},
{
place = (48, 183);
place = (48, 183);
type = Stem;
},
{
place = (700, 123);
place = (700, 123);
type = Stem;
},
{
horizontal = 1;
place = (-25, 85);
place = (-25, 85);
type = Stem;
},
{
place = (420, 119);
place = (420, 119);
type = Stem;
}
);
layerId = "E93BD6B3-FA9D-4EFB-B4A0-6094DEE674CC";
shapes = (
{
closed = 1;
nodes = (
(304,-12,o),
(361,13,o),
(395,68,c),
(395,0,l),
(550,0,l),
(550,700,l),
(395,700,l),
(395,431,l),
(362,481,o),
(301,508,o),
(239,508,c),
(100,508,o),
(16,389,o),
(16,249,c),
(16,109,o),
(99,-12,o),
(239,-12,c)
);
},
{
closed = 1;
nodes = (
(216,123,o),
(174,179,o),
(174,249,c),
(174,339,o),
(234,373,o),
(284,373,c),
(349,373,o),
(395,321,o),
(395,248,c),
(395,171,o),
(346,123,o),
(284,123,c)
);
}
);
width = 580;
}
);
note = d;
unicode = 100;
},
{
glyphname = eth;
kernLeft = c;
lastChange = "2022-12-22 01:13:58 +0000";
layers = (
{
hints = (
{
horizontal = 1;
place = (-32, 89);
place = (-32, 89);
type = Stem;
},
{
horizontal = 1;
place = (374, 89);
place = (374, 89);
type = Stem;
},
{
horizontal = 1;
place = (619, 41);
place = (619, 41);
type = Stem;
},
{
place = (29, 111);
place = (29, 111);
type = Stem;
},
{
place = (445, 111);
place = (445, 111);
type = Stem;
}
);
layerId = m01;
shapes = (
{
closed = 1;
nodes = (
(350,-12,o),
(397,0,o),
(439,25,cs),
(523,74,o),
(576,166,o),
(576,289,cs),
(576,394,o),
(540,509,o),
(465,609,c),
(535,632,l),
(535,709,l),
(413,669,l),
(402,680,o),
(391,690,o),
(380,700,c),
(259,700,l),
(281,681,o),
(302,661,o),
(321,639,c),
(244,614,l),
(244,537,l),
(370,578,l),
(397,538,o),
(419,497,o),
(434,456,c),
(391,488,o),
(343,503,o),
(290,503,cs),
(240,503,o),
(196,492,o),
(157,470,cs),
(79,425,o),
(29,345,o),
(29,246,cs),
(29,197,o),
(41,154,o),
(64,115,cs),
(110,38,o),
(194,-12,o),
(299,-12,cs)
);
},
{
closed = 1;
nodes = (
(221,99,o),
(161,164,o),
(161,249,cs),
(161,334,o),
(220,395,o),
(302,395,cs),
(366,395,o),
(446,353,o),
(446,247,cs),
(446,160,o),
(388,99,o),
(303,99,cs)
);
}
);
width = 605;
},
{
hints = (
{
horizontal = 1;
place = (-12, 71);
place = (-12, 71);
type = Stem;
},
{
horizontal = 1;
place = (436, 71);
place = (436, 71);
type = Stem;
},
{
horizontal = 1;
place = (641, 59);
place = (641, 59);
type = Stem;
},
{
place = (48, 86);
place = (48, 86);
type = Stem;
},
{
place = (492, 86);
place = (492, 86);
type = Stem;
}
);
layerId = "E8FC3098-FD3B-4CCD-A487-BB9306939620";
shapes = (
{
closed = 1;
nodes = (
(361,-12,o),
(406,0,o),
(447,24,cs),
(527,72,o),
(578,160,o),
(578,272,cs),
(578,403,o),
(535,518,o),
(449,619,c),
(539,651,l),
(539,708,l),
(408,663,l),
(395,676,o),
(382,688,o),
(367,700,c),
(283,700,l),
(306,681,o),
(328,661,o),
(347,641,c),
(252,608,l),
(252,551,l),
(386,598,l),
(431,543,o),
(462,488,o),
(483,429,c),
(438,485,o),
(370,507,o),
(305,507,cs),
(257,507,o),
(214,496,o),
(175,474,cs),
(97,429,o),
(48,347,o),
(48,247,cs),
(48,199,o),
(59,156,o),
(82,117,cs),
(127,39,o),
(208,-12,o),
(311,-12,cs)
);
},
{
closed = 1;
nodes = (
(221,59,o),
(134,129,o),
(134,248,cs),
(134,349,o),
(204,436,o),
(313,436,cs),
(404,436,o),
(492,367,o),
(492,248,cs),
(492,147,o),
(422,59,o),
(313,59,cs)
);
}
);
width = 626;
},
{
layerId = "E93BD6B3-FA9D-4EFB-B4A0-6094DEE674CC";
shapes = (
{
closed = 1;
nodes = (
(343,-12,o),
(391,0,o),
(434,26,cs),
(520,75,o),
(575,170,o),
(575,300,cs),
(575,388,o),
(543,503,o),
(476,602,c),
(532,619,l),
(532,710,l),
(416,673,l),
(407,683,o),
(397,691,o),
(389,700,c),
(243,700,l),
(264,681,o),
(285,661,o),
(304,638,c),
(239,618,l),
(239,528,l),
(359,565,l),
(374,535,o),
(390,503,o),
(401,474,c),
(360,490,o),
(325,500,o),
(280,500,cs),
(229,500,o),
(184,489,o),
(145,467,cs),
(67,422,o),
(16,344,o),
(16,245,cs),
(16,196,o),
(29,153,o),
(52,114,cs),
(99,37,o),
(185,-12,o),
(291,-12,cs)
);
},
{
closed = 1;
nodes = (
(221,126,o),
(179,187,o),
(179,250,cs),
(179,324,o),
(231,368,o),
(295,368,cs),
(341,368,o),
(415,344,o),
(415,246,cs),
(415,169,o),
(365,126,o),
(296,126,cs)
);
}
);
width = 591;
}
);
note = eth;
unicode = 240;
},
{
glyphname = dcroat;
kernLeft = c;
lastChange = "2022-12-22 01:13:58 +0000";
layers = (
{
hints = (
{
horizontal = 1;
place = (-32, 92);
place = (-32, 92);
type = Stem;
},
{
horizontal = 1;
place = (376, 92);
place = (376, 92);
type = Stem;
},
{
horizontal = 1;
place = (546, 58);
place = (546, 58);
type = Stem;
},
{
place = (29, 110);
place = (29, 110);
type = Stem;
},
{
place = (439, 108);
place = (439, 108);
type = Stem;
},
{
horizontal = 1;
place = (-20, 80);
place = (-20, 80);
type = Stem;
},
{
place = (441, 106);
place = (441, 106);
type = Stem;
}
);
layerId = m01;
shapes = (
{
closed = 1;
nodes = (
(325,-12,o),
(391,16,o),
(424,71,c),
(424,0,l),
(553,0,l),
(553,556,l),
(622,556,l),
(622,634,l),
(553,634,l),
(553,700,l),
(424,700,l),
(424,634,l),
(283,634,l),
(283,556,l),
(424,556,l),
(424,430,l),
(384,480,o),
(323,508,o),
(259,508,cs),
(118,508,o),
(29,393,o),
(29,250,cs),
(29,106,o),
(115,-12,o),
(259,-12,cs)
);
},
{
closed = 1;
nodes = (
(215,100,o),
(159,165,o),
(159,250,cs),
(159,335,o),
(214,396,o),
(291,396,cs),
(351,396,o),
(425,354,o),
(425,248,cs),
(425,161,o),
(371,100,o),
(292,100,cs)
);
}
);
width = 628;
},
{
hints = (
{
horizontal = 1;
place = (-12, 73);
place = (-12, 73);
type = Stem;
},
{
horizontal = 1;
place = (435, 73);
place = (435, 73);
type = Stem;
},
{
horizontal = 1;
place = (570, 65);
place = (570, 65);
type = Stem;
},
{
place = (48, 86);
place = (48, 86);
type = Stem;
},
{
place = (476, 84);
place = (476, 84);
type = Stem;
},
{
place = (473, 87);
place = (473, 87);
type = Stem;
}
);
layerId = "E8FC3098-FD3B-4CCD-A487-BB9306939620";
shapes = (
{
closed = 1;
nodes = (
(385,-12,o),
(444,34,o),
(476,82,c),
(484,0,l),
(560,0,l),
(560,570,l),
(635,570,l),
(635,635,l),
(560,635,l),
(560,700,l),
(476,700,l),
(476,635,l),
(331,635,l),
(331,570,l),
(476,570,l),
(476,413,l),
(441,473,o),
(376,508,o),
(295,508,cs),
(139,508,o),
(48,393,o),
(48,249,cs),
(48,103,o),
(142,-12,o),
(294,-12,cs)
);
},
{
closed = 1;
nodes = (
(211,61,o),
(134,131,o),
(134,248,cs),
(134,363,o),
(208,435,o),
(303,435,cs),
(410,435,o),
(473,355,o),
(473,248,cs),
(473,145,o),
(413,61,o),
(303,61,cs)
);
}
);
width = 674;
},
{
layerId = "E93BD6B3-FA9D-4EFB-B4A0-6094DEE674CC";
shapes = (
{
closed = 1;
nodes = (
(304,-12,o),
(361,13,o),
(395,68,c),
(395,0,l),
(550,0,l),
(550,544,l),
(607,544,l),
(607,635,l),
(550,635,l),
(550,700,l),
(395,700,l),
(395,635,l),
(268,635,l),
(268,544,l),
(395,544,l),
(395,431,l),
(362,481,o),
(301,508,o),
(239,508,cs),
(100,508,o),
(16,389,o),
(16,249,cs),
(16,109,o),
(99,-12,o),
(239,-12,cs)
);
},
{
closed = 1;
nodes = (
(174,339,o),
(234,373,o),
(284,373,cs),
(349,373,o),
(395,321,o),
(395,248,cs),
(395,171,o),
(346,123,o),
(284,123,cs),
(216,123,o),
(174,179,o),
(174,249,cs)
);
}
);
width = 597;
}
);
note = dcroat;
unicode = 273;
},
{
glyphname = e;
kernLeft = c;
kernRight = ae;
lastChange = "2022-12-22 01:13:58 +0000";
layers = (
{
anchors = (
{
name = bottom;
pos = (277,0);
},
{
name = ogonek;
pos = (388,10);
},
{
name = top;
pos = (277,496);
}
);
hints = (
{
horizontal = 1;
place = (-32, 85);
place = (-32, 85);
type = Stem;
},
{
horizontal = 1;
place = (197, 60);
place = (197, 60);
type = Stem;
},
{
horizontal = 1;
place = (384, 84);
place = (384, 84);
type = Stem;
},
{
place = (29, 107);
place = (29, 107);
type = Stem;
},
{
place = (405, 110);
place = (405, 110);
type = Stem;
}
);
layerId = m01;
shapes = (
{
closed = 1;
nodes = (
(410,-12,o),
(489,66,o),
(517,154,c),
(380,154,l),
(360,113,o),
(326,93,o),
(279,93,c),
(210,93,o),
(164,140,o),
(158,210,c),
(526,210,l),
(529,225,o),
(530,241,o),
(530,259,c),
(530,405,o),
(429,508,o),
(282,508,c),
(131,508,o),
(29,405,o),
(29,248,c),
(29,99,o),
(126,-12,o),
(282,-12,c)
);
},
{
closed = 1;
nodes = (
(170,371,o),
(223,403,o),
(278,403,c),
(342,403,o),
(396,362,o),
(398,295,c),
(159,295,l)
);
}
);
width = 553;
},
{
anchors = (
{
name = bottom;
pos = (292,0);
},
{
name = ogonek;
pos = (397,10);
},
{
name = top;
pos = (289,496);
}
);
hints = (
{
horizontal = 1;
place = (-12, 71);
place = (-12, 71);
type = Stem;
},
{
horizontal = 1;
place = (229, 65);
place = (229, 65);
type = Stem;
},
{
horizontal = 1;
place = (437, 71);
place = (437, 71);
type = Stem;
},
{
place = (48, 84);
place = (48, 84);
type = Stem;
},
{
place = (444, 83);
place = (444, 83);
type = Stem;
},
{
place = (48, 83);
place = (48, 83);
type = Stem;
}
);
layerId = "E8FC3098-FD3B-4CCD-A487-BB9306939620";
shapes = (
{
closed = 1;
nodes = (
(409,-12,o),
(486,56,o),
(513,148,c),
(430,148,l),
(409,93,o),
(361,59,o),
(292,59,cs),
(200,59,o),
(136,131,o),
(131,229,c),
(526,229,l),
(527,251,o),
(527,257,o),
(527,276,cs),
(527,406,o),
(433,508,o),
(294,508,cs),
(146,508,o),
(48,404,o),
(48,248,cs),
(48,89,o),
(154,-12,o),
(292,-12,cs)
);
},
{
closed = 1;
nodes = (
(141,387,o),
(212,437,o),
(292,437,cs),
(376,437,o),
(440,383,o),
(444,294,c),
(132,294,l)
);
}
);
width = 569;
},
{
anchors = (
{
name = bottom;
pos = (269,0);
},
{
name = ogonek;
pos = (379,10);
},
{
name = top;
pos = (269,496);
}
);
layerId = "E93BD6B3-FA9D-4EFB-B4A0-6094DEE674CC";
shapes = (
{
closed = 1;
nodes = (
(398,-12,o),
(488,68,o),
(511,163,c),
(346,163,l),
(331,130,o),
(304,114,o),
(266,114,c),
(223,114,o),
(175,139,o),
(170,211,c),
(520,211,l),
(522,227,o),
(523,242,o),
(523,256,c),
(523,411,o),
(418,508,o),
(271,508,c),
(129,508,o),
(16,418,o),
(16,248,c),
(16,77,o),
(133,-12,o),
(271,-12,c)
);
},
{
closed = 1;
nodes = (
(179,350,o),
(216,384,o),
(269,384,c),
(323,384,o),
(364,351,o),
(364,297,c),
(170,297,l)
);
}
);
width = 537;
}
);
note = e;
unicode = 101;
},
{
glyphname = schwa;
kernLeft = c;
kernRight = b;
lastChange = "2022-12-22 01:13:58 +0000";
layers = (
{
hints = (
{
horizontal = 1;
place = (-32, 84);
place = (-32, 84);
type = Stem;
},
{
horizontal = 1;
place = (179, 60);
place = (179, 60);
type = Stem;
},
{
horizontal = 1;
place = (383, 85);
place = (383, 85);
type = Stem;
},
{
place = (23, 110);
place = (23, 110);
type = Stem;
},
{
place = (402, 107);
place = (402, 107);
type = Stem;
}
);
layerId = m01;
shapes = (
{
closed = 1;
nodes = (
(422,-12,o),
(524,91,o),
(524,248,c),
(524,397,o),
(427,508,o),
(271,508,c),
(143,508,o),
(64,430,o),
(36,342,c),
(173,342,l),
(193,383,o),
(227,403,o),
(274,403,c),
(343,403,o),
(389,356,o),
(395,286,c),
(27,286,l),
(24,271,o),
(23,255,o),
(23,237,c),
(23,91,o),
(124,-12,o),
(271,-12,c)
);
},
{
closed = 1;
nodes = (
(211,93,o),
(157,134,o),
(155,201,c),
(394,201,l),
(383,125,o),
(330,93,o),
(275,93,c)
);
}
);
width = 553;
},
{
hints = (
{
horizontal = 1;
place = (-12, 71);
place = (-12, 71);
type = Stem;
},
{
horizontal = 1;
place = (202, 65);
place = (202, 65);
type = Stem;
},
{
horizontal = 1;
place = (437, 71);
place = (437, 71);
type = Stem;
},
{
place = (42, 83);
place = (42, 83);
type = Stem;
},
{
place = (437, 84);
place = (437, 84);
type = Stem;
},
{
place = (438, 83);
place = (438, 83);
type = Stem;
}
);
layerId = "E8FC3098-FD3B-4CCD-A487-BB9306939620";
shapes = (
{
closed = 1;
nodes = (
(421,-12,o),
(521,94,o),
(521,248,cs),
(521,399,o),
(426,508,o),
(277,508,cs),
(160,508,o),
(83,440,o),
(56,348,c),
(139,348,l),
(160,403,o),
(208,437,o),
(277,437,cs),
(367,437,o),
(433,369,o),
(438,267,c),
(43,267,l),
(42,247,o),
(42,238,o),
(42,220,cs),
(42,90,o),
(136,-12,o),
(275,-12,cs)
);
},
{
closed = 1;
nodes = (
(193,59,o),
(129,113,o),
(125,202,c),
(437,202,l),
(428,109,o),
(357,59,o),
(277,59,cs)
);
}
);
width = 569;
},
{
layerId = "E93BD6B3-FA9D-4EFB-B4A0-6094DEE674CC";
shapes = (
{
closed = 1;
nodes = (
(410,-12,o),
(523,78,o),
(523,248,c),
(523,404,o),
(422,508,o),
(268,508,c),
(146,508,o),
(52,433,o),
(28,333,c),
(193,333,l),
(208,366,o),
(235,382,o),
(273,382,c),
(330,382,o),
(365,342,o),
(369,285,c),
(19,285,l),
(17,270,o),
(16,255,o),
(16,240,c),
(16,94,o),
(113,-12,o),
(268,-12,c)
);
},
{
closed = 1;
nodes = (
(221,112,o),
(175,141,o),
(175,199,c),
(368,199,l),
(360,141,o),
(318,112,o),
(270,112,c)
);
}
);
width = 542;
}
);
note = uni0259;
unicode = 601;
},
{
glyphname = f;
lastChange = "2022-12-22 01:13:58 +0000";
layers = (
{
hints = (
{
horizontal = 1;
place = (369, 87);
place = (369, 87);
type = Stem;
},
{
horizontal = 1;
place = (591, 89);
place = (591, 89);
type = Stem;
},
{
place = (68, 108);
place = (68, 108);
type = Stem;
}
);
layerId = m01;
shapes = (
{
closed = 1;
nodes = (
(186,0,l),
(186,389,l),
(275,389,l),
(275,496,l),
(186,496,l),
(186,534,ls),
(186,575,o),
(203,591,o),
(247,591,cs),
(269,591,l),
(269,700,l),
(227,700,ls),
(123,700,o),
(58,654,o),
(58,534,cs),
(58,496,l),
(0,496,l),
(0,389,l),
(58,389,l),
(58,0,l)
);
}
);
width = 309;
},
{
hints = (
{
horizontal = 1;
place = (425, 71);
place = (425, 71);
type = Stem;
},
{
horizontal = 1;
place = (648, 72);
place = (648, 72);
type = Stem;
},
{
place = (96, 84);
place = (96, 84);
type = Stem;
}
);
layerId = "E8FC3098-FD3B-4CCD-A487-BB9306939620";
shapes = (
{
closed = 1;
nodes = (
(180,0,l),
(180,425,l),
(302,425,l),
(302,496,l),
(180,496,l),
(180,560,ls),
(180,609,o),
(199,628,o),
(250,628,cs),
(287,628,l),
(287,700,l),
(237,700,ls),
(145,700,o),
(96,658,o),
(96,562,cs),
(96,496,l),
(21,496,l),
(21,425,l),
(96,425,l),
(96,0,l)
);
}
);
width = 333;
},
{
hints = (
{
horizontal = 1;
place = (332, 98);
place = (332, 98);
type = Stem;
},
{
horizontal = 1;
place = (553, 100);
place = (553, 100);
type = Stem;
},
{
place = (49, 124);
place = (49, 124);
type = Stem;
}
);
layerId = "E93BD6B3-FA9D-4EFB-B4A0-6094DEE674CC";
shapes = (
{
closed = 1;
nodes = (
(218,0,l),
(218,367,l),
(301,367,l),
(301,496,l),
(218,496,l),
(218,517,l),
(218,552,o),
(234,566,o),
(273,566,c),
(301,566,l),
(301,700,l),
(250,700,l),
(138,700,o),
(63,651,o),
(63,515,c),
(63,496,l),
(7,496,l),
(7,367,l),
(63,367,l),
(63,0,l)
);
}
);
width = 329;
}
);
note = f;
unicode = 102;
},
{
glyphname = g;
kernLeft = g;
kernRight = g;
lastChange = "2022-12-22 01:13:58 +0000";
layers = (
{
anchors = (
{
name = bottom;
pos = (259,-310);
},
{
name = top;
pos = (259,496);
}
);
hints = (
{
horizontal = 1;
place = (-248, 77);
place = (-248, 77);
type = Stem;
},
{
horizontal = 1;
place = (-12, 70);
place = (-12, 70);
type = Stem;
},
{
horizontal = 1;
place = (132, 78);
place = (132, 78);
type = Stem;
},
{
horizontal = 1;
place = (402, 70);
place = (402, 70);
type = Stem;
},
{
place = (64, 92);
place = (64, 92);
type = Stem;
},
{
place = (357, 156);
place = (357, 156);
type = Stem;
},
{
place = (51, 75);
place = (51, 75);
type = Stem;
},
{
place = (374, 98);
place = (374, 98);
type = Stem;
},
{
place = (30, 98);
place = (30, 98);
type = Stem;
},
{
place = (357, 91);
place = (357, 91);
type = Stem;
},
{
horizontal = 1;
place = (392, 80);
place = (392, 80);
type = Stem;
}
);
layerId = m01;
shapes = (
{
closed = 1;
nodes = (
(382,-231,o),
(486,-176,o),
(486,-60,cs),
(486,55,o),
(384,94,o),
(255,94,cs),
(177,94,ls),
(157,94,o),
(143,106,o),
(143,121,cs),
(143,135,o),
(155,148,o),
(177,148,cs),
(261,148,ls),
(375,148,o),
(464,219,o),
(464,328,cs),
(464,362,o),
(456,392,o),
(441,418,c),
(505,469,l),
(434,549,l),
(364,487,l),
(335,501,o),
(300,508,o),
(261,508,cs),
(143,508,o),
(59,438,o),
(59,328,cs),
(59,278,o),
(77,236,o),
(113,203,c),
(74,186,o),
(46,154,o),
(46,110,cs),
(46,74,o),
(60,47,o),
(83,30,c),
(51,12,o),
(25,-20,o),
(25,-69,cs),
(25,-163,o),
(105,-231,o),
(256,-231,cs)
);
},
{
closed = 1;
nodes = (
(192,-132,o),
(143,-114,o),
(143,-65,cs),
(143,-17,o),
(188,-1,o),
(255,-1,cs),
(320,-1,o),
(368,-15,o),
(368,-64,cs),
(368,-111,o),
(323,-132,o),
(256,-132,cs)
);
},
{
closed = 1;
nodes = (
(211,247,o),
(171,273,o),
(170,328,cs),
(170,381,o),
(207,408,o),
(261,408,cs),
(315,408,o),
(352,381,o),
(352,328,cs),
(352,278,o),
(313,247,o),
(261,247,cs)
);
}
);
width = 517;
},
{
anchors = (
{
name = bottom;
pos = (263,-310);
},
{
name = top;
pos = (262,496);
}
);
hints = (
{
horizontal = 1;
place = (-232, 69);
place = (-232, 69);
type = Stem;
},
{
horizontal = 1;
place = (22, 67);
place = (22, 67);
type = Stem;
},
{
horizontal = 1;
place = (156, 69);
place = (156, 69);
type = Stem;
},
{
horizontal = 1;
place = (440, 68);
place = (440, 68);
type = Stem;
},
{
place = (68, 80);
place = (68, 80);
type = Stem;
},
{
place = (403, 83);
place = (403, 83);
type = Stem;
},
{
place = (381, 81);
place = (381, 81);
type = Stem;
},
{
place = (60, 73);
place = (60, 73);
type = Stem;
},
{
place = (37, 82);
place = (37, 82);
type = Stem;
},
{
horizontal = 1;
place = (438, 70);
place = (438, 70);
type = Stem;
}
);
layerId = "E8FC3098-FD3B-4CCD-A487-BB9306939620";
shapes = (
{
closed = 1;
nodes = (
(379,-232,o),
(484,-176,o),
(484,-61,cs),
(484,56,o),
(379,89,o),
(259,89,cs),
(174,89,ls),
(147,89,o),
(131,107,o),
(131,123,cs),
(131,141,o),
(150,156,o),
(174,156,cs),
(263,156,ls),
(372,156,o),
(460,218,o),
(460,332,cs),
(460,370,o),
(449,405,o),
(429,434,c),
(495,490,l),
(448,547,l),
(375,482,l),
(340,500,o),
(305,508,o),
(263,508,cs),
(149,508,o),
(66,442,o),
(66,332,cs),
(66,277,o),
(86,233,o),
(125,200,c),
(87,184,o),
(58,160,o),
(58,115,cs),
(58,85,o),
(79,59,o),
(106,44,c),
(64,17,o),
(35,-19,o),
(35,-72,cs),
(35,-191,o),
(145,-232,o),
(264,-232,cs)
);
},
{
closed = 1;
nodes = (
(178,-163,o),
(117,-136,o),
(117,-67,cs),
(117,1,o),
(173,22,o),
(259,22,cs),
(340,22,o),
(401,2,o),
(401,-67,cs),
(401,-132,o),
(344,-163,o),
(259,-163,cs)
);
},
{
closed = 1;
nodes = (
(191,225,o),
(146,263,o),
(146,332,cs),
(146,400,o),
(191,438,o),
(263,438,cs),
(335,438,o),
(379,400,o),
(379,332,cs),
(379,263,o),
(334,225,o),
(263,225,cs)
);
}
);
width = 525;
},
{
anchors = (
{
name = bottom;
pos = (253,-310);
},
{
name = top;
pos = (253,496);
}
);
layerId = "E93BD6B3-FA9D-4EFB-B4A0-6094DEE674CC";
shapes = (
{
closed = 1;
nodes = (
(379,-231,o),
(480,-176,o),
(480,-56,c),
(480,60,o),
(382,104,o),
(250,104,c),
(181,104,l),
(161,104,o),
(150,111,o),
(150,126,c),
(150,140,o),
(159,148,o),
(181,148,c),
(254,148,l),
(368,148,o),
(457,219,o),
(457,328,c),
(457,356,o),
(452,382,o),
(441,404,c),
(509,457,l),
(427,549,l),
(357,487,l),
(328,501,o),
(293,508,o),
(254,508,c),
(136,508,o),
(52,438,o),
(52,328,c),
(52,278,o),
(70,236,o),
(106,203,c),
(67,186,o),
(39,154,o),
(39,110,c),
(39,74,o),
(53,47,o),
(76,30,c),
(44,12,o),
(18,-20,o),
(18,-69,c),
(18,-163,o),
(98,-231,o),
(249,-231,c)
);
},
{
closed = 1;
nodes = (
(210,-111,o),
(158,-98,o),
(158,-59,c),
(158,-20,o),
(201,-6,o),
(248,-6,c),
(295,-6,o),
(340,-17,o),
(340,-57,c),
(340,-95,o),
(290,-111,o),
(250,-111,c)
);
},
{
closed = 1;
nodes = (
(217,259,o),
(179,278,o),
(177,325,c),
(177,370,o),
(210,391,o),
(254,391,c),
(298,391,o),
(331,370,o),
(331,325,c),
(331,286,o),
(295,259,o),
(254,259,c)
);
}
);
width = 506;
}
);
note = g;
unicode = 103;
},
{
glyphname = h;
kernRight = h;
lastChange = "2022-12-22 01:13:58 +0000";
layers = (
{
hints = (
{
horizontal = 1;
place = (380, 88);
place = (380, 88);
type = Stem;
},
{
place = (45, 108);
place = (45, 108);
type = Stem;
},
{
place = (404, 107);
place = (404, 107);
type = Stem;
}
);
layerId = m01;
shapes = (
{
closed = 1;
nodes = (
(172,0,l),
(172,275,ls),
(172,350,o),
(213,400,o),
(286,400,cs),
(359,400,o),
(398,350,o),
(398,275,cs),
(398,0,l),
(525,0,l),
(525,292,ls),
(525,432,o),
(443,508,o),
(329,508,cs),
(270,508,o),
(206,485,o),
(172,438,c),
(172,700,l),
(45,700,l),
(45,0,l)
);
}
);
width = 562;
},
{
hints = (
{
horizontal = 1;
place = (436, 72);
place = (436, 72);
type = Stem;
},
{
place = (69, 84);
place = (69, 84);
type = Stem;
},
{
place = (431, 83);
place = (431, 83);
type = Stem;
}
);
layerId = "E8FC3098-FD3B-4CCD-A487-BB9306939620";
shapes = (
{
closed = 1;
nodes = (
(153,0,l),
(153,257,ls),
(153,372,o),
(219,436,o),
(306,436,cs),
(389,436,o),
(431,384,o),
(431,281,cs),
(431,0,l),
(514,0,l),
(514,290,ls),
(514,438,o),
(439,508,o),
(324,508,cs),
(252,508,o),
(186,472,o),
(153,411,c),
(153,700,l),
(69,700,l),
(69,0,l)
);
}
);
width = 572;
},
{
hints = (
{
horizontal = 1;
place = (343, 99);
place = (343, 99);
type = Stem;
},
{
place = (29, 124);
place = (29, 124);
type = Stem;
},
{
place = (386, 123);
place = (386, 123);
type = Stem;
}
);
layerId = "E93BD6B3-FA9D-4EFB-B4A0-6094DEE674CC";
shapes = (
{
closed = 1;
nodes = (
(183,0,l),
(183,273,l),
(183,335,o),
(217,379,o),
(279,379,c),
(342,379,o),
(376,337,o),
(376,273,c),
(376,0,l),
(529,0,l),
(529,294,l),
(529,420,o),
(459,508,o),
(335,508,c),
(274,508,o),
(219,486,o),
(183,436,c),
(183,700,l),
(29,700,l),
(29,0,l)
);
}
);
width = 552;
}
);
note = h;
unicode = 104;
},
{
glyphname = hbar;
lastChange = "2022-12-22 01:13:58 +0000";
layers = (
{
layerId = "E8FC3098-FD3B-4CCD-A487-BB9306939620";
shapes = (
{
closed = 1;
nodes = (
(153,0,l),
(153,257,ls),
(153,372,o),
(219,436,o),
(306,436,cs),
(389,436,o),
(431,384,o),
(431,281,cs),
(431,0,l),
(514,0,l),
(514,290,ls),
(514,438,o),
(439,508,o),
(324,508,cs),
(252,508,o),
(186,472,o),
(153,411,c),
(153,700,l),
(69,700,l),
(69,0,l)
);
},
{
closed = 1;
nodes = (
(22,571,l),
(324,571,l),
(324,634,l),
(22,634,l)
);
}
);
width = 572;
},
{
layerId = m01;
shapes = (
{
closed = 1;
nodes = (
(172,0,l),
(172,275,ls),
(172,350,o),
(213,400,o),
(286,400,cs),
(359,400,o),
(398,350,o),
(398,275,cs),
(398,0,l),
(525,0,l),
(525,292,ls),
(525,432,o),
(443,508,o),
(329,508,cs),
(270,508,o),
(206,485,o),
(172,438,c),
(172,700,l),
(45,700,l),
(45,0,l)
);
},
{
closed = 1;
nodes = (
(6,558,l),
(329,558,l),
(329,648,l),
(6,648,l)
);
}
);
width = 562;
},
{
layerId = "E93BD6B3-FA9D-4EFB-B4A0-6094DEE674CC";
shapes = (
{
closed = 1;
nodes = (
(183,0,l),
(183,273,l),
(183,335,o),
(217,379,o),
(279,379,c),
(342,379,o),
(376,337,o),
(376,273,c),
(376,0,l),
(529,0,l),
(529,294,l),
(529,420,o),
(459,508,o),
(335,508,c),
(274,508,o),
(219,486,o),
(183,436,c),
(183,700,l),
(29,700,l),
(29,0,l)
);
},
{
closed = 1;
nodes = (
(-9,548,l),
(335,548,l),
(335,658,l),
(-9,658,l)
);
}
);
width = 552;
}
);
unicode = 295;
},
{
glyphname = i;
lastChange = "2022-12-23 00:30:09 +0000";
layers = (
{
anchors = (
{
name = bottom;
pos = (114,0);
}
);
hints = (
{
horizontal = 1;
place = (476, 50);
place = (476, 50);
type = Stem;
},
{
place = (34, 140);
place = (34, 140);
type = Stem;
}
);
layerId = m01;
shapes = (
{
closed = 1;
nodes = (
(161,560,o),
(197,597,o),
(197,643,cs),
(197,689,o),
(161,726,o),
(114,726,cs),
(68,726,o),
(31,689,o),
(31,643,cs),
(31,597,o),
(68,560,o),
(114,560,cs)
);
},
{
closed = 1;
nodes = (
(178,0,l),
(178,496,l),
(50,496,l),
(50,0,l)
);
}
);
width = 227;
},
{
anchors = (
{
name = bottom;
pos = (120,0);
}
);
hints = (
{
horizontal = 1;
place = (606, 114);
place = (606, 114);
type = Stem;
},
{
place = (62, 116);
place = (62, 116);
type = Stem;
},
{
place = (78, 84);
place = (78, 84);
type = Stem;
}
);
layerId = "E8FC3098-FD3B-4CCD-A487-BB9306939620";
shapes = (
{
closed = 1;
nodes = (
(152,606,o),
(178,631,o),
(178,664,cs),
(178,696,o),
(152,720,o),
(120,720,cs),
(87,720,o),
(62,696,o),
(62,664,cs),
(62,631,o),
(87,606,o),
(120,606,cs)
);
},
{
closed = 1;
nodes = (
(162,0,l),
(162,496,l),
(78,496,l),
(78,0,l)
);
}
);
width = 239;
},
{
anchors = (
{
name = bottom;
pos = (110,0);
}
);
hints = (
{
horizontal = 1;
place = (389, 7);
place = (389, 7);
type = Stem;
},
{
place = (5, 177);
place = (5, 177);
type = Stem;
}
);
layerId = "E93BD6B3-FA9D-4EFB-B4A0-6094DEE674CC";
shapes = (
{
closed = 1;
nodes = (
(164,540,o),
(205,583,o),
(205,635,cs),
(205,687,o),
(164,730,o),
(110,730,cs),
(58,730,o),
(15,687,o),
(15,635,cs),
(15,583,o),
(58,540,o),
(110,540,cs)
);
},
{
closed = 1;
nodes = (
(187,0,l),
(187,496,l),
(33,496,l),
(33,0,l)
);
}
);
width = 219;
}
);
note = i;
unicode = 105;
},
{
glyphname = idotless;
kernLeft = dotlessi;
lastChange = "2022-12-22 01:13:58 +0000";
layers = (
{
anchors = (
{
name = bottom;
pos = (110,0);
},
{
name = ogonek;
pos = (173,0);
},
{
name = top;
pos = (110,496);
}
);
hints = (
{
horizontal = 1;
place = (-20, 476);
place = (-20, 476);
type = Stem;
},
{
place = (45, 108);
place = (45, 108);
type = Stem;
}
);
layerId = m01;
shapes = (
{
closed = 1;
nodes = (
(173,0,l),
(173,496,l),
(45,496,l),
(45,0,l)
);
}
);
width = 219;
},
{
anchors = (
{
name = bottom;
pos = (111,0);
},
{
name = ogonek;
pos = (153,0);
},
{
name = top;
pos = (111,496);
}
);
hints = (
{
horizontal = 1;
place = (0, 496);
place = (0, 496);
type = Stem;
},
{
place = (69, 84);
place = (69, 84);
type = Stem;
}
);
layerId = "E8FC3098-FD3B-4CCD-A487-BB9306939620";
shapes = (
{
closed = 1;
nodes = (
(153,0,l),
(153,496,l),
(69,496,l),
(69,0,l)
);
}
);
width = 222;
},
{
anchors = (
{
name = bottom;
pos = (107,0);
},
{
name = ogonek;
pos = (183,0);
},
{
name = top;
pos = (107,496);
}
);
hints = (
{
horizontal = 1;
place = (-33, 463);
place = (-33, 463);
type = Stem;
},
{
place = (29, 124);
place = (29, 124);
type = Stem;
}
);
layerId = "E93BD6B3-FA9D-4EFB-B4A0-6094DEE674CC";
shapes = (
{
closed = 1;
nodes = (
(183,0,l),
(183,496,l),
(29,496,l),
(29,0,l)
);
}
);
width = 214;
}
);
note = dotlessi;
unicode = 305;
},
{
glyphname = j;
lastChange = "2022-12-22 01:13:58 +0000";
layers = (
{
hints = (
{
horizontal = 1;
place = (476, 50);
place = (476, 50);
type = Stem;
},
{
place = (-49, 225);
place = (-49, 225);
type = Stem;
}
);
layerId = m01;
shapes = (
{
closed = 1;
nodes = (
(10,-220,ls),
(108,-220,o),
(179,-179,o),
(179,-54,cs),
(179,496,l),
(51,496,l),
(51,-54,ls),
(51,-96,o),
(32,-111,o),
(-10,-111,cs),
(-37,-111,l),
(-37,-220,l)
);
},
{
closed = 1;
nodes = (
(162,560,o),
(199,597,o),
(199,643,cs),
(199,689,o),
(162,726,o),
(116,726,cs),
(69,726,o),
(33,689,o),
(33,643,cs),
(33,597,o),
(69,560,o),
(116,560,cs)
);
}
);
width = 228;
},
{
hints = (
{
horizontal = 1;
place = (-220, 72);
place = (-220, 72);
type = Stem;
},
{
horizontal = 1;
place = (606, 114);
place = (606, 114);
type = Stem;
},
{
place = (66, 115);
place = (66, 115);
type = Stem;
},
{
place = (-28, 193);
place = (-28, 193);
type = Stem;
},
{
place = (81, 84);
place = (81, 84);
type = Stem;
}
);
layerId = "E8FC3098-FD3B-4CCD-A487-BB9306939620";
shapes = (
{
closed = 1;
nodes = (
(24,-220,ls),
(116,-220,o),
(165,-178,o),
(165,-82,cs),
(165,496,l),
(81,496,l),
(81,-80,ls),
(81,-129,o),
(60,-148,o),
(11,-148,cs),
(-28,-148,l),
(-28,-220,l)
);
},
{
closed = 1;
nodes = (
(156,606,o),
(181,631,o),
(181,664,cs),
(181,696,o),
(156,720,o),
(124,720,cs),
(92,720,o),
(66,696,o),
(66,664,cs),
(66,631,o),
(92,606,o),
(124,606,cs)
);
}
);
width = 242;
},
{
hints = (
{
horizontal = 1;
place = (389, 7);
place = (389, 7);
type = Stem;
},
{
place = (65, 327);
place = (65, 327);
type = Stem;
}
);
layerId = "E93BD6B3-FA9D-4EFB-B4A0-6094DEE674CC";
shapes = (
{
closed = 1;
nodes = (
(10,-220,l),
(126,-220,o),
(188,-165,o),
(188,-45,c),
(188,496,l),
(34,496,l),
(34,-47,l),
(34,-78,o),
(18,-89,o),
(-13,-89,c),
(-50,-89,l),
(-50,-220,l)
);
},
{
closed = 1;
nodes = (
(163,540,o),
(206,583,o),
(206,635,cs),
(206,687,o),
(163,730,o),
(111,730,cs),
(57,730,o),
(16,687,o),
(16,635,cs),
(16,583,o),
(57,540,o),
(111,540,cs)
);
}
);
width = 218.66667;
}
);
note = j;
unicode = 106;
},
{
glyphname = jdotless;
lastChange = "2022-12-22 01:13:58 +0000";
layers = (
{
anchors = (
{
name = bottom;
pos = (114,-310);
},
{
name = top;
pos = (114,496);
}
);
hints = (
{
horizontal = 1;
place = (476, 50);
place = (476, 50);
type = Stem;
},
{
place = (-49, 225);
place = (-49, 225);
type = Stem;
}
);
layerId = m01;
shapes = (
{
closed = 1;
nodes = (
(10,-220,ls),
(108,-220,o),
(179,-179,o),
(179,-54,cs),
(179,496,l),
(51,496,l),
(51,-54,ls),
(51,-96,o),
(32,-111,o),
(-10,-111,cs),
(-37,-111,l),
(-37,-220,l)
);
}
);
width = 228;
},
{
anchors = (
{
name = bottom;
pos = (121,-310);
},
{
name = top;
pos = (121,496);
}
);
hints = (
{
horizontal = 1;
place = (-220, 72);
place = (-220, 72);
type = Stem;
},
{
horizontal = 1;
place = (606, 114);
place = (606, 114);
type = Stem;
},
{
place = (66, 115);
place = (66, 115);
type = Stem;
},
{
place = (-28, 193);
place = (-28, 193);
type = Stem;
},
{
place = (81, 84);
place = (81, 84);
type = Stem;
}
);
layerId = "E8FC3098-FD3B-4CCD-A487-BB9306939620";
shapes = (
{
closed = 1;
nodes = (
(24,-220,ls),
(116,-220,o),
(165,-178,o),
(165,-82,cs),
(165,496,l),
(81,496,l),
(81,-80,ls),
(81,-129,o),
(60,-148,o),
(11,-148,cs),
(-28,-148,l),
(-28,-220,l)
);
}
);
width = 242;
},
{
anchors = (
{
name = bottom;
pos = (109,-310);
},
{
name = top;
pos = (109,496);
}
);
hints = (
{
horizontal = 1;
place = (389, 7);
place = (389, 7);
type = Stem;
},
{
place = (65, 327);
place = (65, 327);
type = Stem;
}
);
layerId = "E93BD6B3-FA9D-4EFB-B4A0-6094DEE674CC";
shapes = (
{
closed = 1;
nodes = (
(10,-220,l),
(126,-220,o),
(188,-165,o),
(188,-45,c),
(188,496,l),
(34,496,l),
(34,-47,l),
(34,-78,o),
(18,-89,o),
(-13,-89,c),
(-50,-89,l),
(-50,-220,l)
);
}
);
width = 218.66667;
}
);
note = j;
unicode = 567;
},
{
glyphname = k;
kernRight = k;
lastChange = "2022-12-22 01:13:58 +0000";
layers = (
{
anchors = (
{
name = bottom;
pos = (262,0);
},
{
name = top;
pos = (262,992);
}
);
hints = (
{
horizontal = 1;
place = (-20, 700);
place = (-20, 700);
type = Stem;
},
{
place = (45, 108);
place = (45, 108);
type = Stem;
}
);
layerId = m01;
shapes = (
{
closed = 1;
nodes = (
(173,0,l),
(173,211,l),
(341,0,l),
(506,0,l),
(285,247,l),
(503,496,l),
(338,496,l),
(173,286,l),
(172,700,l),
(45,700,l),
(45,0,l)
);
}
);
width = 523;
},
{
anchors = (
{
name = bottom;
pos = (252,0);
},
{
name = top;
pos = (252,992);
}
);
hints = (
{
horizontal = 1;
place = (0, 720);
place = (0, 720);
type = Stem;
},
{
place = (69, 84);
place = (69, 84);
type = Stem;
}
);
layerId = "E8FC3098-FD3B-4CCD-A487-BB9306939620";
shapes = (
{
closed = 1;
nodes = (
(153,0,l),
(153,257,l),
(380,0,l),
(487,0,l),
(239,272,l),
(459,496,l),
(356,496,l),
(153,287,l),
(153,700,l),
(69,700,l),
(69,0,l)
);
}
);
width = 504;
},
{
anchors = (
{
name = bottom;
pos = (260,0);
},
{
name = top;
pos = (260,992);
}
);
hints = (
{
horizontal = 1;
place = (-33, 687);
place = (-33, 687);
type = Stem;
},
{
place = (29, 124);
place = (29, 124);
type = Stem;
}
);
layerId = "E93BD6B3-FA9D-4EFB-B4A0-6094DEE674CC";
shapes = (
{
closed = 1;
nodes = (
(183,0,l),
(183,211,l),
(336,0,l),
(527,0,l),
(316,250,l),
(520,496,l),
(330,496,l),
(183,298,l),
(183,700,l),
(29,700,l),
(29,0,l)
);
}
);
width = 519;
}
);
note = k;
unicode = 107;
},
{
glyphname = l;
lastChange = "2022-12-22 01:13:58 +0000";
layers = (
{
anchors = (
{
name = bottom;
pos = (110,0);
},
{
name = center;
pos = (110,496);
},
{
name = top;
pos = (110,700);
},
{
name = topright;
pos = (202,992);
}
);
hints = (
{
horizontal = 1;
place = (-20, 700);
place = (-20, 700);
type = Stem;
},
{
place = (45, 108);
place = (45, 108);
type = Stem;
}
);
layerId = m01;
shapes = (
{
closed = 1;
nodes = (
(173,0,l),
(173,700,l),
(45,700,l),
(45,0,l)
);
}
);
width = 219;
},
{
anchors = (
{
name = bottom;
pos = (111,0);
},
{
name = center;
pos = (111,496);
},
{
name = top;
pos = (111,700);
},
{
name = topright;
pos = (202,992);
}
);
hints = (
{
horizontal = 1;
place = (0, 720);
place = (0, 720);
type = Stem;
},
{
place = (69, 84);
place = (69, 84);
type = Stem;
}
);
layerId = "E8FC3098-FD3B-4CCD-A487-BB9306939620";
shapes = (
{
closed = 1;
nodes = (
(153,0,l),
(153,700,l),
(69,700,l),
(69,0,l)
);
}
);
width = 222;
},
{
anchors = (
{
name = bottom;
pos = (109,0);
},
{
name = center;
pos = (109,496);
},
{
name = top;
pos = (109,700);
},
{
name = topright;
pos = (214,992);
}
);
hints = (
{
horizontal = 1;
place = (-33, 687);
place = (-33, 687);
type = Stem;
},
{
place = (29, 124);
place = (29, 124);
type = Stem;
}
);
layerId = "E93BD6B3-FA9D-4EFB-B4A0-6094DEE674CC";
shapes = (
{
closed = 1;
nodes = (
(185,0,l),
(185,700,l),
(31,700,l),
(31,0,l)
);
}
);
width = 217;
}
);
note = l;
unicode = 108;
},
{
glyphname = ldot;
lastChange = "2022-12-23 00:48:49 +0000";
layers = (
{
hints = (
{
horizontal = 1;
place = (284, 104);
place = (284, 104);
type = Stem;
},
{
place = (50, 108);
place = (50, 108);
type = Stem;
},
{
place = (220, 104);
place = (220, 104);
type = Stem;
}
);
layerId = m01;
shapes = (
{
closed = 1;
nodes = (
(178,0,l),
(178,700,l),
(50,700,l),
(50,0,l)
);
},
{
closed = 1;
nodes = (
(317,304,o),
(344,330,o),
(344,365,cs),
(344,400,o),
(317,428,o),
(282,428,cs),
(247,428,o),
(220,400,o),
(220,365,cs),
(220,330,o),
(247,304,o),
(282,304,cs)
);
}
);
width = 354;
},
{
hints = (
{
horizontal = 1;
place = (318, 99);
place = (318, 99);
type = Stem;
},
{
place = (78, 84);
place = (78, 84);
type = Stem;
},
{
place = (216, 100);
place = (216, 100);
type = Stem;
}
);
layerId = "E8FC3098-FD3B-4CCD-A487-BB9306939620";
shapes = (
{
closed = 1;
nodes = (
(162,0,l),
(162,700,l),
(78,700,l),
(78,0,l)
);
},
{
closed = 1;
nodes = (
(294,318,o),
(316,340,o),
(316,367,cs),
(316,395,o),
(294,417,o),
(266,417,cs),
(238,417,o),
(216,395,o),
(216,367,cs),
(216,340,o),
(238,318,o),
(266,318,cs)
);
}
);
width = 346;
},
{
hints = (
{
horizontal = 1;
place = (261, 107);
place = (261, 107);
type = Stem;
},
{
place = (31, 124);
place = (31, 124);
type = Stem;
},
{
place = (223, 107);
place = (223, 107);
type = Stem;
}
);
layerId = "E93BD6B3-FA9D-4EFB-B4A0-6094DEE674CC";
shapes = (
{
closed = 1;
nodes = (
(187,0,l),
(187,700,l),
(33,700,l),
(33,0,l)
);
},
{
closed = 1;
nodes = (
(332,295,o),
(363,323,o),
(363,364,cs),
(363,403,o),
(332,435,o),
(293,435,cs),
(253,435,o),
(223,403,o),
(223,364,cs),
(223,323,o),
(253,295,o),
(293,295,cs)
);
}
);
width = 359;
}
);
note = ldot;
unicode = 320;
},
{
glyphname = lslash;
lastChange = "2022-12-22 01:13:58 +0000";
layers = (
{
hints = (
{
horizontal = 1;
place = (-20, 700);
place = (-20, 700);
type = Stem;
},
{
place = (60, 108);
place = (60, 108);
type = Stem;
}
);
layerId = m01;
shapes = (
{
closed = 1;
nodes = (
(188,0,l),
(188,362,l),
(258,386,l),
(258,493,l),
(188,468,l),
(188,700,l),
(60,700,l),
(60,424,l),
(-9,400,l),
(-9,293,l),
(60,317,l),
(60,0,l)
);
}
);
width = 249;
},
{
hints = (
{
horizontal = 1;
place = (0, 720);
place = (0, 720);
type = Stem;
},
{
place = (83, 84);
place = (83, 84);
type = Stem;
}
);
layerId = "E8FC3098-FD3B-4CCD-A487-BB9306939620";
shapes = (
{
closed = 1;
nodes = (
(167,0,l),
(167,396,l),
(242,426,l),
(242,494,l),
(167,463,l),
(167,700,l),
(83,700,l),
(83,429,l),
(9,398,l),
(9,331,l),
(83,361,l),
(83,0,l)
);
}
);
width = 251;
},
{
hints = (
{
horizontal = 1;
place = (-33, 687);
place = (-33, 687);
type = Stem;
},
{
place = (45, 124);
place = (45, 124);
type = Stem;
}
);
layerId = "E93BD6B3-FA9D-4EFB-B4A0-6094DEE674CC";
shapes = (
{
closed = 1;
nodes = (
(201,0,l),
(201,339,l),
(269,359,l),
(269,492,l),
(201,471,l),
(201,700,l),
(47,700,l),
(47,421,l),
(-21,401,l),
(-21,268,l),
(47,288,l),
(47,0,l)
);
}
);
width = 247.66667;
}
);
note = lslash;
unicode = 322;
},
{
glyphname = m;
kernLeft = dotlessi;
kernRight = h;
lastChange = "2022-12-22 01:13:58 +0000";
layers = (
{
hints = (
{
horizontal = 1;
place = (380, 88);
place = (380, 88);
type = Stem;
},
{
place = (45, 108);
place = (45, 108);
type = Stem;
},
{
place = (389, 108);
place = (389, 108);
type = Stem;
},
{
place = (732, 108);
place = (732, 108);
type = Stem;
},
{
horizontal = 1;
place = (380, 76);
place = (380, 76);
type = Stem;
}
);
layerId = m01;
shapes = (
{
closed = 1;
nodes = (
(172,0,l),
(172,275,ls),
(172,362,o),
(226,397,o),
(286,397,cs),
(356,397,o),
(398,351,o),
(398,275,cs),
(398,0,l),
(525,0,l),
(525,275,ls),
(525,349,o),
(564,397,o),
(638,397,cs),
(712,397,o),
(750,349,o),
(750,275,cs),
(750,0,l),
(877,1,l),
(877,293,ls),
(877,437,o),
(785,508,o),
(671,508,cs),
(600,508,o),
(531,472,o),
(498,411,c),
(462,477,o),
(394,508,o),
(320,508,cs),
(262,508,o),
(205,485,o),
(172,439,c),
(172,496,l),
(45,496,l),
(45,0,l)
);
}
);
width = 914;
},
{
hints = (
{
horizontal = 1;
place = (436, 72);
place = (436, 72);
type = Stem;
},
{
place = (69, 84);
place = (69, 84);
type = Stem;
},
{
place = (411, 84);
place = (411, 84);
type = Stem;
},
{
place = (754, 83);
place = (754, 83);
type = Stem;
},
{
place = (69, 79);
place = (69, 79);
type = Stem;
},
{
horizontal = 1;
place = (436, 60);
place = (436, 60);
type = Stem;
}
);
layerId = "E8FC3098-FD3B-4CCD-A487-BB9306939620";
shapes = (
{
closed = 1;
nodes = (
(153,0,l),
(153,257,ls),
(153,372,o),
(212,436,o),
(291,436,cs),
(368,436,o),
(411,384,o),
(411,281,cs),
(411,0,l),
(495,0,l),
(495,257,ls),
(495,372,o),
(554,436,o),
(634,436,cs),
(711,436,o),
(754,384,o),
(754,281,cs),
(754,0,l),
(837,0,l),
(837,290,ls),
(837,438,o),
(761,508,o),
(642,508,cs),
(571,508,o),
(507,471,o),
(472,411,c),
(441,476,o),
(384,508,o),
(305,508,cs),
(238,508,o),
(183,477,o),
(151,424,c),
(145,496,l),
(69,496,l),
(69,0,l)
);
}
);
width = 895;
},
{
hints = (
{
horizontal = 1;
place = (343, 99);
place = (343, 99);
type = Stem;
},
{
place = (29, 124);
place = (29, 124);
type = Stem;
},
{
place = (374, 124);
place = (374, 124);
type = Stem;
},
{
place = (717, 125);
place = (717, 125);
type = Stem;
},
{
horizontal = 1;
place = (343, 87);
place = (343, 87);
type = Stem;
}
);
layerId = "E93BD6B3-FA9D-4EFB-B4A0-6094DEE674CC";
shapes = (
{
closed = 1;
nodes = (
(183,0,l),
(183,273,l),
(183,337,o),
(217,375,o),
(279,375,c),
(342,375,o),
(375,335,o),
(375,273,c),
(375,0,l),
(529,0,l),
(529,273,l),
(529,336,o),
(562,375,o),
(625,375,c),
(687,375,o),
(721,337,o),
(721,273,c),
(721,0,l),
(874,0,l),
(874,294,l),
(874,434,o),
(790,508,o),
(670,508,c),
(594,508,o),
(533,465,o),
(501,414,c),
(465,478,o),
(402,508,o),
(330,508,c),
(270,508,o),
(217,485,o),
(183,440,c),
(183,496,l),
(29,496,l),
(29,0,l)
);
}
);
width = 897;
}
);
note = m;
unicode = 109;
},
{
glyphname = n;
kernLeft = dotlessi;
kernRight = h;
lastChange = "2022-12-22 01:13:58 +0000";
layers = (
{
anchors = (
{
name = bottom;
pos = (289,0);
},
{
name = top;
pos = (286,496);
}
);
hints = (
{
horizontal = 1;
place = (380, 88);
place = (380, 88);
type = Stem;
},
{
place = (45, 108);
place = (45, 108);
type = Stem;
},
{
place = (403, 108);
place = (403, 108);
type = Stem;
},
{
place = (45, 98);
place = (45, 98);
type = Stem;
},
{
horizontal = 1;
place = (380, 76);
place = (380, 76);
type = Stem;
}
);
layerId = m01;
shapes = (
{
closed = 1;
nodes = (
(172,0,l),
(172,275,ls),
(172,350,o),
(213,400,o),
(286,400,cs),
(359,400,o),
(398,350,o),
(398,275,cs),
(398,0,l),
(525,0,l),
(525,292,ls),
(525,432,o),
(443,508,o),
(329,508,cs),
(270,508,o),
(206,485,o),
(172,438,c),
(172,496,l),
(45,496,l),
(45,0,l)
);
}
);
width = 562;
},
{
anchors = (
{
name = bottom;
pos = (300,0);
},
{
name = top;
pos = (306,496);
}
);
hints = (
{
horizontal = 1;
place = (436, 72);
place = (436, 72);
type = Stem;
},
{
place = (69, 84);
place = (69, 84);
type = Stem;
},
{
place = (430, 84);
place = (430, 84);
type = Stem;
},
{
place = (69, 78.5);
place = (69, 78.5);
type = Stem;
}
);
layerId = "E8FC3098-FD3B-4CCD-A487-BB9306939620";
shapes = (
{
closed = 1;
nodes = (
(153,0,l),
(153,257,ls),
(153,372,o),
(217,436,o),
(302,436,cs),
(387,436,o),
(430,384,o),
(430,281,cs),
(430,0,l),
(514,0,l),
(514,290,ls),
(514,438,o),
(438,508,o),
(321,508,cs),
(245,508,o),
(182,470,o),
(150,407,c),
(145,496,l),
(69,496,l),
(69,0,l)
);
}
);
width = 572;
},
{
anchors = (
{
name = bottom;
pos = (283,0);
},
{
name = top;
pos = (279,496);
}
);
hints = (
{
horizontal = 1;
place = (343, 99);
place = (343, 99);
type = Stem;
},
{
place = (29, 128);
place = (29, 128);
type = Stem;
},
{
place = (626, 124);
place = (626, 124);
type = Stem;
},
{
place = (75, 163);
place = (75, 163);
type = Stem;
},
{
horizontal = 1;
place = (347, 71);
place = (347, 71);
type = Stem;
}
);
layerId = "E93BD6B3-FA9D-4EFB-B4A0-6094DEE674CC";
shapes = (
{
closed = 1;
nodes = (
(183,0,l),
(183,273,l),
(183,335,o),
(217,379,o),
(279,379,c),
(342,379,o),
(376,337,o),
(376,273,c),
(376,0,l),
(529,0,l),
(529,294,l),
(529,420,o),
(459,508,o),
(335,508,c),
(274,508,o),
(219,486,o),
(183,436,c),
(183,496,l),
(29,496,l),
(29,0,l)
);
}
);
width = 552;
}
);
note = n;
unicode = 110;
},
{
glyphname = eng;
kernLeft = dotlessi;
kernRight = h;
lastChange = "2022-12-22 01:13:58 +0000";
layers = (
{
hints = (
{
horizontal = 1;
place = (380, 88);
place = (380, 88);
type = Stem;
},
{
place = (45, 108);
place = (45, 108);
type = Stem;
},
{
place = (403, 108);
place = (403, 108);
type = Stem;
},
{
place = (45, 98);
place = (45, 98);
type = Stem;
},
{
horizontal = 1;
place = (380, 76);
place = (380, 76);
type = Stem;
}
);
layerId = m01;
shapes = (
{
closed = 1;
nodes = (
(172,0,l),
(172,275,ls),
(172,350,o),
(213,400,o),
(286,400,cs),
(359,400,o),
(398,350,o),
(398,275,cs),
(398,-54,ls),
(398,-96,o),
(379,-111,o),
(337,-111,cs),
(309,-111,l),
(309,-220,l),
(356,-220,ls),
(454,-220,o),
(525,-179,o),
(525,-54,cs),
(525,292,ls),
(525,432,o),
(443,508,o),
(329,508,cs),
(270,508,o),
(206,485,o),
(172,438,c),
(172,496,l),
(45,496,l),
(45,0,l)
);
}
);
width = 562;
},
{
hints = (
{
horizontal = 1;
place = (436, 72);
place = (436, 72);
type = Stem;
},
{
place = (69, 84);
place = (69, 84);
type = Stem;
},
{
place = (430, 84);
place = (430, 84);
type = Stem;
},
{
place = (69, 78.5);
place = (69, 78.5);
type = Stem;
}
);
layerId = "E8FC3098-FD3B-4CCD-A487-BB9306939620";
shapes = (
{
closed = 1;
nodes = (
(153,0,l),
(153,257,ls),
(153,372,o),
(217,436,o),
(302,436,cs),
(387,436,o),
(430,384,o),
(430,281,cs),
(430,-80,ls),
(430,-129,o),
(409,-148,o),
(360,-148,cs),
(321,-148,l),
(321,-220,l),
(373,-220,ls),
(465,-220,o),
(514,-178,o),
(514,-82,cs),
(514,290,ls),
(514,438,o),
(438,508,o),
(321,508,cs),
(245,508,o),
(182,470,o),
(150,407,c),
(145,496,l),
(69,496,l),
(69,0,l)
);
}
);
width = 572;
},
{
hints = (
{
horizontal = 1;
place = (343, 99);
place = (343, 99);
type = Stem;
},
{
place = (29, 128);
place = (29, 128);
type = Stem;
},
{
place = (626, 124);
place = (626, 124);
type = Stem;
},
{
place = (75, 163);
place = (75, 163);
type = Stem;
},
{
horizontal = 1;
place = (347, 71);
place = (347, 71);
type = Stem;
}
);
layerId = "E93BD6B3-FA9D-4EFB-B4A0-6094DEE674CC";
shapes = (
{
closed = 1;
nodes = (
(183,0,l),
(183,273,ls),
(183,335,o),
(217,379,o),
(279,379,cs),
(342,379,o),
(376,337,o),
(376,273,cs),
(376,-47,ls),
(376,-78,o),
(360,-89,o),
(329,-89,cs),
(291,-89,l),
(291,-220,l),
(351,-220,ls),
(467,-220,o),
(529,-165,o),
(529,-45,cs),
(529,294,ls),
(529,420,o),
(459,508,o),
(335,508,cs),
(274,508,o),
(219,486,o),
(183,436,c),
(183,496,l),
(29,496,l),
(29,0,l)
);
}
);
width = 552;
}
);
note = n;
unicode = 331;
},
{
glyphname = o;
kernLeft = c;
kernRight = b;
lastChange = "2022-12-22 01:13:58 +0000";
layers = (
{
anchors = (
{
name = bottom;
pos = (288,0);
},
{
name = center;
pos = (288,248);
},
{
name = ogonek;
pos = (396,10);
},
{
name = top;
pos = (288,496);
},
{
name = topright;
pos = (556,496);
}
);
hints = (
{
horizontal = 1;
place = (-32, 91);
place = (-32, 91);
type = Stem;
},
{
horizontal = 1;
place = (377, 91);
place = (377, 91);
type = Stem;
},
{
place = (29, 111);
place = (29, 111);
type = Stem;
},
{
place = (407, 110);
place = (407, 110);
type = Stem;
}
);
layerId = m01;
shapes = (
{
closed = 1;
nodes = (
(439,-12,o),
(547,97,o),
(547,248,cs),
(547,405,o),
(435,508,o),
(288,508,cs),
(146,508,o),
(29,410,o),
(29,248,cs),
(29,93,o),
(135,-12,o),
(284,-12,cs)
);
},
{
closed = 1;
nodes = (
(213,99,o),
(158,153,o),
(158,248,cs),
(158,332,o),
(204,397,o),
(286,397,cs),
(369,397,o),
(416,333,o),
(416,248,cs),
(416,139,o),
(343,99,o),
(284,99,cs)
);
}
);
width = 576;
},
{
anchors = (
{
name = bottom;
pos = (302,0);
},
{
name = center;
pos = (302,248);
},
{
name = ogonek;
pos = (408,10);
},
{
name = top;
pos = (302,496);
},
{
name = topright;
pos = (584,496);
}
);
hints = (
{
horizontal = 1;
place = (-12, 72);
place = (-12, 72);
type = Stem;
},
{
horizontal = 1;
place = (436, 72);
place = (436, 72);
type = Stem;
},
{
place = (48, 86);
place = (48, 86);
type = Stem;
},
{
place = (458, 86);
place = (458, 86);
type = Stem;
}
);
layerId = "E8FC3098-FD3B-4CCD-A487-BB9306939620";
shapes = (
{
closed = 1;
nodes = (
(448,-12,o),
(556,96,o),
(556,249,cs),
(556,415,o),
(440,508,o),
(302,508,cs),
(157,508,o),
(48,407,o),
(48,249,cs),
(48,82,o),
(161,-12,o),
(298,-12,cs)
);
},
{
closed = 1;
nodes = (
(216,61,o),
(133,117,o),
(133,249,cs),
(133,352,o),
(190,435,o),
(301,435,cs),
(408,435,o),
(471,356,o),
(471,249,cs),
(471,135,o),
(396,61,o),
(298,61,cs)
);
}
);
width = 604;
},
{
anchors = (
{
name = bottom;
pos = (279,0);
},
{
name = center;
pos = (279,248);
},
{
name = ogonek;
pos = (390,10);
},
{
name = top;
pos = (279,496);
},
{
name = topright;
pos = (538,496);
}
);
hints = (
{
horizontal = 1;
place = (-45, 104);
place = (-45, 104);
type = Stem;
},
{
horizontal = 1;
place = (338, 104);
place = (338, 104);
type = Stem;
},
{
place = (16, 128);
place = (16, 128);
type = Stem;
},
{
place = (373, 126);
place = (373, 126);
type = Stem;
}
);
layerId = "E93BD6B3-FA9D-4EFB-B4A0-6094DEE674CC";
shapes = (
{
closed = 1;
nodes = (
(427,-12,o),
(542,90,o),
(542,248,c),
(542,399,o),
(436,508,o),
(279,508,c),
(130,508,o),
(16,405,o),
(16,248,c),
(16,82,o),
(134,-12,o),
(277,-12,c)
);
},
{
closed = 1;
nodes = (
(209,122,o),
(174,179,o),
(174,248,c),
(174,331,o),
(220,374,o),
(279,374,c),
(329,374,o),
(384,339,o),
(384,248,c),
(384,155,o),
(326,122,o),
(277,122,c)
);
}
);
width = 558;
}
);
note = o;
unicode = 111;
},
{
glyphname = oslash;
lastChange = "2022-12-22 01:13:58 +0000";
layers = (
{
hints = (
{
horizontal = 1;
place = (-20, 58);
place = (-20, 58);
type = Stem;
},
{
horizontal = 1;
place = (388, 80);
place = (388, 80);
type = Stem;
},
{
place = (20, 102);
place = (20, 102);
type = Stem;
},
{
place = (406, 102);
place = (406, 102);
type = Stem;
},
{
horizontal = 1;
place = (-32, 80);
place = (-32, 80);
type = Stem;
},
{
horizontal = 1;
place = (398, 58);
place = (398, 58);
type = Stem;
}
);
layerId = m01;
shapes = (
{
closed = 1;
nodes = (
(418,-12,o),
(528,95,o),
(528,248,cs),
(528,316,o),
(507,374,o),
(471,418,c),
(538,496,l),
(437,496,l),
(414,469,l),
(373,495,o),
(326,508,o),
(274,508,cs),
(131,508,o),
(20,403,o),
(20,248,cs),
(20,180,o),
(41,122,o),
(77,78,c),
(10,0,l),
(111,0,l),
(134,27,l),
(175,1,o),
(222,-12,o),
(273,-12,cs)
);
},
{
closed = 1;
nodes = (
(247,88,o),
(224,95,o),
(204,108,c),
(392,327,l),
(401,304,o),
(406,277,o),
(406,248,cs),
(406,141,o),
(345,88,o),
(273,88,cs)
);
},
{
closed = 1;
nodes = (
(147,192,o),
(142,218,o),
(142,248,cs),
(142,355,o),
(203,408,o),
(274,408,cs),
(300,408,o),
(323,401,o),
(344,388,c),
(156,169,l)
);
}
);
width = 548;
},
{
hints = (
{
horizontal = 1;
place = (-12, 70);
place = (-12, 70);
type = Stem;
},
{
horizontal = 1;
place = (438, 70);
place = (438, 70);
type = Stem;
},
{
place = (50, 84);
place = (50, 84);
type = Stem;
},
{
place = (462, 84);
place = (462, 84);
type = Stem;
}
);
layerId = "E8FC3098-FD3B-4CCD-A487-BB9306939620";
shapes = (
{
closed = 1;
nodes = (
(447,-12,o),
(551,94,o),
(551,248,cs),
(551,319,o),
(529,378,o),
(493,422,c),
(558,496,l),
(479,496,l),
(450,463,l),
(408,493,o),
(359,508,o),
(304,508,cs),
(164,508,o),
(55,406,o),
(55,248,cs),
(55,177,o),
(76,118,o),
(112,74,c),
(48,0,l),
(128,0,l),
(156,33,l),
(198,3,o),
(247,-12,o),
(302,-12,cs)
);
},
{
closed = 1;
nodes = (
(265,58,o),
(233,69,o),
(205,90,c),
(440,360,l),
(456,331,o),
(467,293,o),
(467,248,cs),
(467,143,o),
(407,58,o),
(302,58,cs)
);
},
{
closed = 1;
nodes = (
(149,165,o),
(139,203,o),
(139,248,cs),
(139,351,o),
(193,438,o),
(304,438,cs),
(341,438,o),
(373,427,o),
(400,406,c),
(166,136,l)
);
}
);
width = 601;
},
{
layerId = "E93BD6B3-FA9D-4EFB-B4A0-6094DEE674CC";
shapes = (
{
closed = 1;
nodes = (
(427,-12,o),
(539,92,o),
(539,248,cs),
(539,317,o),
(518,376,o),
(478,423,c),
(545,496,l),
(461,496,l),
(432,464,l),
(388,493,o),
(336,508,o),
(276,508,cs),
(119,508,o),
(13,399,o),
(13,248,cs),
(13,178,o),
(34,119,o),
(74,72,c),
(8,0,l),
(92,0,l),
(120,31,l),
(164,2,o),
(216,-12,o),
(274,-12,cs)
);
},
{
closed = 1;
nodes = (
(253,122,o),
(234,128,o),
(218,138,c),
(371,306,l),
(378,289,o),
(381,270,o),
(381,248,cs),
(381,155,o),
(323,122,o),
(274,122,cs)
);
},
{
closed = 1;
nodes = (
(174,206,o),
(171,226,o),
(171,248,cs),
(171,331,o),
(217,374,o),
(276,374,cs),
(298,374,o),
(318,368,o),
(334,356,c),
(181,189,l)
);
}
);
width = 553;
}
);
note = oslash;
unicode = 248;
},
{
glyphname = oe;
kernLeft = c;
kernRight = ae;
lastChange = "2022-12-22 01:13:58 +0000";
layers = (
{
hints = (
{
horizontal = 1;
place = (-32, 91);
place = (-32, 91);
type = Stem;
},
{
horizontal = 1;
place = (197, 60);
place = (197, 60);
type = Stem;
},
{
horizontal = 1;
place = (384, 84);
place = (384, 84);
type = Stem;
},
{
place = (29, 111);
place = (29, 111);
type = Stem;
},
{
place = (407, 106);
place = (407, 106);
type = Stem;
},
{
place = (783, 109);
place = (783, 109);
type = Stem;
},
{
horizontal = 1;
place = (-32, 85);
place = (-32, 85);
type = Stem;
},
{
horizontal = 1;
place = (377, 91);
place = (377, 91);
type = Stem;
}
);
layerId = m01;
shapes = (
{
closed = 1;
nodes = (
(362,-12,o),
(426,21,o),
(467,77,c),
(511,21,o),
(580,-12,o),
(664,-12,cs),
(793,-12,o),
(879,72,o),
(903,170,c),
(776,170,l),
(759,125,o),
(720,93,o),
(663,93,cs),
(594,93,o),
(540,138,o),
(533,217,c),
(910,217,l),
(911,234,o),
(912,250,o),
(912,265,cs),
(912,310,o),
(902,352,o),
(881,389,cs),
(839,463,o),
(763,508,o),
(664,508,cs),
(580,508,o),
(511,474,o),
(468,418,c),
(427,475,o),
(363,508,o),
(284,508,cs),
(236,508,o),
(193,497,o),
(155,475,cs),
(78,431,o),
(29,351,o),
(29,248,cs),
(29,197,o),
(40,152,o),
(63,113,cs),
(107,35,o),
(187,-12,o),
(283,-12,cs)
);
},
{
closed = 1;
nodes = (
(216,99,o),
(160,149,o),
(160,248,cs),
(160,347,o),
(216,397,o),
(284,397,cs),
(349,397,o),
(407,347,o),
(407,248,cs),
(407,149,o),
(350,99,o),
(283,99,cs)
);
},
{
closed = 1;
nodes = (
(548,368,o),
(601,404,o),
(664,404,cs),
(729,404,o),
(779,362,o),
(783,297,c),
(537,297,l)
);
}
);
width = 935;
},
{
hints = (
{
horizontal = 1;
place = (-12, 72);
place = (-12, 72);
type = Stem;
},
{
horizontal = 1;
place = (229, 65);
place = (229, 65);
type = Stem;
},
{
horizontal = 1;
place = (437, 71);
place = (437, 71);
type = Stem;
},
{
place = (48, 86);
place = (48, 86);
type = Stem;
},
{
place = (458, 84);
place = (458, 84);
type = Stem;
},
{
place = (854, 83);
place = (854, 83);
type = Stem;
},
{
horizontal = 1;
place = (-12, 71);
place = (-12, 71);
type = Stem;
},
{
place = (458, 82);
place = (458, 82);
type = Stem;
},
{
horizontal = 1;
place = (436, 72);
place = (436, 72);
type = Stem;
}
);
layerId = "E8FC3098-FD3B-4CCD-A487-BB9306939620";
shapes = (
{
closed = 1;
nodes = (
(386,-12,o),
(457,30,o),
(497,102,c),
(538,30,o),
(611,-12,o),
(702,-12,cs),
(825,-12,o),
(905,63,o),
(929,163,c),
(848,163,l),
(827,99,o),
(777,59,o),
(702,59,cs),
(612,59,o),
(545,127,o),
(540,229,c),
(935,229,l),
(936,248,o),
(937,261,o),
(937,276,cs),
(937,317,o),
(928,355,o),
(909,390,cs),
(871,461,o),
(800,508,o),
(704,508,cs),
(611,508,o),
(537,466,o),
(496,394,c),
(457,467,o),
(386,508,o),
(297,508,cs),
(250,508,o),
(208,497,o),
(171,476,cs),
(95,433,o),
(48,353,o),
(48,248,cs),
(48,195,o),
(59,150,o),
(81,111,cs),
(124,33,o),
(202,-12,o),
(295,-12,cs)
);
},
{
closed = 1;
nodes = (
(199,60,o),
(134,139,o),
(134,248,cs),
(134,349,o),
(190,436,o),
(297,436,cs),
(391,436,o),
(458,361,o),
(458,248,cs),
(458,147,o),
(402,60,o),
(295,60,cs)
);
},
{
closed = 1;
nodes = (
(550,387,o),
(621,437,o),
(701,437,cs),
(786,437,o),
(850,383,o),
(854,294,c),
(542,294,l)
);
}
);
width = 979;
},
{
hints = (
{
horizontal = 1;
place = (-45, 104);
place = (-45, 104);
type = Stem;
},
{
horizontal = 1;
place = (176, 57);
place = (176, 57);
type = Stem;
},
{
horizontal = 1;
place = (349, 93);
place = (349, 93);
type = Stem;
},
{
place = (-257, 130);
place = (-257, 130);
type = Stem;
},
{
place = (373, 121);
place = (373, 121);
type = Stem;
},
{
place = (736, 126);
place = (736, 126);
type = Stem;
},
{
horizontal = 1;
place = (-45, 94);
place = (-45, 94);
type = Stem;
},
{
horizontal = 1;
place = (338, 104);
place = (338, 104);
type = Stem;
}
);
layerId = "E93BD6B3-FA9D-4EFB-B4A0-6094DEE674CC";
shapes = (
{
closed = 1;
nodes = (
(349,-12,o),
(416,12,o),
(463,64,c),
(507,11,o),
(572,-12,o),
(641,-12,c),
(751,-12,o),
(854,49,o),
(882,163,c),
(717,163,l),
(702,130,o),
(675,114,o),
(636,114,c),
(577,114,o),
(545,154,o),
(542,213,c),
(892,213,l),
(895,227,o),
(896,241,o),
(896,257,c),
(896,307,o),
(885,351,o),
(864,389,c),
(815,474,o),
(733,508,o),
(644,508,c),
(575,508,o),
(509,483,o),
(463,432,c),
(417,482,o),
(347,508,o),
(279,508,c),
(229,508,o),
(185,497,o),
(145,476,c),
(60,432,o),
(16,344,o),
(16,248,c),
(16,195,o),
(28,150,o),
(50,110,c),
(98,28,o),
(184,-12,o),
(277,-12,c)
);
},
{
closed = 1;
nodes = (
(212,121,o),
(174,175,o),
(174,248,c),
(174,322,o),
(213,375,o),
(278,375,c),
(344,375,o),
(384,321,o),
(384,248,c),
(384,157,o),
(328,121,o),
(277,121,c)
);
},
{
closed = 1;
nodes = (
(549,345,o),
(586,384,o),
(641,384,c),
(699,384,o),
(737,345,o),
(737,290,c),
(543,290,l)
);
}
);
width = 909;
}
);
note = oe;
unicode = 339;
},
{
glyphname = p;
kernRight = b;
lastChange = "2022-12-22 01:13:58 +0000";
layers = (
{
hints = (
{
horizontal = 1;
place = (-32, 92);
place = (-32, 92);
type = Stem;
},
{
horizontal = 1;
place = (376, 92);
place = (376, 92);
type = Stem;
},
{
place = (45, 108);
place = (45, 108);
type = Stem;
},
{
place = (453, 110);
place = (453, 110);
type = Stem;
},
{
horizontal = 1;
place = (376, 80);
place = (376, 80);
type = Stem;
},
{
place = (45, 106);
place = (45, 106);
type = Stem;
}
);
layerId = m01;
shapes = (
{
closed = 1;
nodes = (
(173,-220,l),
(173,68,l),
(200,31,o),
(255,-12,o),
(339,-12,cs),
(480,-12,o),
(569,107,o),
(569,250,cs),
(569,391,o),
(482,508,o),
(339,508,cs),
(271,508,o),
(211,480,o),
(172,427,c),
(172,496,l),
(45,496,l),
(45,-220,l)
);
},
{
closed = 1;
nodes = (
(227,100,o),
(172,165,o),
(172,248,cs),
(172,334,o),
(229,396,o),
(305,396,cs),
(377,396,o),
(439,343,o),
(439,250,cs),
(439,168,o),
(385,100,o),
(305,100,cs)
);
}
);
width = 598;
},
{
hints = (
{
horizontal = 1;
place = (-12, 73);
place = (-12, 73);
type = Stem;
},
{
horizontal = 1;
place = (435, 73);
place = (435, 73);
type = Stem;
},
{
place = (69, 84);
place = (69, 84);
type = Stem;
},
{
place = (495, 85);
place = (495, 85);
type = Stem;
},
{
place = (69, 86);
place = (69, 86);
type = Stem;
}
);
layerId = "E8FC3098-FD3B-4CCD-A487-BB9306939620";
shapes = (
{
closed = 1;
nodes = (
(153,-220,l),
(153,83,l),
(186,23,o),
(253,-12,o),
(334,-12,cs),
(484,-12,o),
(580,98,o),
(580,247,cs),
(580,397,o),
(485,508,o),
(335,508,cs),
(243,508,o),
(185,462,o),
(153,414,c),
(145,496,l),
(69,496,l),
(69,-220,l)
);
},
{
closed = 1;
nodes = (
(221,61,o),
(155,143,o),
(155,248,cs),
(155,359,o),
(224,435,o),
(325,435,cs),
(431,435,o),
(495,354,o),
(495,248,cs),
(495,137,o),
(426,61,o),
(325,61,cs)
);
}
);
width = 628;
},
{
layerId = "E93BD6B3-FA9D-4EFB-B4A0-6094DEE674CC";
shapes = (
{
closed = 1;
nodes = (
(184,-220,l),
(184,66,l),
(217,13,o),
(277,-12,o),
(340,-12,c),
(477,-12,o),
(563,105,o),
(563,249,c),
(563,398,o),
(471,508,o),
(340,508,c),
(277,508,o),
(216,481,o),
(184,429,c),
(184,496,l),
(29,496,l),
(29,-220,l)
);
},
{
closed = 1;
nodes = (
(229,123,o),
(183,175,o),
(183,248,c),
(183,325,o),
(232,373,o),
(294,373,c),
(353,373,o),
(405,331,o),
(405,249,c),
(405,175,o),
(359,123,o),
(294,123,c)
);
}
);
width = 579;
}
);
note = p;
unicode = 112;
},
{
glyphname = thorn;
kernRight = b;
lastChange = "2022-12-22 01:13:58 +0000";
layers = (
{
hints = (
{
horizontal = 1;
place = (-32, 92);
place = (-32, 92);
type = Stem;
},
{
horizontal = 1;
place = (376, 92);
place = (376, 92);
type = Stem;
},
{
place = (45, 108);
place = (45, 108);
type = Stem;
},
{
place = (453, 110);
place = (453, 110);
type = Stem;
},
{
place = (45, 106);
place = (45, 106);
type = Stem;
}
);
layerId = m01;
shapes = (
{
closed = 1;
nodes = (
(173,-220,l),
(173,68,l),
(208,17,o),
(264,-12,o),
(339,-12,cs),
(482,-12,o),
(583,101,o),
(583,247,cs),
(583,390,o),
(486,508,o),
(339,508,cs),
(255,508,o),
(205,469,o),
(173,425,c),
(173,700,l),
(45,700,l),
(45,-220,l)
);
},
{
closed = 1;
nodes = (
(229,100,o),
(171,161,o),
(171,248,cs),
(171,335,o),
(229,396,o),
(312,396,cs),
(393,396,o),
(453,334,o),
(453,247,cs),
(453,160,o),
(393,100,o),
(312,100,cs)
);
}
);
width = 612;
},
{
hints = (
{
horizontal = 1;
place = (-12, 73);
place = (-12, 73);
type = Stem;
},
{
horizontal = 1;
place = (435, 73);
place = (435, 73);
type = Stem;
},
{
place = (69, 84);
place = (69, 84);
type = Stem;
},
{
place = (495, 85);
place = (495, 85);
type = Stem;
},
{
place = (69, 86);
place = (69, 86);
type = Stem;
}
);
layerId = "E8FC3098-FD3B-4CCD-A487-BB9306939620";
shapes = (
{
closed = 1;
nodes = (
(153,-220,l),
(153,83,l),
(186,23,o),
(253,-12,o),
(334,-12,cs),
(484,-12,o),
(580,98,o),
(580,247,cs),
(580,397,o),
(485,508,o),
(335,508,cs),
(243,508,o),
(185,462,o),
(153,414,c),
(153,700,l),
(69,700,l),
(69,-220,l)
);
},
{
closed = 1;
nodes = (
(221,61,o),
(155,143,o),
(155,248,cs),
(155,359,o),
(224,435,o),
(325,435,cs),
(431,435,o),
(495,354,o),
(495,248,cs),
(495,137,o),
(426,61,o),
(325,61,cs)
);
}
);
width = 628;
},
{
layerId = "E93BD6B3-FA9D-4EFB-B4A0-6094DEE674CC";
shapes = (
{
closed = 1;
nodes = (
(184,-220,l),
(184,66,l),
(217,13,o),
(277,-12,o),
(340,-12,c),
(477,-12,o),
(563,105,o),
(563,249,c),
(563,398,o),
(471,508,o),
(340,508,c),
(277,508,o),
(216,481,o),
(184,429,c),
(184,700,l),
(29,700,l),
(29,-220,l)
);
},
{
closed = 1;
nodes = (
(229,123,o),
(183,175,o),
(183,248,c),
(183,325,o),
(232,373,o),
(294,373,c),
(353,373,o),
(405,331,o),
(405,249,c),
(405,175,o),
(359,123,o),
(294,123,c)
);
}
);
width = 579;
}
);
note = thorn;
unicode = 254;
},
{
glyphname = q;
kernLeft = c;
lastChange = "2022-12-22 01:13:58 +0000";
layers = (
{
hints = (
{
horizontal = 1;
place = (-32, 92);
place = (-32, 92);
type = Stem;
},
{
horizontal = 1;
place = (376, 92);
place = (376, 92);
type = Stem;
},
{
place = (29, 110);
place = (29, 110);
type = Stem;
},
{
place = (439, 108);
place = (439, 108);
type = Stem;
},
{
horizontal = 1;
place = (376, 80);
place = (376, 80);
type = Stem;
},
{
place = (441, 106);
place = (441, 106);
type = Stem;
}
);
layerId = m01;
shapes = (
{
closed = 1;
nodes = (
(554,-220,l),
(554,496,l),
(426,496,l),
(426,434,l),
(389,482,o),
(328,507,o),
(264,507,cs),
(127,507,o),
(29,393,o),
(29,249,cs),
(32,100,o),
(128,-11,o),
(262,-11,cs),
(344,-11,o),
(400,32,o),
(426,65,c),
(426,-220,l)
);
},
{
closed = 1;
nodes = (
(215,100,o),
(160,164,o),
(160,249,cs),
(160,330,o),
(213,396,o),
(292,396,cs),
(369,396,o),
(426,333,o),
(426,248,cs),
(426,149,o),
(358,100,o),
(292,100,cs)
);
}
);
width = 599;
},
{
hints = (
{
horizontal = 1;
place = (-12, 73);
place = (-12, 73);
type = Stem;
},
{
horizontal = 1;
place = (435, 73);
place = (435, 73);
type = Stem;
},
{
place = (48, 86);
place = (48, 86);
type = Stem;
},
{
place = (476, 84);
place = (476, 84);
type = Stem;
},
{
place = (473, 87);
place = (473, 87);
type = Stem;
}
);
layerId = "E8FC3098-FD3B-4CCD-A487-BB9306939620";
shapes = (
{
closed = 1;
nodes = (
(560,-220,l),
(560,496,l),
(484,496,l),
(476,413,l),
(441,473,o),
(376,508,o),
(295,508,cs),
(139,508,o),
(48,393,o),
(48,249,cs),
(48,103,o),
(142,-12,o),
(294,-12,cs),
(385,-12,o),
(444,34,o),
(476,82,c),
(476,-220,l)
);
},
{
closed = 1;
nodes = (
(211,61,o),
(134,131,o),
(134,248,cs),
(134,363,o),
(208,435,o),
(303,435,cs),
(410,435,o),
(473,355,o),
(473,248,cs),
(473,145,o),
(413,61,o),
(303,61,cs)
);
}
);
width = 628;
},
{
layerId = "E93BD6B3-FA9D-4EFB-B4A0-6094DEE674CC";
shapes = (
{
closed = 1;
nodes = (
(550,-220,l),
(550,496,l),
(395,496,l),
(395,431,l),
(362,481,o),
(301,508,o),
(239,508,c),
(100,508,o),
(16,389,o),
(16,249,c),
(16,109,o),
(99,-12,o),
(239,-12,c),
(304,-12,o),
(361,13,o),
(395,68,c),
(395,-220,l)
);
},
{
closed = 1;
nodes = (
(216,123,o),
(174,179,o),
(174,249,c),
(174,339,o),
(234,373,o),
(284,373,c),
(349,373,o),
(395,321,o),
(395,248,c),
(395,171,o),
(346,123,o),
(284,123,c)
);
}
);
width = 579.66667;
}
);
note = q;
unicode = 113;
},
{
glyphname = r;
kernLeft = dotlessi;
kernRight = r;
lastChange = "2022-12-22 01:13:58 +0000";
layers = (
{
anchors = (
{
name = bottom;
pos = (116,0);
},
{
name = top;
pos = (171,496);
}
);
hints = (
{
horizontal = 1;
place = (353, 115);
place = (353, 115);
type = Stem;
},
{
place = (45, 108);
place = (45, 108);
type = Stem;
},
{
horizontal = 1;
place = (353, 103);
place = (353, 103);
type = Stem;
}
);
layerId = m01;
shapes = (
{
closed = 1;
nodes = (
(173,0,l),
(172,248,ls),
(172,338,o),
(211,374,o),
(293,374,cs),
(327,374,l),
(327,508,l),
(261,508,o),
(207,478,o),
(172,422,c),
(172,496,l),
(45,496,l),
(45,0,l)
);
}
);
width = 342;
},
{
anchors = (
{
name = bottom;
pos = (116,0);
},
{
name = top;
pos = (182,496);
}
);
hints = (
{
horizontal = 1;
place = (420, 88);
place = (420, 88);
type = Stem;
},
{
place = (69, 84);
place = (69, 84);
type = Stem;
},
{
place = (69, 79.5);
place = (69, 79.5);
type = Stem;
},
{
horizontal = 1;
place = (420, 76);
place = (420, 76);
type = Stem;
}
);
layerId = "E8FC3098-FD3B-4CCD-A487-BB9306939620";
shapes = (
{
closed = 1;
nodes = (
(153,0,l),
(153,250,ls),
(153,359,o),
(206,420,o),
(315,420,cs),
(338,420,l),
(338,508,l),
(246,508,o),
(183,466,o),
(152,401,c),
(145,496,l),
(69,496,l),
(69,0,l)
);
}
);
width = 363;
},
{
anchors = (
{
name = bottom;
pos = (113,0);
},
{
name = top;
pos = (175,496);
}
);
hints = (
{
horizontal = 1;
place = (308, 133);
place = (308, 133);
type = Stem;
},
{
place = (29, 124);
place = (29, 124);
type = Stem;
},
{
horizontal = 1;
place = (308, 121);
place = (308, 121);
type = Stem;
}
);
layerId = "E93BD6B3-FA9D-4EFB-B4A0-6094DEE674CC";
shapes = (
{
closed = 1;
nodes = (
(183,0,l),
(183,233,l),
(183,313,o),
(220,345,o),
(298,345,c),
(341,345,l),
(341,508,l),
(271,508,o),
(217,470,o),
(183,419,c),
(183,496,l),
(29,496,l),
(29,0,l)
);
}
);
width = 349;
}
);
note = r;
unicode = 114;
},
{
glyphname = s;
kernLeft = s;
kernRight = s;
lastChange = "2022-12-22 01:13:58 +0000";
layers = (
{
anchors = (
{
name = bottom;
pos = (246,0);
},
{
name = top;
pos = (237,496);
}
);
hints = (
{
horizontal = 1;
place = (-32, 79);
place = (-32, 79);
type = Stem;
},
{
horizontal = 1;
place = (389, 79);
place = (389, 79);
type = Stem;
},
{
place = (36, 104);
place = (36, 104);
type = Stem;
},
{
place = (329, 108);
place = (329, 108);
type = Stem;
}
);
layerId = m01;
shapes = (
{
closed = 1;
nodes = (
(354,-12,o),
(446,41,o),
(446,140,c),
(443,238,o),
(371,268,o),
(268,294,c),
(229,304,o),
(163,319,o),
(163,359,c),
(163,396,o),
(198,407,o),
(235,407,c),
(281,407,o),
(316,385,o),
(320,342,c),
(441,342,l),
(434,451,o),
(349,508,o),
(239,508,c),
(133,508,o),
(40,453,o),
(40,357,c),
(40,258,o),
(120,228,o),
(220,204,c),
(259,193,o),
(324,181,o),
(324,140,c),
(324,104,o),
(284,88,o),
(247,88,c),
(203,88,o),
(163,113,o),
(156,156,c),
(28,156,l),
(34,53,o),
(136,-12,o),
(248,-12,c)
);
}
);
width = 474;
},
{
anchors = (
{
name = bottom;
pos = (255,0);
},
{
name = top;
pos = (250,496);
}
);
hints = (
{
horizontal = 1;
place = (-12, 71);
place = (-12, 71);
type = Stem;
},
{
horizontal = 1;
place = (437, 71);
place = (437, 71);
type = Stem;
},
{
place = (65, 85);
place = (65, 85);
type = Stem;
},
{
place = (363, 86);
place = (363, 86);
type = Stem;
}
);
layerId = "E8FC3098-FD3B-4CCD-A487-BB9306939620";
shapes = (
{
closed = 1;
nodes = (
(376,-12,o),
(450,53,o),
(449,142,cs),
(449,247,o),
(366,271,o),
(267,292,cs),
(195,308,o),
(150,328,o),
(150,368,cs),
(150,409,o),
(184,437,o),
(244,437,cs),
(305,437,o),
(343,407,o),
(350,356,c),
(433,356,l),
(422,453,o),
(350,508,o),
(245,508,cs),
(134,508,o),
(65,447,o),
(65,360,cs),
(65,272,o),
(154,240,o),
(239,222,cs),
(318,206,o),
(363,195,o),
(363,135,cs),
(363,94,o),
(331,59,o),
(260,59,cs),
(184,59,o),
(139,103,o),
(128,155,c),
(42,155,l),
(55,52,o),
(140,-12,o),
(259,-12,cs)
);
}
);
width = 500;
},
{
anchors = (
{
name = bottom;
pos = (245,0);
},
{
name = top;
pos = (235,496);
}
);
layerId = "E93BD6B3-FA9D-4EFB-B4A0-6094DEE674CC";
shapes = (
{
closed = 1;
nodes = (
(359,-12,o),
(454,43,o),
(454,142,c),
(451,251,o),
(367,276,o),
(272,300,cs),
(236,309,o),
(177,317,o),
(177,354,c),
(177,383,o),
(204,393,o),
(233,393,c),
(273,393,o),
(301,376,o),
(308,336,c),
(451,336,l),
(438,449,o),
(355,508,o),
(238,508,c),
(126,508,o),
(32,453,o),
(32,351,c),
(32,245,o),
(118,221,o),
(212,198,c),
(246,190,o),
(308,178,o),
(308,143,c),
(308,114,o),
(279,102,o),
(247,102,c),
(208,102,o),
(174,123,o),
(169,161,c),
(16,161,l),
(23,46,o),
(140,-12,o),
(249,-12,c)
);
}
);
width = 470;
}
);
note = s;
unicode = 115;
},
{
glyphname = saltillo;
lastChange = "2022-12-22 01:13:58 +0000";
layers = (
{
hints = (
{
horizontal = 1;
place = (-12, 712);
place = (-12, 712);
type = Stem;
},
{
place = (85, 122.5);
place = (85, 122.5);
type = Stem;
}
);
layerId = m01;
shapes = (
{
closed = 1;
nodes = (
(177,330,l),
(197,700,l),
(60,700,l),
(79,330,l)
);
}
);
width = 257;
},
{
hints = (
{
horizontal = 1;
place = (-5, 114);
place = (-5, 114);
type = Stem;
},
{
place = (82, 81);
place = (82, 81);
type = Stem;
},
{
place = (67, 115);
place = (67, 115);
type = Stem;
}
);
layerId = "E8FC3098-FD3B-4CCD-A487-BB9306939620";
shapes = (
{
closed = 1;
nodes = (
(141,339,l),
(156,700,l),
(65,700,l),
(80,339,l)
);
}
);
width = 221;
},
{
hints = (
{
horizontal = 1;
place = (-17, 1111);
place = (-17, 1111);
type = Stem;
},
{
place = (87, 150);
place = (87, 150);
type = Stem;
}
);
layerId = "E93BD6B3-FA9D-4EFB-B4A0-6094DEE674CC";
shapes = (
{
closed = 1;
nodes = (
(200,318,l),
(223,700,l),
(55,700,l),
(77,318,l)
);
}
);
width = 279;
}
);
note = exclam;
unicode = 42892;
},
{
glyphname = germandbls;
lastChange = "2022-12-22 01:13:58 +0000";
layers = (
{
hints = (
{
horizontal = 1;
place = (-30, 75);
place = (-30, 75);
type = Stem;
},
{
horizontal = 1;
place = (605, 87);
place = (605, 87);
type = Stem;
},
{
place = (46, 108);
place = (46, 108);
type = Stem;
},
{
place = (284, 109);
place = (284, 109);
type = Stem;
},
{
place = (531, 105);
place = (531, 105);
type = Stem;
},
{
horizontal = 1;
place = (-20, 155);
place = (-20, 155);
type = Stem;
},
{
place = (411, 107);
place = (411, 107);
type = Stem;
}
);
layerId = m01;
shapes = (
{
closed = 1;
nodes = (
(571,-10,o),
(656,52,o),
(656,159,c),
(656,248,o),
(599,290,o),
(515,321,cs),
(441,348,o),
(413,360,o),
(413,390,cs),
(413,414,o),
(438,430,o),
(457,442,c),
(495,467,o),
(538,495,o),
(538,556,c),
(538,669,o),
(433,732,o),
(304,732,c),
(157,732,o),
(46,654,o),
(46,509,c),
(46,0,l),
(174,0,l),
(174,499,l),
(174,578,o),
(212,625,o),
(299,625,c),
(357,625,o),
(411,601,o),
(411,543,c),
(411,511,o),
(388,492,o),
(367,476,c),
(354,467,o),
(342,459,o),
(329,450,c),
(303,432,o),
(284,406,o),
(284,370,c),
(284,292,o),
(366,263,o),
(438,238,c),
(488,220,o),
(531,204,o),
(531,151,c),
(531,105,o),
(498,85,o),
(452,85,c),
(398,85,o),
(363,119,o),
(357,175,c),
(236,175,l),
(251,49,o),
(340,-10,o),
(454,-10,c)
);
}
);
width = 667;
},
{
hints = (
{
horizontal = 1;
place = (-10, 66);
place = (-10, 66);
type = Stem;
},
{
horizontal = 1;
place = (661, 71);
place = (661, 71);
type = Stem;
},
{
place = (71, 83);
place = (71, 83);
type = Stem;
},
{
place = (290, 85);
place = (290, 85);
type = Stem;
},
{
place = (541, 85);
place = (541, 85);
type = Stem;
},
{
horizontal = 1;
place = (0, 169);
place = (0, 169);
type = Stem;
},
{
place = (432, 84);
place = (432, 84);
type = Stem;
}
);
layerId = "E8FC3098-FD3B-4CCD-A487-BB9306939620";
shapes = (
{
closed = 1;
nodes = (
(545,-10,o),
(626,46,o),
(626,150,c),
(626,238,o),
(572,278,o),
(489,307,c),
(447,321,o),
(375,342,o),
(375,386,c),
(375,415,o),
(404,431,o),
(425,445,c),
(465,468,o),
(516,499,o),
(516,569,c),
(516,675,o),
(418,732,o),
(302,732,c),
(165,732,o),
(71,657,o),
(71,520,c),
(71,0,l),
(154,0,l),
(154,512,l),
(154,595,o),
(191,661,o),
(300,661,c),
(371,661,o),
(432,632,o),
(432,562,c),
(432,527,o),
(413,505,o),
(383,486,c),
(368,477,o),
(354,467,o),
(340,458,c),
(314,441,o),
(290,417,o),
(290,375,c),
(290,301,o),
(368,270,o),
(438,246,c),
(496,228,o),
(541,205,o),
(541,144,c),
(541,85,o),
(499,56,o),
(440,56,c),
(364,56,o),
(326,108,o),
(321,169,c),
(238,169,l),
(248,56,o),
(330,-10,o),
(441,-10,c)
);
}
);
width = 664;
},
{
layerId = "E93BD6B3-FA9D-4EFB-B4A0-6094DEE674CC";
shapes = (
{
closed = 1;
nodes = (
(577,-10,o),
(674,50,o),
(674,165,c),
(674,256,o),
(613,299,o),
(530,330,cs),
(465,354,o),
(436,367,o),
(436,393,cs),
(436,415,o),
(461,431,o),
(475,441,cs),
(511,465,o),
(551,495,o),
(551,547,c),
(551,666,o),
(435,732,o),
(303,732,c),
(150,732,o),
(30,655,o),
(30,502,c),
(30,0,l),
(185,0,l),
(185,490,l),
(185,565,o),
(221,601,o),
(296,601,c),
(348,601,o),
(395,580,o),
(395,530,c),
(395,503,o),
(372,484,o),
(353,470,c),
(342,461,o),
(331,453,o),
(319,444,c),
(296,427,o),
(278,402,o),
(278,367,c),
(278,289,o),
(364,258,o),
(436,233,c),
(477,217,o),
(522,200,o),
(522,156,c),
(522,120,o),
(494,104,o),
(458,104,c),
(411,104,o),
(384,135,o),
(379,179,c),
(233,179,l),
(248,55,o),
(335,-10,o),
(461,-10,c)
);
}
);
width = 682;
}
);
note = germandbls;
unicode = 223;
},
{
glyphname = t;
kernLeft = t;
kernRight = t;
lastChange = "2022-12-22 01:13:58 +0000";
layers = (
{
anchors = (
{
name = bottom;
pos = (219,0);
},
{
name = center;
pos = (176,248);
},
{
name = top;
pos = (176,496);
},
{
name = topright;
pos = (253,992);
}
);
hints = (
{
horizontal = 1;
place = (-20, 609);
place = (-20, 609);
type = Stem;
},
{
place = (9, 327);
place = (9, 327);
type = Stem;
},
{
horizontal = 1;
place = (89, 260);
place = (89, 260);
type = Stem;
}
);
layerId = m01;
shapes = (
{
closed = 1;
nodes = (
(320,0,l),
(320,107,l),
(261,107,l),
(229,107,o),
(207,118,o),
(207,155,c),
(207,389,l),
(320,389,l),
(320,496,l),
(207,496,l),
(207,617,l),
(79,617,l),
(79,496,l),
(15,496,l),
(15,389,l),
(79,389,l),
(79,156,l),
(79,52,o),
(133,0,o),
(240,0,c)
);
}
);
width = 351;
},
{
anchors = (
{
name = bottom;
pos = (238,0);
},
{
name = center;
pos = (194,248);
},
{
name = top;
pos = (194,496);
},
{
name = topright;
pos = (253,992);
}
);
hints = (
{
horizontal = 1;
place = (0, 72);
place = (0, 72);
type = Stem;
},
{
horizontal = 1;
place = (425, 71);
place = (425, 71);
type = Stem;
},
{
place = (119, 84);
place = (119, 84);
type = Stem;
}
);
layerId = "E8FC3098-FD3B-4CCD-A487-BB9306939620";
shapes = (
{
closed = 1;
nodes = (
(342,0,l),
(342,72,l),
(289,72,ls),
(225,72,o),
(203,89,o),
(203,152,cs),
(203,425,l),
(342,425,l),
(342,496,l),
(203,496,l),
(203,615,l),
(119,615,l),
(119,496,l),
(33,496,l),
(33,425,l),
(119,425,l),
(119,152,ls),
(119,37,o),
(174,0,o),
(265,0,cs)
);
}
);
width = 387;
},
{
anchors = (
{
name = bottom;
pos = (206,0);
},
{
name = center;
pos = (164,248);
},
{
name = top;
pos = (164,496);
},
{
name = topright;
pos = (251,992);
}
);
hints = (
{
horizontal = 1;
place = (-33, 967);
place = (-33, 967);
type = Stem;
},
{
place = (-64, 489);
place = (-64, 489);
type = Stem;
},
{
horizontal = 1;
place = (-135, 386);
place = (-135, 386);
type = Stem;
}
);
layerId = "E93BD6B3-FA9D-4EFB-B4A0-6094DEE674CC";
shapes = (
{
closed = 1;
nodes = (
(308,0,l),
(308,131,l),
(253,131,l),
(220,131,o),
(207,140,o),
(207,173,c),
(207,369,l),
(308,369,l),
(308,496,l),
(207,496,l),
(207,619,l),
(53,619,l),
(53,496,l),
(1,496,l),
(1,369,l),
(53,369,l),
(53,175,l),
(53,56,o),
(113,0,o),
(230,0,c)
);
}
);
width = 327;
}
);
note = t;
unicode = 116;
},
{
glyphname = u;
kernLeft = u;
lastChange = "2022-12-22 01:13:58 +0000";
layers = (
{
anchors = (
{
name = bottom;
pos = (281,0);
},
{
name = ogonek;
pos = (517,0);
},
{
name = top;
pos = (280,496);
},
{
name = topright;
pos = (542,496);
}
);
hints = (
{
horizontal = 1;
place = (-32, 88);
place = (-32, 88);
type = Stem;
},
{
place = (37, 108);
place = (37, 108);
type = Stem;
},
{
place = (395, 108);
place = (395, 108);
type = Stem;
},
{
place = (405, 98);
place = (405, 98);
type = Stem;
},
{
horizontal = 1;
place = (-20, 76);
place = (-20, 76);
type = Stem;
}
);
layerId = m01;
shapes = (
{
closed = 1;
nodes = (
(297,-12,o),
(356,13,o),
(389,58,c),
(389,0,l),
(517,0,l),
(517,496,l),
(389,496,l),
(389,221,ls),
(389,145,o),
(352,96,o),
(276,96,cs),
(203,96,o),
(164,148,o),
(164,221,cs),
(164,496,l),
(37,496,l),
(37,202,ls),
(37,77,o),
(111,-12,o),
(239,-12,cs)
);
}
);
width = 562;
},
{
anchors = (
{
name = bottom;
pos = (286,0);
},
{
name = ogonek;
pos = (503,0);
},
{
name = top;
pos = (284,496);
},
{
name = topright;
pos = (552,496);
}
);
hints = (
{
horizontal = 1;
place = (-12, 72);
place = (-12, 72);
type = Stem;
},
{
place = (58, 84);
place = (58, 84);
type = Stem;
},
{
place = (419, 84);
place = (419, 84);
type = Stem;
},
{
place = (424.5, 78.5);
place = (424.5, 78.5);
type = Stem;
}
);
layerId = "E8FC3098-FD3B-4CCD-A487-BB9306939620";
shapes = (
{
closed = 1;
nodes = (
(327,-12,o),
(390,26,o),
(422,89,c),
(427,0,l),
(503,0,l),
(503,496,l),
(419,496,l),
(419,239,ls),
(419,124,o),
(355,60,o),
(270,60,cs),
(185,60,o),
(142,112,o),
(142,215,cs),
(142,496,l),
(58,496,l),
(58,206,ls),
(58,58,o),
(134,-12,o),
(251,-12,cs)
);
}
);
width = 572;
},
{
anchors = (
{
name = bottom;
pos = (277,0);
},
{
name = ogonek;
pos = (524,0);
},
{
name = top;
pos = (274,496);
},
{
name = topright;
pos = (533,496);
}
);
hints = (
{
horizontal = 1;
place = (-336, 94);
place = (-336, 94);
type = Stem;
},
{
place = (62, 180);
place = (62, 180);
type = Stem;
},
{
place = (620, 124);
place = (620, 124);
type = Stem;
},
{
place = (396, 107);
place = (396, 107);
type = Stem;
},
{
horizontal = 1;
place = (-25, 79);
place = (-25, 79);
type = Stem;
}
);
layerId = "E93BD6B3-FA9D-4EFB-B4A0-6094DEE674CC";
shapes = (
{
closed = 1;
nodes = (
(278,-12,o),
(335,13,o),
(370,62,c),
(370,0,l),
(524,0,l),
(524,496,l),
(370,496,l),
(370,223,l),
(370,159,o),
(336,117,o),
(273,117,c),
(210,117,o),
(176,159,o),
(176,223,c),
(176,496,l),
(23,496,l),
(23,202,l),
(23,78,o),
(94,-12,o),
(218,-12,c)
);
}
);
width = 553;
}
);
note = u;
unicode = 117;
},
{
glyphname = v;
lastChange = "2022-12-22 01:13:58 +0000";
layers = (
{
hints = (
{
horizontal = 1;
place = (-20, 476);
place = (-20, 476);
type = Stem;
},
{
place = (-3, 500);
place = (-3, 500);
type = Stem;
}
);
layerId = m01;
shapes = (
{
closed = 1;
nodes = (
(339,0,l),
(525,496,l),
(390,496,l),
(263,115,l),
(135,496,l),
(-1,496,l),
(185,0,l)
);
}
);
width = 524;
},
{
hints = (
{
horizontal = 1;
place = (0, 496);
place = (0, 496);
type = Stem;
},
{
place = (24, 473);
place = (24, 473);
type = Stem;
}
);
layerId = "E8FC3098-FD3B-4CCD-A487-BB9306939620";
shapes = (
{
closed = 1;
nodes = (
(309,0,l),
(497,496,l),
(411,496,l),
(261,81,l),
(112,496,l),
(24,496,l),
(212,0,l)
);
}
);
width = 521;
},
{
hints = (
{
horizontal = 1;
place = (-33, 463);
place = (-33, 463);
type = Stem;
},
{
place = (-21, 518);
place = (-21, 518);
type = Stem;
}
);
layerId = "E93BD6B3-FA9D-4EFB-B4A0-6094DEE674CC";
shapes = (
{
closed = 1;
nodes = (
(352,0,l),
(528,496,l),
(366,496,l),
(259,142,l),
(151,496,l),
(-12,496,l),
(164,0,l)
);
}
);
width = 516;
}
);
note = v;
unicode = 118;
},
{
glyphname = w;
kernLeft = w;
kernRight = w;
lastChange = "2022-12-22 01:13:58 +0000";
layers = (
{
anchors = (
{
name = bottom;
pos = (374,0);
},
{
name = top;
pos = (375,496);
}
);
hints = (
{
horizontal = 1;
place = (-20, 476);
place = (-20, 476);
type = Stem;
},
{
place = (-3, 749);
place = (-3, 749);
type = Stem;
}
);
layerId = m01;
shapes = (
{
closed = 1;
nodes = (
(283,1,l),
(375,347,l),
(467,1,l),
(604,1,l),
(751,496,l),
(629,496,l),
(540,120,l),
(446,496,l),
(311,496,l),
(215,119,l),
(126,496,l),
(-3,496,l),
(145,0,l)
);
}
);
width = 747;
},
{
anchors = (
{
name = bottom;
pos = (377,0);
},
{
name = top;
pos = (377,496);
}
);
hints = (
{
horizontal = 1;
place = (0, 496);
place = (0, 496);
type = Stem;
},
{
place = (24, 706);
place = (24, 706);
type = Stem;
}
);
layerId = "E8FC3098-FD3B-4CCD-A487-BB9306939620";
shapes = (
{
closed = 1;
nodes = (
(255,0,l),
(377,409,l),
(499,0,l),
(585,0,l),
(730,496,l),
(645,496,l),
(541,107,l),
(424,496,l),
(329,496,l),
(213,107,l),
(108,496,l),
(24,496,l),
(169,0,l)
);
}
);
width = 754;
},
{
anchors = (
{
name = bottom;
pos = (367,0);
},
{
name = top;
pos = (370,496);
}
);
hints = (
{
horizontal = 1;
place = (-33, 463);
place = (-33, 463);
type = Stem;
},
{
place = (-21, 778);
place = (-21, 778);
type = Stem;
}
);
layerId = "E93BD6B3-FA9D-4EFB-B4A0-6094DEE674CC";
shapes = (
{
closed = 1;
nodes = (
(287,0,l),
(368,322,l),
(446,0,l),
(614,0,l),
(749,496,l),
(605,496,l),
(536,143,l),
(452,496,l),
(291,496,l),
(207,141,l),
(137,496,l),
(-15,496,l),
(120,0,l)
);
}
);
width = 734;
}
);
note = w;
unicode = 119;
},
{
glyphname = x;
lastChange = "2022-12-22 01:13:58 +0000";
layers = (
{
hints = (
{
horizontal = 1;
place = (-20, 476);
place = (-20, 476);
type = Stem;
},
{
place = (-2, 506);
place = (-2, 506);
type = Stem;
}
);
layerId = m01;
shapes = (
{
closed = 1;
nodes = (
(136,0,l),
(228,154,l),
(332,0,l),
(475,1,l),
(308,249,l),
(473,496,l),
(337,496,l),
(244,343,l),
(142,496,l),
(-2,496,l),
(164,249,l),
(0,0,l)
);
}
);
width = 472;
},
{
hints = (
{
horizontal = 1;
place = (0, 496);
place = (0, 496);
type = Stem;
},
{
place = (19, 460);
place = (19, 460);
type = Stem;
}
);
layerId = "E8FC3098-FD3B-4CCD-A487-BB9306939620";
shapes = (
{
closed = 1;
nodes = (
(110,0,l),
(249,205,l),
(389,0,l),
(479,0,l),
(307,248,l),
(479,496,l),
(389,496,l),
(249,291,l),
(110,496,l),
(19,496,l),
(191,248,l),
(19,0,l)
);
}
);
width = 498;
},
{
hints = (
{
horizontal = 1;
place = (-33, 463);
place = (-33, 463);
type = Stem;
},
{
place = (-16, 537);
place = (-16, 537);
type = Stem;
}
);
layerId = "E93BD6B3-FA9D-4EFB-B4A0-6094DEE674CC";
shapes = (
{
closed = 1;
nodes = (
(156,0,l),
(236,138,l),
(331,0,l),
(502,0,l),
(331,246,l),
(497,496,l),
(333,496,l),
(253,359,l),
(158,496,l),
(-13,496,l),
(155,253,l),
(-9,0,l)
);
}
);
width = 489;
}
);
note = x;
unicode = 120;
},
{
glyphname = y;
kernLeft = y;
kernRight = y;
lastChange = "2022-12-22 01:13:58 +0000";
layers = (
{
anchors = (
{
name = bottom;
pos = (268,0);
},
{
name = top;
pos = (268,496);
}
);
hints = (
{
horizontal = 1;
place = (-240, 696);
place = (-240, 696);
type = Stem;
},
{
place = (-1, 539);
place = (-1, 539);
type = Stem;
}
);
layerId = m01;
shapes = (
{
closed = 1;
nodes = (
(226,-220,l),
(536,496,l),
(401,496,l),
(270,158,l),
(142,496,l),
(-1,496,l),
(200,23,l),
(91,-220,l)
);
}
);
width = 535;
},
{
anchors = (
{
name = bottom;
pos = (278,0);
},
{
name = top;
pos = (278,496);
}
);
hints = (
{
horizontal = 1;
place = (-220, 716);
place = (-220, 716);
type = Stem;
},
{
place = (20, 516);
place = (20, 516);
type = Stem;
}
);
layerId = "E8FC3098-FD3B-4CCD-A487-BB9306939620";
shapes = (
{
closed = 1;
nodes = (
(211,-220,l),
(536,496,l),
(449,496,l),
(275,110,l),
(111,496,l),
(20,496,l),
(233,20,l),
(123,-220,l)
);
}
);
width = 556;
},
{
anchors = (
{
name = bottom;
pos = (267,0);
},
{
name = top;
pos = (267,496);
}
);
hints = (
{
horizontal = 1;
place = (-253, 683);
place = (-253, 683);
type = Stem;
},
{
place = (-15, 554);
place = (-15, 554);
type = Stem;
}
);
layerId = "E93BD6B3-FA9D-4EFB-B4A0-6094DEE674CC";
shapes = (
{
closed = 1;
nodes = (
(243.798,-220,l),
(548,496,l),
(384,496,l),
(270,186,l),
(155,496,l),
(-15,496,l),
(187,17,l),
(80,-220,l)
);
}
);
width = 533;
}
);
note = y;
unicode = 121;
},
{
glyphname = z;
kernLeft = z;
lastChange = "2022-12-22 01:13:58 +0000";
layers = (
{
anchors = (
{
name = bottom;
pos = (207,0);
},
{
name = center;
pos = (207,248);
},
{
name = top;
pos = (207,496);
}
);
hints = (
{
horizontal = 1;
place = (-20, 86);
place = (-20, 86);
type = Stem;
},
{
horizontal = 1;
place = (370, 86);
place = (370, 86);
type = Stem;
},
{
place = (13, 384);
place = (13, 384);
type = Stem;
}
);
layerId = m01;
shapes = (
{
closed = 1;
nodes = (
(391,0,l),
(391,105,l),
(167,105,l),
(388,394,l),
(388,496,l),
(23,496,l),
(23,392,l),
(242,392,l),
(22,103,l),
(22,0,l)
);
}
);
width = 413;
},
{
anchors = (
{
name = bottom;
pos = (226,0);
},
{
name = center;
pos = (226,248);
},
{
name = top;
pos = (226,496);
}
);
hints = (
{
horizontal = 1;
place = (0, 70);
place = (0, 70);
type = Stem;
},
{
horizontal = 1;
place = (426, 70);
place = (426, 70);
type = Stem;
},
{
place = (35, 375);
place = (35, 375);
type = Stem;
}
);
layerId = "E8FC3098-FD3B-4CCD-A487-BB9306939620";
shapes = (
{
closed = 1;
nodes = (
(410,0,l),
(410,70,l),
(129,70,l),
(405,427,l),
(405,496,l),
(40,496,l),
(40,426,l),
(311,426,l),
(35,69,l),
(35,0,l)
);
}
);
width = 452;
},
{
anchors = (
{
name = bottom;
pos = (205,0);
},
{
name = center;
pos = (205,248);
},
{
name = top;
pos = (205,496);
}
);
hints = (
{
horizontal = 1;
place = (-33, 97);
place = (-33, 97);
type = Stem;
},
{
horizontal = 1;
place = (333, 97);
place = (333, 97);
type = Stem;
},
{
place = (-2, 390);
place = (-2, 390);
type = Stem;
}
);
layerId = "E93BD6B3-FA9D-4EFB-B4A0-6094DEE674CC";
shapes = (
{
closed = 1;
nodes = (
(397,0,l),
(397,125,l),
(182,125,l),
(393,375,l),
(393,496,l),
(14,496,l),
(14,371,l),
(218,371,l),
(12,121,l),
(12,0,l)
);
}
);
width = 409;
}
);
note = z;
unicode = 122;
},
{
glyphname = fi;
lastChange = "2022-08-03 00:16:09 +0000";
layers = (
{
hints = (
{
horizontal = 1;
place = (369, 87);
place = (369, 87);
type = Stem;
},
{
horizontal = 1;
place = (591, 89);
place = (591, 89);
type = Stem;
},
{
place = (68, 108);
place = (68, 108);
type = Stem;
},
{
place = (388, 108);
place = (388, 108);
type = Stem;
},
{
horizontal = 1;
place = (547, 127);
place = (547, 127);
type = Stem;
},
{
place = (373, 140);
place = (373, 140);
type = Stem;
}
);
layerId = m01;
shapes = (
{
closed = 1;
nodes = (
(186,0,l),
(186,389,l),
(275,389,l),
(275,496,l),
(186,496,l),
(186,534,ls),
(186,575,o),
(203,591,o),
(247,591,cs),
(269,591,l),
(269,700,l),
(227,700,ls),
(123,700,o),
(58,654,o),
(58,534,cs),
(58,496,l),
(0,496,l),
(0,389,l),
(58,389,l),
(58,0,l)
);
},
{
closed = 1;
nodes = (
(484,0,l),
(484,496,l),
(356,496,l),
(356,0,l)
);
},
{
closed = 1;
nodes = (
(467,560,o),
(503,597,o),
(503,643,cs),
(503,689,o),
(467,726,o),
(420,726,cs),
(374,726,o),
(337,689,o),
(337,643,cs),
(337,597,o),
(374,560,o),
(420,560,cs)
);
}
);
width = 534;
},
{
hints = (
{
horizontal = 1;
place = (425, 71);
place = (425, 71);
type = Stem;
},
{
horizontal = 1;
place = (648, 72);
place = (648, 72);
type = Stem;
},
{
place = (96, 84);
place = (96, 84);
type = Stem;
},
{
place = (404, 84);
place = (404, 84);
type = Stem;
},
{
horizontal = 1;
place = (591, 114);
place = (591, 114);
type = Stem;
},
{
place = (389, 116);
place = (389, 116);
type = Stem;
}
);
layerId = "E8FC3098-FD3B-4CCD-A487-BB9306939620";
shapes = (
{
closed = 1;
nodes = (
(180,0,l),
(180,425,l),
(302,425,l),
(302,496,l),
(180,496,l),
(180,560,ls),
(180,609,o),
(199,628,o),
(250,628,cs),
(287,628,l),
(287,700,l),
(237,700,ls),
(145,700,o),
(96,658,o),
(96,562,cs),
(96,496,l),
(21,496,l),
(21,425,l),
(96,425,l),
(96,0,l)
);
},
{
closed = 1;
nodes = (
(488,0,l),
(488,496,l),
(404,496,l),
(404,0,l)
);
},
{
closed = 1;
nodes = (
(480,591,o),
(505,616,o),
(505,649,cs),
(505,681,o),
(480,705,o),
(447,705,cs),
(415,705,o),
(389,681,o),
(389,649,cs),
(389,616,o),
(415,591,o),
(447,591,cs)
);
}
);
width = 567;
},
{
hints = (
{
horizontal = 1;
place = (332, 98);
place = (332, 98);
type = Stem;
},
{
horizontal = 1;
place = (553, 100);
place = (553, 100);
type = Stem;
},
{
place = (49, 124);
place = (49, 124);
type = Stem;
},
{
place = (377, 124);
place = (377, 124);
type = Stem;
},
{
horizontal = 1;
place = (518, 136);
place = (518, 136);
type = Stem;
},
{
place = (362, 156);
place = (362, 156);
type = Stem;
}
);
layerId = "E93BD6B3-FA9D-4EFB-B4A0-6094DEE674CC";
shapes = (
{
closed = 1;
nodes = (
(218,0,l),
(218,367,l),
(301,367,l),
(301,496,l),
(218,496,l),
(218,517,l),
(218,552,o),
(234,566,o),
(273,566,c),
(301,566,l),
(301,700,l),
(250,700,l),
(138,700,o),
(63,651,o),
(63,515,c),
(63,496,l),
(7,496,l),
(7,367,l),
(63,367,l),
(63,0,l)
);
},
{
closed = 1;
nodes = (
(510,0,l),
(510,496,l),
(356,496,l),
(356,0,l)
);
},
{
closed = 1;
nodes = (
(487,540,o),
(528,583,o),
(528,635,cs),
(528,687,o),
(487,730,o),
(433,730,cs),
(381,730,o),
(338,687,o),
(338,635,cs),
(338,583,o),
(381,540,o),
(433,540,cs)
);
}
);
width = 542;
}
);
note = fi;
unicode = 64257;
},
{
glyphname = fl;
lastChange = "2022-08-03 00:15:45 +0000";
layers = (
{
hints = (
{
horizontal = 1;
place = (369, 87);
place = (369, 87);
type = Stem;
},
{
horizontal = 1;
place = (591, 89);
place = (591, 89);
type = Stem;
},
{
place = (68, 108);
place = (68, 108);
type = Stem;
},
{
place = (404, 108);
place = (404, 108);
type = Stem;
}
);
layerId = m01;
shapes = (
{
closed = 1;
nodes = (
(186,0,l),
(186,389,l),
(275,389,l),
(275,496,l),
(186,496,l),
(186,534,ls),
(186,575,o),
(203,591,o),
(247,591,cs),
(269,591,l),
(269,700,l),
(227,700,ls),
(123,700,o),
(58,654,o),
(58,534,cs),
(58,496,l),
(0,496,l),
(0,389,l),
(58,389,l),
(58,0,l)
);
},
{
closed = 1;
nodes = (
(481,0,l),
(481,700,l),
(353,700,l),
(353,0,l)
);
}
);
width = 527;
},
{
hints = (
{
horizontal = 1;
place = (425, 71);
place = (425, 71);
type = Stem;
},
{
horizontal = 1;
place = (648, 72);
place = (648, 72);
type = Stem;
},
{
place = (96, 84);
place = (96, 84);
type = Stem;
},
{
place = (402, 84);
place = (402, 84);
type = Stem;
}
);
layerId = "E8FC3098-FD3B-4CCD-A487-BB9306939620";
shapes = (
{
closed = 1;
nodes = (
(180,0,l),
(180,425,l),
(302,425,l),
(302,496,l),
(180,496,l),
(180,560,ls),
(180,609,o),
(199,628,o),
(250,628,cs),
(287,628,l),
(287,700,l),
(237,700,ls),
(145,700,o),
(96,658,o),
(96,562,cs),
(96,496,l),
(21,496,l),
(21,425,l),
(96,425,l),
(96,0,l)
);
},
{
closed = 1;
nodes = (
(486,0,l),
(486,700,l),
(402,700,l),
(402,0,l)
);
}
);
width = 555;
},
{
hints = (
{
horizontal = 1;
place = (332, 98);
place = (332, 98);
type = Stem;
},
{
horizontal = 1;
place = (553, 100);
place = (553, 100);
type = Stem;
},
{
place = (49, 124);
place = (49, 124);
type = Stem;
},
{
place = (405, 124);
place = (405, 124);
type = Stem;
}
);
layerId = "E93BD6B3-FA9D-4EFB-B4A0-6094DEE674CC";
shapes = (
{
closed = 1;
nodes = (
(218,0,l),
(218,367,l),
(301,367,l),
(301,496,l),
(218,496,l),
(218,517,l),
(218,552,o),
(234,566,o),
(273,566,c),
(301,566,l),
(301,700,l),
(250,700,l),
(138,700,o),
(63,651,o),
(63,515,c),
(63,496,l),
(7,496,l),
(7,367,l),
(63,367,l),
(63,0,l)
);
},
{
closed = 1;
nodes = (
(514,0,l),
(514,700,l),
(360,700,l),
(360,0,l)
);
}
);
width = 542;
}
);
note = fl;
unicode = 64258;
},
{
glyphname = ordfeminine;
lastChange = "2022-09-08 21:32:24 +0000";
layers = (
{
hints = (
{
horizontal = 1;
place = (348, 77);
place = (348, 77);
type = Stem;
},
{
horizontal = 1;
place = (632, 78);
place = (632, 78);
type = Stem;
},
{
place = (29, 102);
place = (29, 102);
type = Stem;
},
{
place = (321, 99);
place = (321, 99);
type = Stem;
},
{
horizontal = 1;
place = (354, 71);
place = (354, 71);
type = Stem;
},
{
horizontal = 1;
place = (632, 73);
place = (632, 73);
type = Stem;
}
);
layerId = m01;
shapes = (
{
closed = 1;
nodes = (
(199,347,o),
(240,367,o),
(267,406,c),
(284,371,o),
(320,354,o),
(367,354,c),
(384,354,l),
(384,429,l),
(362,429,o),
(347,440,o),
(347,464,cs),
(347,559,ls),
(347,664,o),
(275,710,o),
(194,710,cs),
(114,710,o),
(55,666,o),
(39,588,c),
(128,588,l),
(136,618,o),
(160,635,o),
(191,635,cs),
(234,635,o),
(255,604,o),
(257,561,c),
(174,561,ls),
(96,561,o),
(29,530,o),
(29,450,cs),
(29,383,o),
(89,347,o),
(146,347,cs)
);
},
{
closed = 1;
nodes = (
(143,418,o),
(120,431,o),
(120,460,cs),
(120,492,o),
(150,504,o),
(180,504,cs),
(257,504,l),
(257,451,o),
(217,418,o),
(172,418,cs)
);
}
);
width = 404;
},
{
hints = (
{
horizontal = 1;
place = (347, 53);
place = (347, 53);
type = Stem;
},
{
horizontal = 1;
place = (656, 53);
place = (656, 53);
type = Stem;
},
{
place = (34, 69);
place = (34, 69);
type = Stem;
},
{
place = (333, 67);
place = (333, 67);
type = Stem;
},
{
place = (336.5, 63.5);
place = (336.5, 63.5);
type = Stem;
}
);
layerId = "E8FC3098-FD3B-4CCD-A487-BB9306939620";
shapes = (
{
closed = 1;
nodes = (
(222,347,o),
(263,377,o),
(286,417,c),
(297,373,o),
(330,354,o),
(371,354,cs),
(378,354,l),
(378,406,l),
(353,406,o),
(340,418,o),
(340,445,cs),
(340,568,ls),
(340,648,o),
(297,710,o),
(194,710,cs),
(121,710,o),
(50,669,o),
(44,593,c),
(104,593,l),
(113,637,o),
(149,660,o),
(194,660,cs),
(243,660,o),
(281,634,o),
(281,564,c),
(188,564,ls),
(108,564,o),
(37,534,o),
(37,454,cs),
(37,383,o),
(93,347,o),
(165,347,cs)
);
},
{
closed = 1;
nodes = (
(133,396,o),
(98,414,o),
(98,456,cs),
(98,505,o),
(144,518,o),
(193,518,cs),
(281,518,l),
(281,458,o),
(244,396,o),
(174,396,cs)
);
}
);
width = 407;
},
{
layerId = "E93BD6B3-FA9D-4EFB-B4A0-6094DEE674CC";
shapes = (
{
closed = 1;
nodes = (
(184,347,o),
(225,360,o),
(254,399,c),
(275,370,o),
(313,354,o),
(364,354,c),
(388,354,l),
(388,444,l),
(368,444,o),
(352,455,o),
(352,477,cs),
(352,553,ls),
(352,675,o),
(260,710,o),
(194,710,cs),
(109,710,o),
(58,664,o),
(36,585,c),
(144,585,l),
(151,605,o),
(167,618,o),
(189,618,cs),
(228,618,o),
(238,584,o),
(241,559,c),
(165,559,ls),
(88,559,o),
(24,527,o),
(24,447,cs),
(24,383,o),
(86,347,o),
(133,347,cs)
);
},
{
closed = 1;
nodes = (
(150,433,o),
(135,442,o),
(135,463,cs),
(135,483,o),
(154,495,o),
(171,495,cs),
(241,495,l),
(241,446,o),
(199,433,o),
(171,433,cs)
);
}
);
width = 402;
}
);
note = ordfeminine;
unicode = 170;
},
{
glyphname = ordmasculine;
lastChange = "2022-07-14 21:12:52 +0000";
layers = (
{
hints = (
{
horizontal = 1;
place = (349, 78);
place = (349, 78);
type = Stem;
},
{
horizontal = 1;
place = (636, 76);
place = (636, 76);
type = Stem;
},
{
place = (29, 101);
place = (29, 101);
type = Stem;
},
{
place = (316, 101);
place = (316, 101);
type = Stem;
}
);
layerId = m01;
shapes = (
{
closed = 1;
nodes = (
(318,349,o),
(390,428,o),
(390,531,cs),
(390,641,o),
(311,712,o),
(210,712,cs),
(112,712,o),
(29,646,o),
(29,531,cs),
(29,421,o),
(105,349,o),
(207,349,cs)
);
},
{
closed = 1;
nodes = (
(152,426,o),
(119,472,o),
(119,531,cs),
(119,588,o),
(151,635,o),
(209,635,cs),
(268,635,o),
(299,590,o),
(299,531,cs),
(299,473,o),
(267,426,o),
(207,426,cs)
);
}
);
width = 419;
},
{
hints = (
{
horizontal = 1;
place = (348, 55);
place = (348, 55);
type = Stem;
},
{
horizontal = 1;
place = (659, 53);
place = (659, 53);
type = Stem;
},
{
place = (34, 69);
place = (34, 69);
type = Stem;
},
{
place = (331, 69);
place = (331, 69);
type = Stem;
}
);
layerId = "E8FC3098-FD3B-4CCD-A487-BB9306939620";
shapes = (
{
closed = 1;
nodes = (
(319,349,o),
(399,420,o),
(399,531,cs),
(399,651,o),
(316,712,o),
(217,712,cs),
(107,712,o),
(35,636,o),
(35,531,cs),
(35,413,o),
(119,349,o),
(216,349,cs)
);
},
{
closed = 1;
nodes = (
(153,404,o),
(103,448,o),
(103,531,cs),
(103,614,o),
(155,659,o),
(216,659,cs),
(279,659,o),
(331,614,o),
(331,531,cs),
(331,448,o),
(277,404,o),
(216,404,cs)
);
}
);
width = 433;
},
{
layerId = "E93BD6B3-FA9D-4EFB-B4A0-6094DEE674CC";
shapes = (
{
closed = 1;
nodes = (
(317,349,o),
(384,433,o),
(384,531,cs),
(384,634,o),
(308,712,o),
(205,712,cs),
(115,712,o),
(25,653,o),
(25,531,cs),
(25,426,o),
(96,349,o),
(201,349,cs)
);
},
{
closed = 1;
nodes = (
(151,441,o),
(130,488,o),
(130,531,cs),
(130,571,o),
(148,619,o),
(204,619,cs),
(261,619,o),
(278,574,o),
(278,531,cs),
(278,490,o),
(260,441,o),
(201,441,cs)
);
}
);
width = 409.66667;
}
);
note = ordmasculine;
unicode = 186;
},
{
glyphname = "Ya-cy";
lastChange = "2022-09-08 23:22:21 +0000";
layers = (
{
layerId = m01;
shapes = (
{
closed = 1;
nodes = (
(173,0,l),
(345,295,l),
(423,295,l),
(423,0,l),
(551,0,l),
(551,700,l),
(308,700,ls),
(163,700,o),
(68,627,o),
(68,498,cs),
(68,398,o),
(125,338,o),
(217,316,c),
(22,0,l)
);
},
{
closed = 1;
nodes = (
(222,404,o),
(198,444,o),
(198,498,cs),
(198,551,o),
(222,591,o),
(311,591,cs),
(423,591,l),
(423,404,l),
(311,404,ls)
);
}
);
width = 615;
},
{
layerId = "E8FC3098-FD3B-4CCD-A487-BB9306939620";
shapes = (
{
closed = 1;
nodes = (
(139,0,l),
(319,310,l),
(435,310,l),
(435,0,l),
(519,0,l),
(519,700,l),
(312,700,l),
(165,700,o),
(78,636,o),
(78,505,c),
(78,395,o),
(139,343,o),
(236,326,c),
(35,0,l)
);
},
{
closed = 1;
nodes = (
(202,381,o),
(164,422,o),
(164,505,c),
(164,589,o),
(202,630,o),
(314,630,c),
(435,630,l),
(435,381,l),
(314,381,l)
);
}
);
width = 593;
},
{
layerId = "E93BD6B3-FA9D-4EFB-B4A0-6094DEE674CC";
shapes = (
{
closed = 1;
nodes = (
(186,0,l),
(352,285,l),
(405,285,l),
(405,0,l),
(562,0,l),
(562,700,l),
(295,700,ls),
(152,700,o),
(51,621,o),
(51,493,cs),
(51,400,o),
(106,335,o),
(194,309,c),
(3,0,l)
);
},
{
closed = 1;
nodes = (
(225,419,o),
(211,459,o),
(211,493,cs),
(211,526,o),
(225,565,o),
(299,565,cs),
(405,565,l),
(405,419,l),
(299,419,ls)
);
}
);
width = 610;
}
);
unicode = 1071;
},
{
glyphname = Delta;
lastChange = "2022-07-12 22:38:49 +0000";
layers = (
{
hints = (
{
horizontal = 1;
place = (0, 98);
place = (0, 98);
type = Stem;
},
{
place = (23, 665);
place = (23, 665);
type = Stem;
}
);
layerId = m01;
shapes = (
{
closed = 1;
nodes = (
(688,0,l),
(688,98,l),
(408,700,l),
(303,700,l),
(23,98,l),
(23,0,l)
);
},
{
closed = 1;
nodes = (
(355,555,l),
(557,98,l),
(154,98,l)
);
}
);
width = 711;
},
{
hints = (
{
horizontal = 1;
place = (0, 65);
place = (0, 65);
type = Stem;
},
{
place = (30, 635);
place = (30, 635);
type = Stem;
}
);
layerId = "E8FC3098-FD3B-4CCD-A487-BB9306939620";
shapes = (
{
closed = 1;
nodes = (
(665,0,l),
(665,65,l),
(382,700,l),
(312,700,l),
(30,65,l),
(30,0,l)
);
},
{
closed = 1;
nodes = (
(347,604,l),
(580,65,l),
(115,65,l)
);
}
);
width = 695;
},
{
hints = (
{
horizontal = 1;
place = (0, 120);
place = (0, 120);
type = Stem;
},
{
place = (18, 685);
place = (18, 685);
type = Stem;
}
);
layerId = "E93BD6B3-FA9D-4EFB-B4A0-6094DEE674CC";
shapes = (
{
closed = 1;
nodes = (
(703,0,l),
(703,120,l),
(425,700,l),
(297,700,l),
(18,120,l),
(18,0,l)
);
},
{
closed = 1;
nodes = (
(360,522,l),
(542,120,l),
(180,120,l)
);
}
);
width = 721.66667;
}
);
note = uni2206;
unicode = 916;
},
{
glyphname = pi;
lastChange = "2022-07-12 22:38:49 +0000";
layers = (
{
hints = (
{
horizontal = 1;
place = (398, 98);
place = (398, 98);
type = Stem;
},
{
place = (107, 128);
place = (107, 128);
type = Stem;
},
{
place = (411, 128);
place = (411, 128);
type = Stem;
}
);
layerId = m01;
shapes = (
{
closed = 1;
nodes = (
(235,0,l),
(235,398,l),
(411,398,l),
(411,0,l),
(539,0,l),
(539,398,l),
(614,398,l),
(614,496,l),
(33,496,l),
(33,398,l),
(107,398,l),
(107,0,l)
);
}
);
width = 647;
},
{
hints = (
{
horizontal = 1;
place = (430, 66);
place = (430, 66);
type = Stem;
},
{
place = (125, 84);
place = (125, 84);
type = Stem;
},
{
place = (437, 84);
place = (437, 84);
type = Stem;
}
);
layerId = "E8FC3098-FD3B-4CCD-A487-BB9306939620";
shapes = (
{
closed = 1;
nodes = (
(209,0,l),
(209,430,l),
(437,430,l),
(437,0,l),
(521,0,l),
(521,430,l),
(600,430,l),
(600,496,l),
(46,496,l),
(46,430,l),
(125,430,l),
(125,0,l)
);
}
);
width = 646;
},
{
hints = (
{
horizontal = 1;
place = (377, 119);
place = (377, 119);
type = Stem;
},
{
place = (95, 157);
place = (95, 157);
type = Stem;
},
{
place = (394, 157);
place = (394, 157);
type = Stem;
}
);
layerId = "E93BD6B3-FA9D-4EFB-B4A0-6094DEE674CC";
shapes = (
{
closed = 1;
nodes = (
(252,0,l),
(252,377,l),
(394,377,l),
(394,0,l),
(551,0,l),
(551,377,l),
(623,377,l),
(623,496,l),
(24,496,l),
(24,377,l),
(95,377,l),
(95,0,l)
);
}
);
width = 647.66667;
}
);
note = pi;
unicode = (928,960);
},
{
glyphname = Omega;
lastChange = "2022-07-12 22:38:49 +0000";
layers = (
{
hints = (
{
horizontal = 1;
place = (0, 98);
place = (0, 98);
type = Stem;
},
{
horizontal = 1;
place = (595, 117);
place = (595, 117);
type = Stem;
},
{
place = (48, 272);
place = (48, 272);
type = Stem;
},
{
place = (620, 130);
place = (620, 130);
type = Stem;
},
{
place = (39, 130);
place = (39, 130);
type = Stem;
},
{
place = (468, 272);
place = (468, 272);
type = Stem;
}
);
layerId = m01;
shapes = (
{
closed = 1;
nodes = (
(320,0,l),
(320,102,l),
(232,141,o),
(169,229,o),
(169,350,cs),
(169,401,o),
(179,444,o),
(198,481,cs),
(236,553,o),
(306,595,o),
(394,595,cs),
(438,595,o),
(477,585,o),
(511,566,cs),
(579,526,o),
(620,451,o),
(620,350,cs),
(620,229,o),
(557,141,o),
(468,102,c),
(468,0,l),
(740,0,l),
(740,98,l),
(623,98,l),
(711,159,o),
(750,255,o),
(750,363,cs),
(750,468,o),
(711,556,o),
(647,617,cs),
(582,678,o),
(493,712,o),
(394,712,cs),
(295,712,o),
(207,678,o),
(143,617,cs),
(78,556,o),
(39,468,o),
(39,363,cs),
(39,255,o),
(78,159,o),
(165,98,c),
(48,98,l),
(48,0,l)
);
}
);
width = 788;
},
{
hints = (
{
horizontal = 1;
place = (0, 66);
place = (0, 66);
type = Stem;
},
{
horizontal = 1;
place = (636, 76);
place = (636, 76);
type = Stem;
},
{
place = (56, 275);
place = (56, 275);
type = Stem;
},
{
place = (662, 85);
place = (662, 85);
type = Stem;
},
{
place = (43, 84);
place = (43, 84);
type = Stem;
},
{
place = (458, 274);
place = (458, 274);
type = Stem;
}
);
layerId = "E8FC3098-FD3B-4CCD-A487-BB9306939620";
shapes = (
{
closed = 1;
nodes = (
(331,0,l),
(331,69,l),
(207,101,o),
(127,212,o),
(127,352,cs),
(127,409,o),
(139,458,o),
(162,501,cs),
(208,586,o),
(291,636,o),
(394,636,cs),
(445,636,o),
(490,624,o),
(531,601,cs),
(611,554,o),
(662,467,o),
(662,352,cs),
(662,221,o),
(591,103,o),
(458,69,c),
(458,0,l),
(732,0,l),
(732,66,l),
(590,66,l),
(693,122,o),
(747,234,o),
(747,357,cs),
(747,462,o),
(709,550,o),
(645,614,cs),
(580,677,o),
(493,712,o),
(394,712,cs),
(297,712,o),
(209,677,o),
(145,614,cs),
(81,550,o),
(43,462,o),
(43,357,cs),
(43,234,o),
(96,122,o),
(199,66,c),
(56,66,l),
(56,0,l)
);
}
);
width = 789;
},
{
hints = (
{
horizontal = 1;
place = (0, 119);
place = (0, 119);
type = Stem;
},
{
horizontal = 1;
place = (568, 144);
place = (568, 144);
type = Stem;
},
{
place = (43, 270);
place = (43, 270);
type = Stem;
},
{
place = (592, 160);
place = (592, 160);
type = Stem;
},
{
place = (36, 161);
place = (36, 161);
type = Stem;
},
{
place = (475, 271);
place = (475, 271);
type = Stem;
}
);
layerId = "E93BD6B3-FA9D-4EFB-B4A0-6094DEE674CC";
shapes = (
{
closed = 1;
nodes = (
(313,0,l),
(313,124,l),
(249,168,o),
(197,240,o),
(197,349,cs),
(197,396,o),
(206,435,o),
(222,468,cs),
(255,531,o),
(316,568,o),
(394,568,cs),
(433,568,o),
(468,559,o),
(498,543,cs),
(558,507,o),
(592,440,o),
(592,349,cs),
(592,234,o),
(534,166,o),
(475,124,c),
(475,0,l),
(745,0,l),
(745,119,l),
(645,119,l),
(723,184,o),
(752,269,o),
(752,367,cs),
(752,472,o),
(712,560,o),
(648,619,cs),
(583,679,o),
(493,712,o),
(394,712,cs),
(294,712,o),
(206,679,o),
(142,619,cs),
(76,560,o),
(36,472,o),
(36,367,cs),
(36,269,o),
(66,184,o),
(142,119,c),
(43,119,l),
(43,0,l)
);
}
);
width = 787.33333;
}
);
note = uni2126;
unicode = 937;
},
